<?xml version="1.0" encoding="UTF-8"?>
<svg width="324px" height="96px" viewBox="0 0 324 96" version="1.1" xmlns="http://www.w3.org/2000/svg" xmlns:xlink="http://www.w3.org/1999/xlink">
    <!-- Generator: Sketch 46.2 (44496) - http://www.bohemiancoding.com/sketch -->
    <title>96-logo-horizontal-singleLine</title>
    <desc>Created with Sketch.</desc>
    <defs>
        <linearGradient x1="66.5482535%" y1="-4.69211158%" x2="80.2718164%" y2="111.186421%" id="linearGradient-1">
            <stop stop-color="#7AD852" offset="0%"></stop>
            <stop stop-color="#3AB38B" offset="53.5842857%"></stop>
            <stop stop-color="#00BFC9" offset="100%"></stop>
        </linearGradient>
        <linearGradient x1="78.0937359%" y1="0.737604065%" x2="20.393625%" y2="118.621864%" id="linearGradient-2">
            <stop stop-color="#FF2953" offset="0%"></stop>
            <stop stop-color="#EA3333" offset="100%"></stop>
        </linearGradient>
    </defs>
    <g id="Page-1" stroke="none" stroke-width="1" fill="none" fill-rule="evenodd">
        <g id="Logo-2" transform="translate(-604.000000, -13601.000000)">
            <g id="Group-4" transform="translate(80.000000, 13191.000000)">
                <g id="96-logo-horizontal-singleLine" transform="translate(524.000000, 410.000000)">
                    <g id="logo-st-copy-2">
                        <g id="Group">
                            <g id="Group-3-Copy">
                                <path d="M25.9459514,1.83180599 C18.0674566,5.18385626 0.0608270795,22.4410604 0,36.0399542 C0.106082221,50.0983791 18.0674566,66.896494 25.9459514,70.2485442 C27.7524656,71.0166212 30.5556622,72.0799083 33.5162528,72.0799083 C36.2161321,72.0799083 38.5022229,70.7476072 40.8284013,67.949739 C44.7381922,63.2462622 44.2677279,56.4833362 39.0570181,52.6451613 C32.8214884,48.054819 27.7181731,43.9346181 27.6117782,36.0399542 C27.7181731,28.1457321 32.8214884,22.6356781 39.0570181,18.0448939 C44.2677279,14.2071609 45.2825561,8.38564984 41.3727652,3.68217309 C39.0470265,0.884304892 36.2156924,0 33.5162528,0 C30.5552226,0 27.7524656,1.06328714 25.9459514,1.83180599 Z" id="Fill-1" fill="url(#linearGradient-1)"></path>
                                <path d="M40.6969697,68.1290323 C44.1549724,64.1957897 44.5842817,56.3931434 39.1565532,52.6451613 C31.5485284,47.3916302 27.6648763,42.3833436 27.7104286,35.9651621 C27.762084,28.6870622 32.3937981,24.1297497 33.5481335,22.7096774 C16.2724262,42.1051592 13.8795535,64.0194269 30.6046488,71.7395025 C34.4314044,73.0700295 37.709116,71.5275122 40.6969697,68.1290323 Z" id="Fill-9" fill="#005892"></path>
                                <path d="M32.6187986,61.1659305 C34.8386427,58.4378654 34.6272266,53.2656726 31.6299374,50.4264435 C26.8639635,45.9118 26.0130232,41.0003336 26.0422652,36.5487352 C26.0754251,31.5007042 29.0487262,28.3397893 29.7897449,27.3548387 C18.699708,40.8073872 15.4035189,58.3155416 26.1400936,63.6701233 C28.5966565,64.592966 30.7007638,63.5230886 32.6187986,61.1659305 Z" id="Fill-9" fill="#00418E"></path>
                                <path d="M27.9147528,55.8977447 C29.331312,54.1568722 29.1964001,50.8563174 27.2837264,49.0445073 C24.2423939,46.1635575 23.6993795,43.0293813 23.7180399,40.1886626 C23.7392003,36.9673398 24.7604614,34.1869492 23.0817371,37.9080227 C21.4030128,41.6290961 16.9290887,54.0788132 23.7804676,57.4957566 C25.3480851,58.0846543 26.6907886,57.4019286 27.9147528,55.8977447 Z" id="Fill-9" fill="#002355"></path>
                            </g>
                            <g id="Group-4-Copy" transform="translate(41.212121, 23.741935)">
                                <g id="Group-5">
                                    <path d="M10.2201858,72.217956 C7.53356827,72.217956 4.71568281,71.3341432 2.40099118,68.5378319 C-1.49022861,63.8369723 -0.473491646,58.0194923 4.71246775,54.1838948 C10.9183792,49.5956651 15.9907251,44.0878855 16.0966146,36.1980561 C15.9907251,28.3077851 10.9119513,23.0677135 4.71246775,18.4561916 C0.135480195,15.0515727 -1.49022861,8.55869822 2.40099118,3.8578387 C4.71612037,1.06152735 7.53313071,0.178156214 10.2201858,0.178156214 C13.1667138,0.178156214 15.9565955,1.2408517 17.7545289,2.00850122 C25.5956015,5.35868626 43.4366298,22.10568 43.5747924,36.1980561 C43.530607,49.4808626 25.5956015,67.0369843 17.7545289,70.3871693 C15.9565955,71.1552605 13.1671514,72.217956 10.2201858,72.217956 Z" id="Fill-1-Copy-6" fill="url(#linearGradient-2)"></path>
                                    <path d="M22.5574576,45.6907536 C26.0330966,41.7575111 25.4436206,34.6985213 19.98821,30.9505393 C12.3413834,25.6970081 8.69567546,19.6736662 8.74146003,13.2554847 C8.79337889,5.97738477 13.4487153,1.42007233 14.608938,-7.10542736e-15 C-3.43614578,13.2554847 -5.15995421,41.3097495 11.6504411,49.0298251 C15.4967137,50.360352 19.5543655,49.0892336 22.5574576,45.6907536 Z" id="Fill-9" fill="#470000" opacity="0.600000024" style="mix-blend-mode: multiply;" transform="translate(12.363636, 24.774194) rotate(-180.000000) translate(-12.363636, -24.774194) "></path>
                                    <path d="M23.2851073,40.6957867 C25.5049514,37.9677217 25.2935353,32.7955288 22.2962461,29.9562997 C17.5302722,25.4416562 16.6793318,20.5301899 16.7085738,16.0785914 C16.7417337,11.0305604 17.7517196,8.72688611 18.4927383,7.74193548 C9.46650247,18.3502628 6.5161166,38.0769586 16.8064023,43.1999795 C19.2629652,44.1228222 21.3670725,43.0529448 23.2851073,40.6957867 Z" id="Fill-9-Copy" fill="#670010" transform="translate(17.538044, 25.635896) rotate(-180.000000) translate(-17.538044, -25.635896) "></path>
                                    <path d="M23.8890459,33.9732608 C25.305605,32.2323883 25.1706931,28.9318335 23.2580194,27.1200234 C20.2166869,24.2390736 19.1985172,20.582195 19.0844218,18.5547333 C18.9436956,16.0540468 18.9602658,15.6990227 19.3986642,13.9354839 C18.0605783,16.3448892 12.2009431,32.9714366 19.7547606,35.5712727 C21.3223782,36.1601705 22.6650817,35.4774448 23.8890459,33.9732608 Z" id="Fill-9-Copy-2" fill="#730000" style="mix-blend-mode: multiply;" transform="translate(20.404128, 24.858631) rotate(-180.000000) translate(-20.404128, -24.858631) "></path>
                                </g>
                            </g>
                        </g>
                    </g>
                    <path d="M123.196,40.784 C122.075994,40.4533317 121.046671,40.288 120.108,40.288 C118.80666,40.288 117.766671,40.5386642 116.988,41.04 C116.209329,41.5413358 115.82,42.229329 115.82,43.104 C115.82,43.8933373 116.054664,44.5386642 116.524,45.04 C116.993336,45.5413358 117.56933,45.9359986 118.252,46.224 C118.93467,46.5120014 119.883994,46.8479981 121.1,47.232 C122.614674,47.7013357 123.841329,48.1493312 124.78,48.576 C125.718671,49.0026688 126.518663,49.6373291 127.18,50.48 C127.841337,51.3226709 128.172,52.4373264 128.172,53.824 C128.172,55.1040064 127.825337,56.2239952 127.132,57.184 C126.438663,58.1440048 125.468006,58.8853307 124.22,59.408 C122.971994,59.9306693 121.537341,60.192 119.916,60.192 C118.273325,60.192 116.673341,59.8720032 115.116,59.232 C113.558659,58.5919968 112.214672,57.738672 111.084,56.672 L112.46,54.016 C113.526672,55.0613386 114.72666,55.8666638 116.06,56.432 C117.39334,56.9973362 118.689327,57.28 119.948,57.28 C121.441341,57.28 122.619996,56.9866696 123.484,56.4 C124.348004,55.8133304 124.78,55.0186717 124.78,54.016 C124.78,53.2266627 124.545336,52.5760026 124.076,52.064 C123.606664,51.5519974 123.01467,51.1466682 122.3,50.848 C121.58533,50.5493318 120.620006,50.2186685 119.404,49.856 C117.910659,49.4079978 116.694671,48.9706688 115.756,48.544 C114.817329,48.1173312 114.02267,47.4880042 113.372,46.656 C112.72133,45.8239958 112.396,44.7253402 112.396,43.36 C112.396,42.1653274 112.726663,41.1093379 113.388,40.192 C114.049337,39.2746621 114.977327,38.5706691 116.172,38.08 C117.366673,37.5893309 118.753325,37.344 120.332,37.344 C121.676007,37.344 122.993327,37.5413314 124.284,37.936 C125.574673,38.3306686 126.721328,38.8586634 127.724,39.52 L126.444,42.272 C125.398661,41.6106634 124.316006,41.1146683 123.196,40.784 Z M138.188,37.6 L155.692,37.6 L155.692,40.416 L148.46,40.416 L148.46,60 L145.388,60 L145.388,40.416 L138.188,40.416 L138.188,37.6 Z M184.076,37.6 L175.692,52.32 L175.692,60 L172.62,60 L172.62,52.448 L164.108,37.6 L167.244,37.6 L174.156,49.024 L180.94,37.6 L184.076,37.6 Z M195.372,37.6 L198.444,37.6 L198.444,57.216 L208.236,57.216 L208.236,60 L195.372,60 L195.372,37.6 Z M237.004,60 L234.636,54.56 L222.828,54.56 L220.492,60 L217.26,60 L227.212,37.6 L230.412,37.6 L240.332,60 L237.004,60 Z M224.044,51.776 L233.452,51.776 L228.716,40.896 L224.044,51.776 Z M266.556,39.088 C267.868007,40.080005 268.524,41.4506579 268.524,43.2 C268.524,44.4800064 268.161337,45.5626622 267.436,46.448 C266.710663,47.3333378 265.718673,47.9253318 264.46,48.224 C266.017341,48.4586678 267.238662,49.0826616 268.124,50.096 C269.009338,51.1093384 269.452,52.3733258 269.452,53.888 C269.452,55.8080096 268.732007,57.3066613 267.292,58.384 C265.851993,59.4613387 263.862679,60 261.324,60 L251.596,60 L251.596,37.6 L261.164,37.6 C263.446678,37.6 265.243993,38.095995 266.556,39.088 Z M264.22,46.224 C264.977337,45.6373304 265.356,44.8000054 265.356,43.712 C265.356,42.645328 264.977337,41.8240029 264.22,41.248 C263.462663,40.6719971 262.390674,40.3946666 261.004,40.416 L254.668,40.416 L254.668,47.104 L261.004,47.104 C262.390674,47.104 263.462663,46.8106696 264.22,46.224 Z M264.908,56.24 C265.846671,55.5893301 266.316,54.6773392 266.316,53.504 C266.316,52.3733277 265.846671,51.4880032 264.908,50.848 C263.969329,50.2079968 262.668008,49.888 261.004,49.888 L254.668,49.888 L254.668,57.184 L261.004,57.184 C262.668008,57.2053334 263.969329,56.8906699 264.908,56.24 Z M282.38,37.6 L285.452,37.6 L285.452,57.216 L295.244,57.216 L295.244,60 L282.38,60 L282.38,37.6 Z M307.148,37.6 L322.7,37.6 L322.7,40.384 L310.22,40.384 L310.22,47.296 L321.388,47.296 L321.388,50.08 L310.22,50.08 L310.22,57.216 L323.084,57.216 L323.084,60 L307.148,60 L307.148,37.6 Z" id="stylable" fill="#18455A"></path>
                </g>
            </g>
        </g>
    </g>
</svg>