<?xml version="1.0" encoding="UTF-8"?>
<svg width="337px" height="186px" viewBox="0 0 337 186" version="1.1" xmlns="http://www.w3.org/2000/svg" xmlns:xlink="http://www.w3.org/1999/xlink">
    <!-- Generator: Sketch 46.2 (44496) - http://www.bohemiancoding.com/sketch -->
    <title>96-logo-vertical</title>
    <desc>Created with Sketch.</desc>
    <defs>
        <linearGradient x1="66.5482535%" y1="-4.69211158%" x2="80.2718164%" y2="111.186421%" id="linearGradient-1">
            <stop stop-color="#7AD852" offset="0%"></stop>
            <stop stop-color="#3AB38B" offset="53.5842857%"></stop>
            <stop stop-color="#00BFC9" offset="100%"></stop>
        </linearGradient>
        <linearGradient x1="78.0937359%" y1="0.737604065%" x2="20.393625%" y2="118.621864%" id="linearGradient-2">
            <stop stop-color="#FF2953" offset="0%"></stop>
            <stop stop-color="#EA3333" offset="100%"></stop>
        </linearGradient>
    </defs>
    <g id="Page-1" stroke="none" stroke-width="1" fill="none" fill-rule="evenodd">
        <g id="Logo-2" transform="translate(-152.000000, -13681.000000)">
            <g id="Group-4" transform="translate(80.000000, 13191.000000)">
                <g id="96-logo-vertical" transform="translate(70.000000, 490.000000)">
                    <g id="logo-st-copy-2" transform="translate(128.000000, 0.000000)">
                        <g id="Group">
                            <g id="Group-3-Copy">
                                <path d="M25.9459514,1.83180599 C18.0674566,5.18385626 0.0608270795,22.4410604 0,36.0399542 C0.106082221,50.0983791 18.0674566,66.896494 25.9459514,70.2485442 C27.7524656,71.0166212 30.5556622,72.0799083 33.5162528,72.0799083 C36.2161321,72.0799083 38.5022229,70.7476072 40.8284013,67.949739 C44.7381922,63.2462622 44.2677279,56.4833362 39.0570181,52.6451613 C32.8214884,48.054819 27.7181731,43.9346181 27.6117782,36.0399542 C27.7181731,28.1457321 32.8214884,22.6356781 39.0570181,18.0448939 C44.2677279,14.2071609 45.2825561,8.38564984 41.3727652,3.68217309 C39.0470265,0.884304892 36.2156924,0 33.5162528,0 C30.5552226,0 27.7524656,1.06328714 25.9459514,1.83180599 Z" id="Fill-1" fill="url(#linearGradient-1)"></path>
                                <path d="M40.6969697,68.1290323 C44.1549724,64.1957897 44.5842817,56.3931434 39.1565532,52.6451613 C31.5485284,47.3916302 27.6648763,42.3833436 27.7104286,35.9651621 C27.762084,28.6870622 32.3937981,24.1297497 33.5481335,22.7096774 C16.2724262,42.1051592 13.8795535,64.0194269 30.6046488,71.7395025 C34.4314044,73.0700295 37.709116,71.5275122 40.6969697,68.1290323 Z" id="Fill-9" fill="#005892"></path>
                                <path d="M32.6187986,61.1659305 C34.8386427,58.4378654 34.6272266,53.2656726 31.6299374,50.4264435 C26.8639635,45.9118 26.0130232,41.0003336 26.0422652,36.5487352 C26.0754251,31.5007042 29.0487262,28.3397893 29.7897449,27.3548387 C18.699708,40.8073872 15.4035189,58.3155416 26.1400936,63.6701233 C28.5966565,64.592966 30.7007638,63.5230886 32.6187986,61.1659305 Z" id="Fill-9" fill="#00418E"></path>
                                <path d="M27.9147528,55.8977447 C29.331312,54.1568722 29.1964001,50.8563174 27.2837264,49.0445073 C24.2423939,46.1635575 23.6993795,43.0293813 23.7180399,40.1886626 C23.7392003,36.9673398 24.7604614,34.1869492 23.0817371,37.9080227 C21.4030128,41.6290961 16.9290887,54.0788132 23.7804676,57.4957566 C25.3480851,58.0846543 26.6907886,57.4019286 27.9147528,55.8977447 Z" id="Fill-9" fill="#002355"></path>
                            </g>
                            <g id="Group-4-Copy" transform="translate(41.212121, 23.741935)">
                                <g id="Group-5">
                                    <path d="M10.2201858,72.217956 C7.53356827,72.217956 4.71568281,71.3341432 2.40099118,68.5378319 C-1.49022861,63.8369723 -0.473491646,58.0194923 4.71246775,54.1838948 C10.9183792,49.5956651 15.9907251,44.0878855 16.0966146,36.1980561 C15.9907251,28.3077851 10.9119513,23.0677135 4.71246775,18.4561916 C0.135480195,15.0515727 -1.49022861,8.55869822 2.40099118,3.8578387 C4.71612037,1.06152735 7.53313071,0.178156214 10.2201858,0.178156214 C13.1667138,0.178156214 15.9565955,1.2408517 17.7545289,2.00850122 C25.5956015,5.35868626 43.4366298,22.10568 43.5747924,36.1980561 C43.530607,49.4808626 25.5956015,67.0369843 17.7545289,70.3871693 C15.9565955,71.1552605 13.1671514,72.217956 10.2201858,72.217956 Z" id="Fill-1-Copy-6" fill="url(#linearGradient-2)"></path>
                                    <path d="M22.5574576,45.6907536 C26.0330966,41.7575111 25.4436206,34.6985213 19.98821,30.9505393 C12.3413834,25.6970081 8.69567546,19.6736662 8.74146003,13.2554847 C8.79337889,5.97738477 13.4487153,1.42007233 14.608938,-7.10542736e-15 C-3.43614578,13.2554847 -5.15995421,41.3097495 11.6504411,49.0298251 C15.4967137,50.360352 19.5543655,49.0892336 22.5574576,45.6907536 Z" id="Fill-9" fill="#470000" opacity="0.600000024" style="mix-blend-mode: multiply;" transform="translate(12.363636, 24.774194) rotate(-180.000000) translate(-12.363636, -24.774194) "></path>
                                    <path d="M23.2851073,40.6957867 C25.5049514,37.9677217 25.2935353,32.7955288 22.2962461,29.9562997 C17.5302722,25.4416562 16.6793318,20.5301899 16.7085738,16.0785914 C16.7417337,11.0305604 17.7517196,8.72688611 18.4927383,7.74193548 C9.46650247,18.3502628 6.5161166,38.0769586 16.8064023,43.1999795 C19.2629652,44.1228222 21.3670725,43.0529448 23.2851073,40.6957867 Z" id="Fill-9-Copy" fill="#670010" transform="translate(17.538044, 25.635896) rotate(-180.000000) translate(-17.538044, -25.635896) "></path>
                                    <path d="M23.8890459,33.9732608 C25.305605,32.2323883 25.1706931,28.9318335 23.2580194,27.1200234 C20.2166869,24.2390736 19.1985172,20.582195 19.0844218,18.5547333 C18.9436956,16.0540468 18.9602658,15.6990227 19.3986642,13.9354839 C18.0605783,16.3448892 12.2009431,32.9714366 19.7547606,35.5712727 C21.3223782,36.1601705 22.6650817,35.4774448 23.8890459,33.9732608 Z" id="Fill-9-Copy-2" fill="#730000" style="mix-blend-mode: multiply;" transform="translate(20.404128, 24.858631) rotate(-180.000000) translate(-20.404128, -24.858631) "></path>
                                </g>
                            </g>
                        </g>
                    </g>
                    <path d="M72.196,126.784 C71.0759944,126.453332 70.0466714,126.288 69.108,126.288 C67.8066602,126.288 66.7666706,126.538664 65.988,127.04 C65.2093294,127.541336 64.82,128.229329 64.82,129.104 C64.82,129.893337 65.0546643,130.538664 65.524,131.04 C65.9933357,131.541336 66.5693299,131.935999 67.252,132.224 C67.9346701,132.512001 68.8839939,132.847998 70.1,133.232 C71.6146742,133.701336 72.8413286,134.149331 73.78,134.576 C74.7186714,135.002669 75.5186634,135.637329 76.18,136.48 C76.8413366,137.322671 77.172,138.437326 77.172,139.824 C77.172,141.104006 76.8253368,142.223995 76.132,143.184 C75.4386632,144.144005 74.4680062,144.885331 73.22,145.408 C71.9719938,145.930669 70.5373414,146.192 68.916,146.192 C67.2733251,146.192 65.6733411,145.872003 64.116,145.232 C62.5586589,144.591997 61.2146723,143.738672 60.084,142.672 L61.46,140.016 C62.526672,141.061339 63.72666,141.866664 65.06,142.432 C66.39334,142.997336 67.689327,143.28 68.948,143.28 C70.4413408,143.28 71.6199957,142.98667 72.484,142.4 C73.3480043,141.81333 73.78,141.018672 73.78,140.016 C73.78,139.226663 73.5453357,138.576003 73.076,138.064 C72.6066643,137.551997 72.0146702,137.146668 71.3,136.848 C70.5853298,136.549332 69.6200061,136.218668 68.404,135.856 C66.9106592,135.407998 65.6946714,134.970669 64.756,134.544 C63.8173286,134.117331 63.0226699,133.488004 62.372,132.656 C61.7213301,131.823996 61.396,130.72534 61.396,129.36 C61.396,128.165327 61.7266634,127.109338 62.388,126.192 C63.0493366,125.274662 63.9773274,124.570669 65.172,124.08 C66.3666726,123.589331 67.7533254,123.344 69.332,123.344 C70.6760067,123.344 71.9933269,123.541331 73.284,123.936 C74.5746731,124.330669 75.7213283,124.858663 76.724,125.52 L75.444,128.272 C74.3986614,127.610663 73.3160056,127.114668 72.196,126.784 Z M87.188,123.6 L104.692,123.6 L104.692,126.416 L97.46,126.416 L97.46,146 L94.388,146 L94.388,126.416 L87.188,126.416 L87.188,123.6 Z M133.076,123.6 L124.692,138.32 L124.692,146 L121.62,146 L121.62,138.448 L113.108,123.6 L116.244,123.6 L123.156,135.024 L129.94,123.6 L133.076,123.6 Z M144.372,123.6 L147.444,123.6 L147.444,143.216 L157.236,143.216 L157.236,146 L144.372,146 L144.372,123.6 Z M186.004,146 L183.636,140.56 L171.828,140.56 L169.492,146 L166.26,146 L176.212,123.6 L179.412,123.6 L189.332,146 L186.004,146 Z M173.044,137.776 L182.452,137.776 L177.716,126.896 L173.044,137.776 Z M215.556,125.088 C216.868007,126.080005 217.524,127.450658 217.524,129.2 C217.524,130.480006 217.161337,131.562662 216.436,132.448 C215.710663,133.333338 214.718673,133.925332 213.46,134.224 C215.017341,134.458668 216.238662,135.082662 217.124,136.096 C218.009338,137.109338 218.452,138.373326 218.452,139.888 C218.452,141.80801 217.732007,143.306661 216.292,144.384 C214.851993,145.461339 212.862679,146 210.324,146 L200.596,146 L200.596,123.6 L210.164,123.6 C212.446678,123.6 214.243993,124.095995 215.556,125.088 Z M213.22,132.224 C213.977337,131.63733 214.356,130.800005 214.356,129.712 C214.356,128.645328 213.977337,127.824003 213.22,127.248 C212.462663,126.671997 211.390674,126.394667 210.004,126.416 L203.668,126.416 L203.668,133.104 L210.004,133.104 C211.390674,133.104 212.462663,132.81067 213.22,132.224 Z M213.908,142.24 C214.846671,141.58933 215.316,140.677339 215.316,139.504 C215.316,138.373328 214.846671,137.488003 213.908,136.848 C212.969329,136.207997 211.668008,135.888 210.004,135.888 L203.668,135.888 L203.668,143.184 L210.004,143.184 C211.668008,143.205333 212.969329,142.89067 213.908,142.24 Z M231.38,123.6 L234.452,123.6 L234.452,143.216 L244.244,143.216 L244.244,146 L231.38,146 L231.38,123.6 Z M256.148,123.6 L271.7,123.6 L271.7,126.384 L259.22,126.384 L259.22,133.296 L270.388,133.296 L270.388,136.08 L259.22,136.08 L259.22,143.216 L272.084,143.216 L272.084,146 L256.148,146 L256.148,123.6 Z" id="stylable" fill="#18455A"></path>
                    <path d="M4.36108398,181.276855 C4.21069261,181.618654 4.06884832,181.851074 3.93554688,181.974121 C3.80224543,182.097169 3.64331147,182.158691 3.45874023,182.158691 C3.26733303,182.158691 3.09985423,182.088624 2.95629883,181.948486 C2.81274342,181.808349 2.7409668,181.639161 2.7409668,181.440918 C2.7409668,181.38623 2.7512206,181.322998 2.77172852,181.251221 C2.79223643,181.179443 2.81957991,181.102539 2.85375977,181.020508 L9.25219727,167.229004 C9.42309656,166.873533 9.57348568,166.632569 9.70336914,166.506104 C9.8332526,166.379638 9.99047759,166.316406 10.1750488,166.316406 C10.380128,166.316406 10.5544426,166.384765 10.697998,166.521484 C10.8415535,166.658204 10.9133301,166.822265 10.9133301,167.013672 C10.9133301,167.06836 10.9047852,167.129882 10.8876953,167.198242 C10.8706054,167.266602 10.8449709,167.331543 10.810791,167.393066 L4.36108398,181.276855 Z M19.8649902,172.202148 L22.5720215,171.043457 L22.7155762,171.002441 C22.763428,170.988769 22.8010253,170.981934 22.8283691,170.981934 C22.8830569,170.981934 22.929199,171.007568 22.9667969,171.058838 C23.0043947,171.110108 23.0471189,171.204101 23.0949707,171.34082 L23.3513184,172.120117 C23.3718263,172.202149 23.387207,172.268799 23.3974609,172.320068 C23.4077149,172.371338 23.4128418,172.407226 23.4128418,172.427734 C23.4128418,172.482422 23.3854983,172.530273 23.3308105,172.571289 C23.2761228,172.612305 23.1975103,172.643066 23.0949707,172.663574 L20.223877,173.30957 L22.1516113,175.544922 C22.1994631,175.585938 22.2353514,175.63208 22.2592773,175.68335 C22.2832032,175.734619 22.295166,175.784179 22.295166,175.832031 C22.295166,175.866211 22.2729494,175.908935 22.2285156,175.960205 C22.1840818,176.011475 22.124268,176.067871 22.0490723,176.129395 L21.3723145,176.611328 C21.2902828,176.672852 21.225342,176.715576 21.1774902,176.739502 C21.1296384,176.763428 21.0886232,176.775391 21.0544434,176.775391 C21.0134275,176.775391 20.9689944,176.754883 20.9211426,176.713867 C20.8732908,176.672851 20.8288576,176.618164 20.7878418,176.549805 L19.2702637,174.006836 L17.7629395,176.549805 C17.7150877,176.625 17.6655276,176.681396 17.6142578,176.718994 C17.562988,176.756592 17.513428,176.775391 17.4655762,176.775391 C17.4382323,176.775391 17.3972171,176.761719 17.3425293,176.734375 C17.2878415,176.707031 17.2263187,176.666016 17.157959,176.611328 L16.501709,176.129395 C16.4128414,176.067871 16.3444827,176.011475 16.2966309,175.960205 C16.2487791,175.908935 16.2248535,175.859375 16.2248535,175.811523 C16.2248535,175.777344 16.2385253,175.734619 16.2658691,175.68335 C16.293213,175.63208 16.3308103,175.585938 16.3786621,175.544922 L18.3063965,173.30957 L15.4558105,172.663574 C15.346435,172.643066 15.2626956,172.610596 15.2045898,172.566162 C15.1464841,172.521728 15.1174316,172.46875 15.1174316,172.407227 C15.1174316,172.393555 15.1293944,172.35083 15.1533203,172.279053 C15.1772462,172.207275 15.1926269,172.154297 15.1994629,172.120117 L15.4558105,171.34082 C15.4968264,171.204101 15.5378416,171.110108 15.5788574,171.058838 C15.6198733,171.007568 15.6677243,170.981934 15.7224121,170.981934 C15.7770999,170.981934 15.824951,170.985352 15.8659668,170.992188 C15.9069826,170.999023 15.9445799,171.009277 15.9787598,171.022949 L18.685791,172.202148 L18.4089355,169.259277 L18.4089355,169.13623 C18.4089355,169.020019 18.439697,168.941406 18.5012207,168.900391 C18.5627444,168.859375 18.6857901,168.838867 18.8703613,168.838867 L19.670166,168.838867 C19.8615732,168.838867 19.9863278,168.859375 20.0444336,168.900391 C20.1025394,168.941406 20.1315918,169.020019 20.1315918,169.13623 L20.1315918,169.259277 L19.8649902,172.202148 Z M43.5310059,168.572266 C43.5310059,167.833981 43.5976556,167.369142 43.730957,167.177734 C43.8642585,166.986327 44.149656,166.890625 44.5871582,166.890625 C45.0109884,166.890625 45.2912591,166.970946 45.4279785,167.131592 C45.5646979,167.292237 45.6330566,167.673337 45.6330566,168.274902 C45.6330566,168.862796 45.5698249,169.226806 45.4433594,169.366943 C45.3168939,169.507081 45.0314964,169.577148 44.5871582,169.577148 C44.149656,169.577148 43.8642585,169.512208 43.730957,169.382324 C43.5976556,169.252441 43.5310059,168.982424 43.5310059,168.572266 Z M45.4279785,179.554199 L48.7194824,179.554199 C48.9860853,179.554199 49.1826166,179.610595 49.309082,179.723389 C49.4355475,179.836182 49.4987793,180.015624 49.4987793,180.261719 C49.4987793,180.541994 49.4389654,180.735107 49.3193359,180.841064 C49.1997064,180.947022 48.9792497,181 48.657959,181 L40.7009277,181 C40.4274889,181 40.2224128,180.938477 40.0856934,180.81543 C39.9489739,180.692382 39.8806152,180.507814 39.8806152,180.261719 C39.8806152,180.02246 39.9523919,179.844727 40.0959473,179.728516 C40.2395027,179.612304 40.4548325,179.554199 40.7419434,179.554199 L43.8693848,179.554199 L43.8693848,172.981445 L41.869873,172.981445 C41.5895982,172.981445 41.3759773,172.918214 41.2290039,172.791748 C41.0820305,172.665283 41.0085449,172.482423 41.0085449,172.243164 C41.0085449,172.003905 41.0769036,171.824463 41.213623,171.704834 C41.3503425,171.585204 41.5554186,171.525391 41.8288574,171.525391 L44.833252,171.525391 C45.0178232,171.525391 45.1630854,171.562988 45.269043,171.638184 C45.3750005,171.713379 45.4279785,171.815917 45.4279785,171.945801 L45.4279785,179.554199 Z M52.6057129,180.261719 L52.6057129,178.436523 C52.6057129,178.135741 52.6621088,177.920411 52.7749023,177.790527 C52.8876959,177.660644 53.0705554,177.595703 53.3234863,177.595703 C53.6037612,177.595703 53.8259269,177.787107 53.9899902,178.169922 C54.0993658,178.402345 54.1984859,178.57666 54.2873535,178.692871 C54.5744643,179.062014 54.9982882,179.357665 55.5588379,179.579834 C56.1193876,179.802003 56.7380337,179.913086 57.4147949,179.913086 C58.1394079,179.913086 58.7204568,179.766115 59.157959,179.472168 C59.5954612,179.178221 59.814209,178.791995 59.814209,178.313477 C59.814209,177.828123 59.6381854,177.482911 59.2861328,177.277832 C58.9340803,177.072753 58.3308148,176.970215 57.4763184,176.970215 L56.9123535,176.970215 C55.5178153,176.970215 54.4548376,176.727541 53.7233887,176.242188 C52.9919397,175.756834 52.6262207,175.052739 52.6262207,174.129883 C52.6262207,173.227535 52.9833949,172.526858 53.6977539,172.027832 C54.4121129,171.528806 55.4152767,171.279297 56.7072754,171.279297 C57.2336452,171.279297 57.7702609,171.352782 58.3171387,171.499756 C58.8640164,171.646729 59.1511229,171.720215 59.1784668,171.720215 C59.2536625,171.720215 59.3972157,171.653565 59.6091309,171.520264 C59.821046,171.386962 60.02954,171.320312 60.2346191,171.320312 C60.4670422,171.320312 60.6396479,171.405761 60.7524414,171.57666 C60.8652349,171.747559 60.9216309,172.003905 60.9216309,172.345703 L60.9216309,173.54541 C60.9216309,173.907717 60.8669439,174.169189 60.7575684,174.329834 C60.6481928,174.490479 60.4738781,174.570801 60.2346191,174.570801 C60.02954,174.570801 59.7766128,174.396486 59.4758301,174.047852 C59.263915,173.808593 59.0896003,173.627442 58.9528809,173.504395 C58.5905744,173.169432 58.2043478,172.928468 57.7941895,172.781494 C57.3840312,172.634521 56.9021024,172.561035 56.3483887,172.561035 C55.7058073,172.561035 55.1879902,172.702879 54.7949219,172.986572 C54.4018535,173.270265 54.2053223,173.630857 54.2053223,174.068359 C54.2053223,174.499026 54.4069804,174.80664 54.8103027,174.991211 C55.2136251,175.175782 56.0817804,175.281738 57.4147949,175.309082 C58.836677,175.343262 59.8757291,175.591062 60.5319824,176.05249 C61.1882357,176.513918 61.5163574,177.226558 61.5163574,178.19043 C61.5163574,179.113286 61.1540564,179.85156 60.4294434,180.405273 C59.7048304,180.958987 58.7273011,181.23584 57.4968262,181.23584 C57.1071758,181.23584 56.6730981,181.199952 56.1945801,181.128174 C55.7160621,181.056396 55.1145056,180.935059 54.3898926,180.76416 C54.1506336,180.921388 53.9455575,181.039306 53.7746582,181.11792 C53.6037589,181.196534 53.4602057,181.23584 53.3439941,181.23584 C53.1047351,181.23584 52.9218756,181.1521 52.7954102,180.984619 C52.6689447,180.817138 52.6057129,180.576173 52.6057129,180.261719 Z M85.520752,169.177246 C85.5891117,168.992675 85.6848138,168.862793 85.8078613,168.787598 C85.9309088,168.712402 86.1086414,168.674805 86.3410645,168.674805 C86.5939954,168.674805 86.771728,168.736328 86.8742676,168.859375 C86.9768072,168.982422 87.0280762,169.23535 87.0280762,169.618164 C87.0280762,170.288089 87.034912,170.911862 87.048584,171.489502 C87.0622559,172.067142 87.0690918,172.31836 87.0690918,172.243164 C87.0690918,172.564455 87.0144048,172.781494 86.9050293,172.894287 C86.7956537,173.007081 86.6008315,173.063477 86.3205566,173.063477 C85.8693825,173.063477 85.5754401,172.742191 85.4387207,172.099609 C85.3908689,171.908202 85.3532716,171.761231 85.3259277,171.658691 C85.1960443,171.145994 84.8850122,170.727297 84.3928223,170.402588 C83.9006323,170.077879 83.3230014,169.915527 82.6599121,169.915527 C81.4499451,169.915527 80.4792517,170.35815 79.7478027,171.243408 C79.0163538,172.128667 78.6506348,173.316399 78.6506348,174.806641 C78.6506348,176.296882 79.0214807,177.484615 79.7631836,178.369873 C80.5048865,179.255131 81.4841248,179.697754 82.7009277,179.697754 C83.0974141,179.697754 83.5007304,179.641358 83.9108887,179.528564 C84.321047,179.415771 84.7243633,179.246583 85.1208496,179.020996 C85.3054208,178.925292 85.558348,178.762941 85.8796387,178.533936 C86.2009293,178.30493 86.429931,178.19043 86.5666504,178.19043 C86.7785655,178.19043 86.9580071,178.260497 87.1049805,178.400635 C87.2519539,178.540772 87.3254395,178.713378 87.3254395,178.918457 C87.3254395,179.123536 87.245118,179.320067 87.0844727,179.508057 C86.9238273,179.696046 86.624758,179.926756 86.1872559,180.200195 C85.6130342,180.576174 85.0354033,180.853026 84.4543457,181.030762 C83.8732881,181.208497 83.2614778,181.297363 82.6188965,181.297363 C80.9304115,181.297363 79.5358942,180.700934 78.4353027,179.508057 C77.3347113,178.31518 76.7844238,176.789072 76.7844238,174.929688 C76.7844238,173.090811 77.3415472,171.562994 78.4558105,170.346191 C79.5700739,169.129388 80.9714271,168.520996 82.6599121,168.520996 C83.1110862,168.520996 83.5707984,168.575683 84.0390625,168.685059 C84.5073266,168.794434 85.0012181,168.958495 85.520752,169.177246 Z M91.8884277,180.641113 C91.8542479,180.948732 91.7756354,181.162353 91.6525879,181.281982 C91.5295404,181.401612 91.3347181,181.461426 91.0681152,181.461426 C90.7810044,181.461426 90.5673835,181.377686 90.4272461,181.210205 C90.2871087,181.042724 90.2067872,180.770998 90.1862793,180.39502 L90.0529785,178.016113 L90.0529785,177.831543 C90.0529785,177.503416 90.1162103,177.270997 90.2426758,177.134277 C90.3691413,176.997558 90.5793442,176.929199 90.873291,176.929199 C91.2834493,176.929199 91.5773917,177.223142 91.755127,177.811035 C91.8371586,178.104982 91.9157711,178.327148 91.9909668,178.477539 C92.2302258,178.956057 92.6079076,179.325194 93.1240234,179.584961 C93.6401393,179.844728 94.2570765,179.974609 94.9748535,179.974609 C95.8566939,179.974609 96.5727512,179.766115 97.1230469,179.349121 C97.6733426,178.932127 97.9484863,178.398929 97.9484863,177.749512 C97.9484863,177.20947 97.7792986,176.775392 97.440918,176.447266 C97.1025374,176.119139 96.6086458,175.907227 95.9592285,175.811523 L94.4416504,175.606445 C93.0266043,175.408202 91.994388,175.035647 91.3449707,174.48877 C90.6955534,173.941892 90.3708496,173.172857 90.3708496,172.181641 C90.3708496,171.135737 90.8032183,170.257328 91.6679688,169.546387 C92.5327192,168.835446 93.6110775,168.47998 94.9030762,168.47998 C95.2790546,168.47998 95.675535,168.529541 96.0925293,168.628662 C96.5095236,168.727784 96.9811985,168.8833 97.5075684,169.095215 C97.5212403,168.896972 97.5759273,168.760254 97.6716309,168.685059 C97.7673345,168.609863 97.9313953,168.572266 98.1638184,168.572266 C98.4646011,168.572266 98.6730951,168.616699 98.7893066,168.705566 C98.9055182,168.794434 98.9772948,169.006346 99.0046387,169.341309 L99.1481934,171.484375 L99.1481934,171.586914 C99.1481934,171.826173 99.0798347,172.012451 98.9431152,172.145752 C98.8063958,172.279053 98.6149915,172.345703 98.3688965,172.345703 C98.00659,172.345703 97.7263194,172.092776 97.5280762,171.586914 C97.4323726,171.299803 97.3366704,171.084473 97.2409668,170.940918 C97.0153797,170.599119 96.6906759,170.335938 96.2668457,170.151367 C95.8430155,169.966796 95.3610867,169.874512 94.8210449,169.874512 C93.9938923,169.874512 93.3222682,170.079588 92.8061523,170.489746 C92.2900365,170.899904 92.0319824,171.43652 92.0319824,172.099609 C92.0319824,172.619143 92.2250957,173.029295 92.6113281,173.330078 C92.9975605,173.630861 93.5871542,173.835937 94.380127,173.945312 L96.020752,174.150391 C97.210211,174.307618 98.1057099,174.671628 98.7072754,175.242432 C99.3088409,175.813235 99.6096191,176.58398 99.6096191,177.554688 C99.6096191,178.703131 99.1823773,179.624264 98.3278809,180.318115 C97.4733844,181.011966 96.3317943,181.358887 94.9030762,181.358887 C94.4108862,181.358887 93.9221216,181.300782 93.4367676,181.18457 C92.9514136,181.068359 92.4353055,180.887208 91.8884277,180.641113 Z M104.490479,180.641113 C104.456299,180.948732 104.377686,181.162353 104.254639,181.281982 C104.131591,181.401612 103.936769,181.461426 103.670166,181.461426 C103.383055,181.461426 103.169434,181.377686 103.029297,181.210205 C102.889159,181.042724 102.808838,180.770998 102.78833,180.39502 L102.655029,178.016113 L102.655029,177.831543 C102.655029,177.503416 102.718261,177.270997 102.844727,177.134277 C102.971192,176.997558 103.181395,176.929199 103.475342,176.929199 C103.8855,176.929199 104.179442,177.223142 104.357178,177.811035 C104.439209,178.104982 104.517822,178.327148 104.593018,178.477539 C104.832277,178.956057 105.209958,179.325194 105.726074,179.584961 C106.24219,179.844728 106.859127,179.974609 107.576904,179.974609 C108.458745,179.974609 109.174802,179.766115 109.725098,179.349121 C110.275393,178.932127 110.550537,178.398929 110.550537,177.749512 C110.550537,177.20947 110.381349,176.775392 110.042969,176.447266 C109.704588,176.119139 109.210697,175.907227 108.561279,175.811523 L107.043701,175.606445 C105.628655,175.408202 104.596439,175.035647 103.947021,174.48877 C103.297604,173.941892 102.9729,173.172857 102.9729,172.181641 C102.9729,171.135737 103.405269,170.257328 104.27002,169.546387 C105.13477,168.835446 106.213128,168.47998 107.505127,168.47998 C107.881105,168.47998 108.277586,168.529541 108.69458,168.628662 C109.111574,168.727784 109.583249,168.8833 110.109619,169.095215 C110.123291,168.896972 110.177978,168.760254 110.273682,168.685059 C110.369385,168.609863 110.533446,168.572266 110.765869,168.572266 C111.066652,168.572266 111.275146,168.616699 111.391357,168.705566 C111.507569,168.794434 111.579346,169.006346 111.606689,169.341309 L111.750244,171.484375 L111.750244,171.586914 C111.750244,171.826173 111.681885,172.012451 111.545166,172.145752 C111.408447,172.279053 111.217042,172.345703 110.970947,172.345703 C110.608641,172.345703 110.32837,172.092776 110.130127,171.586914 C110.034423,171.299803 109.938721,171.084473 109.843018,170.940918 C109.617431,170.599119 109.292727,170.335938 108.868896,170.151367 C108.445066,169.966796 107.963137,169.874512 107.423096,169.874512 C106.595943,169.874512 105.924319,170.079588 105.408203,170.489746 C104.892087,170.899904 104.634033,171.43652 104.634033,172.099609 C104.634033,172.619143 104.827147,173.029295 105.213379,173.330078 C105.599611,173.630861 106.189205,173.835937 106.982178,173.945312 L108.622803,174.150391 C109.812262,174.307618 110.707761,174.671628 111.309326,175.242432 C111.910892,175.813235 112.21167,176.58398 112.21167,177.554688 C112.21167,178.703131 111.784428,179.624264 110.929932,180.318115 C110.075435,181.011966 108.933845,181.358887 107.505127,181.358887 C107.012937,181.358887 106.524172,181.300782 106.038818,181.18457 C105.553464,181.068359 105.037356,180.887208 104.490479,180.641113 Z M135.846924,179.533691 C136.127199,179.533691 136.34082,179.595214 136.487793,179.718262 C136.634766,179.841309 136.708252,180.02246 136.708252,180.261719 C136.708252,180.507814 136.638184,180.692382 136.498047,180.81543 C136.357909,180.938477 136.154542,181 135.887939,181 L129.181885,181 C128.90161,181 128.687989,180.938477 128.541016,180.81543 C128.394042,180.692382 128.320557,180.507814 128.320557,180.261719 C128.320557,180.02246 128.390624,179.841309 128.530762,179.718262 C128.670899,179.595214 128.874266,179.533691 129.140869,179.533691 L130.884033,179.533691 L130.884033,173.268555 L129.202393,173.268555 C128.922118,173.268555 128.705079,173.203614 128.55127,173.07373 C128.39746,172.943847 128.320557,172.759279 128.320557,172.52002 C128.320557,172.273925 128.392333,172.089356 128.535889,171.966309 C128.679444,171.843261 128.887938,171.781738 129.161377,171.781738 L130.781494,171.781738 L130.781494,171.084473 C130.781494,169.847162 131.133541,168.949954 131.837646,168.392822 C132.541752,167.835691 133.679924,167.557129 135.252197,167.557129 C136.017826,167.557129 136.583494,167.642577 136.949219,167.813477 C137.314943,167.984376 137.497803,168.250975 137.497803,168.613281 C137.497803,168.825196 137.41919,168.999511 137.261963,169.13623 C137.104736,169.27295 136.903077,169.341309 136.656982,169.341309 C136.533935,169.341309 136.238284,169.300293 135.77002,169.218262 C135.301755,169.13623 134.900148,169.095215 134.565186,169.095215 C133.792721,169.095215 133.239015,169.257567 132.904053,169.582275 C132.56909,169.906984 132.401611,170.445309 132.401611,171.197266 L132.401611,171.781738 L136.031494,171.781738 C136.311769,171.781738 136.52539,171.843261 136.672363,171.966309 C136.819337,172.089356 136.892822,172.273925 136.892822,172.52002 C136.892822,172.752443 136.817628,172.935302 136.667236,173.068604 C136.516845,173.201905 136.311769,173.268555 136.052002,173.268555 L132.50415,173.268555 L132.50415,179.533691 L135.846924,179.533691 Z M145.290771,179.820801 C146.343511,179.820801 147.20654,179.487552 147.879883,178.821045 C148.553226,178.154538 148.889893,177.305181 148.889893,176.272949 C148.889893,175.240717 148.551517,174.387943 147.874756,173.7146 C147.197995,173.041256 146.336675,172.70459 145.290771,172.70459 C144.244868,172.70459 143.385257,173.041256 142.711914,173.7146 C142.038571,174.387943 141.701904,175.240717 141.701904,176.272949 C141.701904,177.312017 142.036862,178.163083 142.706787,178.826172 C143.376712,179.489261 144.238032,179.820801 145.290771,179.820801 Z M150.674072,176.272949 C150.674072,177.735847 150.175054,178.932124 149.177002,179.861816 C148.17895,180.791509 146.883553,181.256348 145.290771,181.256348 C143.704826,181.256348 142.412847,180.791509 141.414795,179.861816 C140.416743,178.932124 139.917725,177.735847 139.917725,176.272949 C139.917725,174.810051 140.416743,173.615483 141.414795,172.689209 C142.412847,171.762935 143.704826,171.299805 145.290771,171.299805 C146.876717,171.299805 148.170405,171.764644 149.171875,172.694336 C150.173345,173.624028 150.674072,174.816887 150.674072,176.272949 Z M156.887939,179.554199 L160.292236,179.554199 C160.558839,179.554199 160.75537,179.610595 160.881836,179.723389 C161.008301,179.836182 161.071533,180.015624 161.071533,180.261719 C161.071533,180.541994 161.011719,180.735107 160.89209,180.841064 C160.77246,180.947022 160.552004,181 160.230713,181 L153.524658,181 C153.258055,181 153.056397,180.938477 152.919678,180.81543 C152.782958,180.692382 152.7146,180.507814 152.7146,180.261719 C152.7146,180.02246 152.784667,179.844727 152.924805,179.728516 C153.064942,179.612304 153.281981,179.554199 153.575928,179.554199 L155.360107,179.554199 L155.360107,172.981445 L154.662842,172.981445 C153.999753,172.981445 153.586182,172.928467 153.422119,172.82251 C153.258056,172.716552 153.176025,172.523439 153.176025,172.243164 C153.176025,172.003905 153.242675,171.824463 153.375977,171.704834 C153.509278,171.585204 153.712645,171.525391 153.986084,171.525391 L156.323975,171.525391 C156.508546,171.525391 156.648681,171.561279 156.744385,171.633057 C156.840088,171.704834 156.887939,171.809081 156.887939,171.945801 L156.887939,173.688965 C157.537357,172.875484 158.214108,172.27051 158.918213,171.874023 C159.622318,171.477537 160.381099,171.279297 161.19458,171.279297 C161.802982,171.279297 162.295164,171.402343 162.671143,171.648438 C163.047121,171.894532 163.235107,172.2124 163.235107,172.602051 C163.235107,172.854982 163.141114,173.078856 162.953125,173.273682 C162.765136,173.468507 162.558351,173.565918 162.332764,173.565918 C162.175536,173.565918 161.910646,173.461671 161.538086,173.253174 C161.165525,173.044677 160.832277,172.94043 160.53833,172.94043 C160.005124,172.94043 159.442874,173.130125 158.851562,173.509521 C158.260251,173.888918 157.605716,174.488765 156.887939,175.309082 L156.887939,179.554199 Z M186.18335,172.140625 L186.18335,172.099609 C186.18335,171.874022 186.24829,171.708252 186.378174,171.602295 C186.508057,171.496337 186.709715,171.443359 186.983154,171.443359 C187.263429,171.443359 187.456542,171.52539 187.5625,171.689453 C187.668458,171.853516 187.721436,172.191892 187.721436,172.70459 L187.721436,174.611816 C187.721436,174.864747 187.656495,175.054443 187.526611,175.180908 C187.396728,175.307374 187.201906,175.370605 186.942139,175.370605 C186.757567,175.370605 186.598633,175.317627 186.465332,175.21167 C186.332031,175.105712 186.169679,174.885256 185.978271,174.550293 C185.650145,173.996579 185.251955,173.577882 184.783691,173.294189 C184.315427,173.010497 183.777103,172.868652 183.168701,172.868652 C182.10229,172.868652 181.235843,173.183102 180.569336,173.812012 C179.902829,174.440921 179.56958,175.25439 179.56958,176.252441 C179.56958,177.271001 179.889157,178.103268 180.52832,178.749268 C181.167484,179.395267 181.989497,179.718262 182.994385,179.718262 C183.452395,179.718262 183.888182,179.65503 184.301758,179.528564 C184.715334,179.402099 185.106688,179.212404 185.47583,178.959473 C185.605714,178.877441 185.780028,178.750977 185.998779,178.580078 C186.443117,178.217772 186.791747,178.036621 187.044678,178.036621 C187.256593,178.036621 187.429199,178.103271 187.5625,178.236572 C187.695801,178.369874 187.762451,178.542479 187.762451,178.754395 C187.762451,179.294436 187.25147,179.846433 186.229492,180.4104 C185.207514,180.974368 184.12232,181.256348 182.973877,181.256348 C181.490471,181.256348 180.254888,180.781255 179.26709,179.831055 C178.279292,178.880855 177.7854,177.694831 177.7854,176.272949 C177.7854,174.851067 178.277583,173.663335 179.261963,172.709717 C180.246343,171.756099 181.476799,171.279297 182.953369,171.279297 C183.472903,171.279297 183.994138,171.349365 184.51709,171.489502 C185.040042,171.629639 185.595456,171.846678 186.18335,172.140625 Z M195.698975,179.820801 C196.751714,179.820801 197.614743,179.487552 198.288086,178.821045 C198.961429,178.154538 199.298096,177.305181 199.298096,176.272949 C199.298096,175.240717 198.95972,174.387943 198.282959,173.7146 C197.606198,173.041256 196.744878,172.70459 195.698975,172.70459 C194.653071,172.70459 193.79346,173.041256 193.120117,173.7146 C192.446774,174.387943 192.110107,175.240717 192.110107,176.272949 C192.110107,177.312017 192.445065,178.163083 193.11499,178.826172 C193.784915,179.489261 194.646235,179.820801 195.698975,179.820801 Z M201.082275,176.272949 C201.082275,177.735847 200.583257,178.932124 199.585205,179.861816 C198.587153,180.791509 197.291756,181.256348 195.698975,181.256348 C194.113029,181.256348 192.82105,180.791509 191.822998,179.861816 C190.824946,178.932124 190.325928,177.735847 190.325928,176.272949 C190.325928,174.810051 190.824946,173.615483 191.822998,172.689209 C192.82105,171.762935 194.113029,171.299805 195.698975,171.299805 C197.28492,171.299805 198.578608,171.764644 199.580078,172.694336 C200.581548,173.624028 201.082275,174.816887 201.082275,176.272949 Z M212.105225,175.288574 C212.105225,174.324702 212.018067,173.673586 211.84375,173.335205 C211.669433,172.996824 211.370363,172.827637 210.946533,172.827637 C210.440671,172.827637 210.039064,173.046385 209.741699,173.483887 C209.444334,173.921389 209.295654,174.522945 209.295654,175.288574 L209.295654,179.554199 L209.480225,179.554199 C209.897219,179.554199 210.175781,179.603759 210.315918,179.702881 C210.456055,179.802002 210.526123,179.98828 210.526123,180.261719 C210.526123,180.507814 210.468018,180.692382 210.351807,180.81543 C210.235595,180.938477 210.057863,181 209.818604,181 L208.516357,181 C208.222411,181 208.022461,180.931641 207.916504,180.794922 C207.810546,180.658202 207.757568,180.36426 207.757568,179.913086 L207.757568,174.48877 C207.757568,173.976072 207.641359,173.571046 207.408936,173.273682 C207.176513,172.976317 206.858645,172.827637 206.455322,172.827637 C206.147704,172.827637 205.865724,172.918212 205.609375,173.099365 C205.353026,173.280518 205.132569,173.548826 204.947998,173.904297 L204.947998,179.554199 L205.327393,179.554199 C205.737551,179.554199 206.014404,179.605468 206.157959,179.708008 C206.301514,179.810547 206.373291,179.995116 206.373291,180.261719 C206.373291,180.541994 206.315186,180.735107 206.198975,180.841064 C206.082763,180.947022 205.860597,181 205.532471,181 L202.804932,181 C202.538329,181 202.341798,180.940186 202.215332,180.820557 C202.088867,180.700927 202.025635,180.51465 202.025635,180.261719 C202.025635,179.98828 202.105956,179.802002 202.266602,179.702881 C202.427247,179.603759 202.739988,179.554199 203.204834,179.554199 L203.409912,179.554199 L203.409912,172.981445 L203.225342,172.981445 C202.746824,172.981445 202.420411,172.926758 202.246094,172.817383 C202.071776,172.708007 201.984619,172.516603 201.984619,172.243164 C201.984619,172.003905 202.052978,171.824463 202.189697,171.704834 C202.326417,171.585204 202.531493,171.525391 202.804932,171.525391 L204.373779,171.525391 C204.599366,171.525391 204.748047,171.564697 204.819824,171.643311 C204.891602,171.721924 204.934326,171.887694 204.947998,172.140625 C205.228273,171.839842 205.529051,171.617676 205.850342,171.474121 C206.171632,171.330566 206.533934,171.258789 206.937256,171.258789 C207.415774,171.258789 207.810545,171.363036 208.121582,171.571533 C208.432619,171.78003 208.663329,172.096189 208.813721,172.52002 C209.100832,172.089353 209.432371,171.771485 209.80835,171.566406 C210.184328,171.361327 210.614988,171.258789 211.100342,171.258789 C211.982182,171.258789 212.626463,171.545896 213.033203,172.120117 C213.439943,172.694339 213.643311,173.624017 213.643311,174.90918 L213.643311,179.554199 L213.807373,179.554199 C214.231203,179.554199 214.514892,179.605468 214.658447,179.708008 C214.802003,179.810547 214.873779,179.995116 214.873779,180.261719 C214.873779,180.507814 214.812256,180.692382 214.689209,180.81543 C214.566161,180.938477 214.385011,181 214.145752,181 L212.905029,181 C212.63159,181 212.429932,180.91797 212.300049,180.753906 C212.170165,180.589843 212.105225,180.33008 212.105225,179.974609 L212.105225,175.288574 Z M218.257568,183.625 L220.718506,183.625 C220.978273,183.625 221.173095,183.686523 221.302979,183.80957 C221.432862,183.932618 221.497803,184.117186 221.497803,184.363281 C221.497803,184.629884 221.434571,184.817871 221.308105,184.927246 C221.18164,185.036622 220.957765,185.091309 220.636475,185.091309 L216.114502,185.091309 C215.841063,185.091309 215.634278,185.029786 215.494141,184.906738 C215.354003,184.783691 215.283936,184.60254 215.283936,184.363281 C215.283936,184.089842 215.371093,183.898438 215.54541,183.789062 C215.719727,183.679687 216.042722,183.625 216.514404,183.625 L216.709229,183.625 L216.709229,172.981445 L216.514404,172.981445 C216.042722,172.981445 215.719727,172.926758 215.54541,172.817383 C215.371093,172.708007 215.283936,172.516603 215.283936,172.243164 C215.283936,172.003905 215.354003,171.824463 215.494141,171.704834 C215.634278,171.585204 215.841063,171.525391 216.114502,171.525391 L217.673096,171.525391 C217.878175,171.525391 218.026855,171.55957 218.119141,171.62793 C218.211426,171.696289 218.257568,171.802245 218.257568,171.945801 L218.257568,172.94043 C218.722414,172.461912 219.236814,172.103029 219.800781,171.86377 C220.364749,171.624511 220.971432,171.504883 221.62085,171.504883 C222.99488,171.504883 224.143306,171.969722 225.066162,172.899414 C225.989018,173.829106 226.450439,174.994622 226.450439,176.395996 C226.450439,177.742683 226.012944,178.850093 225.137939,179.718262 C224.262935,180.58643 223.14527,181.020508 221.784912,181.020508 C221.060299,181.020508 220.393802,180.892335 219.7854,180.635986 C219.176999,180.379637 218.667727,180.012209 218.257568,179.533691 L218.257568,183.625 Z M221.436279,179.513184 C222.386479,179.513184 223.165768,179.214114 223.77417,178.615967 C224.382571,178.017819 224.686768,177.243657 224.686768,176.293457 C224.686768,175.363765 224.380862,174.596439 223.769043,173.991455 C223.157224,173.386472 222.379643,173.083984 221.436279,173.083984 C220.492915,173.083984 219.720462,173.384763 219.118896,173.986328 C218.517331,174.587894 218.216553,175.356929 218.216553,176.293457 C218.216553,177.236821 218.515622,178.009274 219.11377,178.61084 C219.711917,179.212405 220.486079,179.513184 221.436279,179.513184 Z M233.505127,179.820801 C234.557867,179.820801 235.420895,179.487552 236.094238,178.821045 C236.767581,178.154538 237.104248,177.305181 237.104248,176.272949 C237.104248,175.240717 236.765873,174.387943 236.089111,173.7146 C235.41235,173.041256 234.551031,172.70459 233.505127,172.70459 C232.459223,172.70459 231.599613,173.041256 230.92627,173.7146 C230.252926,174.387943 229.91626,175.240717 229.91626,176.272949 C229.91626,177.312017 230.251217,178.163083 230.921143,178.826172 C231.591068,179.489261 232.452387,179.820801 233.505127,179.820801 Z M238.888428,176.272949 C238.888428,177.735847 238.389409,178.932124 237.391357,179.861816 C236.393306,180.791509 235.097908,181.256348 233.505127,181.256348 C231.919182,181.256348 230.627202,180.791509 229.62915,179.861816 C228.631099,178.932124 228.13208,177.735847 228.13208,176.272949 C228.13208,174.810051 228.631099,173.615483 229.62915,172.689209 C230.627202,171.762935 231.919182,171.299805 233.505127,171.299805 C235.091072,171.299805 236.384761,171.764644 237.38623,172.694336 C238.3877,173.624028 238.888428,174.816887 238.888428,176.272949 Z M242.292725,179.554199 L242.292725,172.981445 L242.0979,172.981445 C241.633054,172.981445 241.313477,172.926758 241.13916,172.817383 C240.964843,172.708007 240.877686,172.516603 240.877686,172.243164 C240.877686,171.990233 240.949462,171.807374 241.093018,171.69458 C241.236573,171.581787 241.468993,171.525391 241.790283,171.525391 L243.256592,171.525391 C243.441163,171.525391 243.584716,171.562988 243.687256,171.638184 C243.789795,171.713379 243.841064,171.815917 243.841064,171.945801 L243.841064,172.643066 C244.34009,172.17822 244.833982,171.834718 245.322754,171.612549 C245.811526,171.39038 246.319089,171.279297 246.845459,171.279297 C247.877691,171.279297 248.68945,171.600583 249.280762,172.243164 C249.872073,172.885745 250.167725,173.774408 250.167725,174.90918 L250.167725,179.554199 L250.649658,179.554199 C250.991457,179.554199 251.237548,179.610595 251.387939,179.723389 C251.538331,179.836182 251.613525,180.015624 251.613525,180.261719 C251.613525,180.528322 251.533204,180.718017 251.372559,180.830811 C251.211913,180.943604 250.926516,181 250.516357,181 L248.250244,181 C247.812742,181 247.532471,180.948731 247.409424,180.846191 C247.286376,180.743652 247.224854,180.54883 247.224854,180.261719 C247.224854,179.995116 247.29663,179.810547 247.440186,179.708008 C247.583741,179.605468 247.853758,179.554199 248.250244,179.554199 L248.609131,179.554199 L248.609131,175.288574 C248.609131,174.488766 248.42798,173.878664 248.065674,173.458252 C247.703367,173.03784 247.177005,172.827637 246.486572,172.827637 C245.789303,172.827637 245.174075,173.063474 244.640869,173.535156 C244.107663,174.006838 243.841064,174.591305 243.841064,175.288574 L243.841064,179.554199 L244.199951,179.554199 C244.610109,179.554199 244.886962,179.605468 245.030518,179.708008 C245.174073,179.810547 245.24585,179.995116 245.24585,180.261719 C245.24585,180.54883 245.184327,180.743652 245.061279,180.846191 C244.938232,180.948731 244.637454,181 244.158936,181 L241.739014,181 C241.458739,181 241.248536,180.940186 241.108398,180.820557 C240.968261,180.700927 240.898193,180.51465 240.898193,180.261719 C240.898193,179.98828 240.978515,179.802002 241.13916,179.702881 C241.299805,179.603759 241.612547,179.554199 242.077393,179.554199 L242.292725,179.554199 Z M255.243408,176.713867 C255.298096,177.698247 255.631345,178.458738 256.243164,178.995361 C256.854984,179.531985 257.690669,179.800293 258.750244,179.800293 C259.550053,179.800293 260.421626,179.586672 261.36499,179.159424 C262.308354,178.732176 262.879149,178.518555 263.077393,178.518555 C263.282472,178.518555 263.453368,178.583495 263.590088,178.713379 C263.726807,178.843262 263.795166,179.003905 263.795166,179.195312 C263.795166,179.393556 263.723389,179.574706 263.579834,179.73877 C263.436279,179.902833 263.207277,180.063476 262.892822,180.220703 C262.209225,180.555666 261.503422,180.812011 260.775391,180.989746 C260.04736,181.167481 259.324466,181.256348 258.606689,181.256348 C257.048088,181.256348 255.800542,180.806889 254.864014,179.907959 C253.927486,179.009029 253.459229,177.817879 253.459229,176.334473 C253.459229,174.823723 253.954829,173.600102 254.946045,172.663574 C255.937261,171.727046 257.22924,171.258789 258.822021,171.258789 C260.264412,171.258789 261.460689,171.696285 262.410889,172.571289 C263.361089,173.446293 263.836182,174.505853 263.836182,175.75 C263.836182,176.132814 263.75586,176.38916 263.595215,176.519043 C263.43457,176.648926 262.998783,176.713867 262.287842,176.713867 L255.243408,176.713867 Z M255.294678,175.370605 L261.969971,175.370605 C261.867431,174.557125 261.527347,173.90259 260.949707,173.406982 C260.372067,172.911374 259.662846,172.663574 258.822021,172.663574 C257.912837,172.663574 257.14722,172.90283 256.525146,173.381348 C255.903073,173.859866 255.492921,174.522945 255.294678,175.370605 Z M267.496826,179.554199 L267.496826,172.981445 L267.302002,172.981445 C266.837156,172.981445 266.517579,172.926758 266.343262,172.817383 C266.168944,172.708007 266.081787,172.516603 266.081787,172.243164 C266.081787,171.990233 266.153564,171.807374 266.297119,171.69458 C266.440675,171.581787 266.673094,171.525391 266.994385,171.525391 L268.460693,171.525391 C268.645265,171.525391 268.788818,171.562988 268.891357,171.638184 C268.993897,171.713379 269.045166,171.815917 269.045166,171.945801 L269.045166,172.643066 C269.544192,172.17822 270.038083,171.834718 270.526855,171.612549 C271.015627,171.39038 271.523191,171.279297 272.049561,171.279297 C273.081792,171.279297 273.893552,171.600583 274.484863,172.243164 C275.076175,172.885745 275.371826,173.774408 275.371826,174.90918 L275.371826,179.554199 L275.85376,179.554199 C276.195558,179.554199 276.44165,179.610595 276.592041,179.723389 C276.742432,179.836182 276.817627,180.015624 276.817627,180.261719 C276.817627,180.528322 276.737305,180.718017 276.57666,180.830811 C276.416015,180.943604 276.130617,181 275.720459,181 L273.454346,181 C273.016844,181 272.736573,180.948731 272.613525,180.846191 C272.490478,180.743652 272.428955,180.54883 272.428955,180.261719 C272.428955,179.995116 272.500732,179.810547 272.644287,179.708008 C272.787843,179.605468 273.057859,179.554199 273.454346,179.554199 L273.813232,179.554199 L273.813232,175.288574 C273.813232,174.488766 273.632082,173.878664 273.269775,173.458252 C272.907469,173.03784 272.381107,172.827637 271.690674,172.827637 C270.993405,172.827637 270.378176,173.063474 269.844971,173.535156 C269.311765,174.006838 269.045166,174.591305 269.045166,175.288574 L269.045166,179.554199 L269.404053,179.554199 C269.814211,179.554199 270.091064,179.605468 270.234619,179.708008 C270.378175,179.810547 270.449951,179.995116 270.449951,180.261719 C270.449951,180.54883 270.388428,180.743652 270.265381,180.846191 C270.142333,180.948731 269.841555,181 269.363037,181 L266.943115,181 C266.66284,181 266.452637,180.940186 266.3125,180.820557 C266.172363,180.700927 266.102295,180.51465 266.102295,180.261719 C266.102295,179.98828 266.182616,179.802002 266.343262,179.702881 C266.503907,179.603759 266.816648,179.554199 267.281494,179.554199 L267.496826,179.554199 Z M286.712646,172.099609 C287.047609,172.099609 287.291991,172.157714 287.445801,172.273926 C287.59961,172.390137 287.676514,172.574706 287.676514,172.827637 C287.676514,173.066896 287.604737,173.246337 287.461182,173.365967 C287.317626,173.485596 287.102296,173.54541 286.815186,173.54541 L282.662354,173.54541 L282.662354,176.970215 C282.662354,178.091314 282.807616,178.829588 283.098145,179.185059 C283.388673,179.540529 283.885983,179.718262 284.590088,179.718262 C285.212161,179.718262 285.957271,179.537111 286.825439,179.174805 C287.693608,178.812498 288.230224,178.631348 288.435303,178.631348 C288.62671,178.631348 288.789062,178.699706 288.922363,178.836426 C289.055665,178.973145 289.122314,179.140624 289.122314,179.338867 C289.122314,179.564454 289.038575,179.760985 288.871094,179.928467 C288.703612,180.095948 288.418215,180.2583 288.014893,180.415527 C287.344967,180.68213 286.741702,180.876953 286.205078,181 C285.668454,181.123047 285.164309,181.18457 284.692627,181.18457 C283.892818,181.18457 283.221194,181.056398 282.677734,180.800049 C282.134275,180.5437 281.729249,180.1626 281.462646,179.656738 C281.325927,179.417479 281.228516,179.133791 281.17041,178.805664 C281.112304,178.477537 281.083252,177.971683 281.083252,177.288086 L281.083252,173.54541 L279.340088,173.54541 C279.052977,173.54541 278.844483,173.489014 278.7146,173.376221 C278.584716,173.263427 278.519775,173.080568 278.519775,172.827637 C278.519775,172.547362 278.608642,172.355958 278.786377,172.253418 C278.964112,172.150878 279.343503,172.099609 279.924561,172.099609 L281.083252,172.099609 L281.083252,169.454102 C281.083252,169.160155 281.146484,168.943116 281.272949,168.802979 C281.399415,168.662841 281.595946,168.592773 281.862549,168.592773 C282.163332,168.592773 282.371826,168.678222 282.488037,168.849121 C282.604249,169.02002 282.662354,169.409665 282.662354,170.018066 L282.662354,172.099609 L286.712646,172.099609 Z M292.044678,180.261719 L292.044678,178.436523 C292.044678,178.135741 292.101074,177.920411 292.213867,177.790527 C292.326661,177.660644 292.50952,177.595703 292.762451,177.595703 C293.042726,177.595703 293.264892,177.787107 293.428955,178.169922 C293.538331,178.402345 293.637451,178.57666 293.726318,178.692871 C294.013429,179.062014 294.437253,179.357665 294.997803,179.579834 C295.558352,179.802003 296.176999,179.913086 296.85376,179.913086 C297.578373,179.913086 298.159422,179.766115 298.596924,179.472168 C299.034426,179.178221 299.253174,178.791995 299.253174,178.313477 C299.253174,177.828123 299.07715,177.482911 298.725098,177.277832 C298.373045,177.072753 297.76978,176.970215 296.915283,176.970215 L296.351318,176.970215 C294.95678,176.970215 293.893802,176.727541 293.162354,176.242188 C292.430905,175.756834 292.065186,175.052739 292.065186,174.129883 C292.065186,173.227535 292.42236,172.526858 293.136719,172.027832 C293.851078,171.528806 294.854242,171.279297 296.14624,171.279297 C296.67261,171.279297 297.209226,171.352782 297.756104,171.499756 C298.302981,171.646729 298.590088,171.720215 298.617432,171.720215 C298.692627,171.720215 298.836181,171.653565 299.048096,171.520264 C299.260011,171.386962 299.468505,171.320312 299.673584,171.320312 C299.906007,171.320312 300.078613,171.405761 300.191406,171.57666 C300.3042,171.747559 300.360596,172.003905 300.360596,172.345703 L300.360596,173.54541 C300.360596,173.907717 300.305909,174.169189 300.196533,174.329834 C300.087158,174.490479 299.912843,174.570801 299.673584,174.570801 C299.468505,174.570801 299.215578,174.396486 298.914795,174.047852 C298.70288,173.808593 298.528565,173.627442 298.391846,173.504395 C298.029539,173.169432 297.643313,172.928468 297.233154,172.781494 C296.822996,172.634521 296.341067,172.561035 295.787354,172.561035 C295.144772,172.561035 294.626955,172.702879 294.233887,172.986572 C293.840818,173.270265 293.644287,173.630857 293.644287,174.068359 C293.644287,174.499026 293.845945,174.80664 294.249268,174.991211 C294.65259,175.175782 295.520745,175.281738 296.85376,175.309082 C298.275642,175.343262 299.314694,175.591062 299.970947,176.05249 C300.627201,176.513918 300.955322,177.226558 300.955322,178.19043 C300.955322,179.113286 300.593021,179.85156 299.868408,180.405273 C299.143795,180.958987 298.166266,181.23584 296.935791,181.23584 C296.546141,181.23584 296.112063,181.199952 295.633545,181.128174 C295.155027,181.056396 294.55347,180.935059 293.828857,180.76416 C293.589598,180.921388 293.384522,181.039306 293.213623,181.11792 C293.042724,181.196534 292.899171,181.23584 292.782959,181.23584 C292.5437,181.23584 292.36084,181.1521 292.234375,180.984619 C292.10791,180.817138 292.044678,180.576173 292.044678,180.261719 Z M322.314209,172.202148 L325.02124,171.043457 L325.164795,171.002441 C325.212647,170.988769 325.250244,170.981934 325.277588,170.981934 C325.332276,170.981934 325.378418,171.007568 325.416016,171.058838 C325.453613,171.110108 325.496338,171.204101 325.544189,171.34082 L325.800537,172.120117 C325.821045,172.202149 325.836426,172.268799 325.84668,172.320068 C325.856934,172.371338 325.862061,172.407226 325.862061,172.427734 C325.862061,172.482422 325.834717,172.530273 325.780029,172.571289 C325.725342,172.612305 325.646729,172.643066 325.544189,172.663574 L322.673096,173.30957 L324.60083,175.544922 C324.648682,175.585938 324.68457,175.63208 324.708496,175.68335 C324.732422,175.734619 324.744385,175.784179 324.744385,175.832031 C324.744385,175.866211 324.722168,175.908935 324.677734,175.960205 C324.633301,176.011475 324.573487,176.067871 324.498291,176.129395 L323.821533,176.611328 C323.739502,176.672852 323.674561,176.715576 323.626709,176.739502 C323.578857,176.763428 323.537842,176.775391 323.503662,176.775391 C323.462646,176.775391 323.418213,176.754883 323.370361,176.713867 C323.32251,176.672851 323.278076,176.618164 323.237061,176.549805 L321.719482,174.006836 L320.212158,176.549805 C320.164306,176.625 320.114746,176.681396 320.063477,176.718994 C320.012207,176.756592 319.962647,176.775391 319.914795,176.775391 C319.887451,176.775391 319.846436,176.761719 319.791748,176.734375 C319.73706,176.707031 319.675537,176.666016 319.607178,176.611328 L318.950928,176.129395 C318.86206,176.067871 318.793701,176.011475 318.74585,175.960205 C318.697998,175.908935 318.674072,175.859375 318.674072,175.811523 C318.674072,175.777344 318.687744,175.734619 318.715088,175.68335 C318.742432,175.63208 318.780029,175.585938 318.827881,175.544922 L320.755615,173.30957 L317.905029,172.663574 C317.795654,172.643066 317.711914,172.610596 317.653809,172.566162 C317.595703,172.521728 317.56665,172.46875 317.56665,172.407227 C317.56665,172.393555 317.578613,172.35083 317.602539,172.279053 C317.626465,172.207275 317.641846,172.154297 317.648682,172.120117 L317.905029,171.34082 C317.946045,171.204101 317.98706,171.110108 318.028076,171.058838 C318.069092,171.007568 318.116943,170.981934 318.171631,170.981934 C318.226319,170.981934 318.27417,170.985352 318.315186,170.992188 C318.356201,170.999023 318.393799,171.009277 318.427979,171.022949 L321.13501,172.202148 L320.858154,169.259277 L320.858154,169.13623 C320.858154,169.020019 320.888916,168.941406 320.950439,168.900391 C321.011963,168.859375 321.135009,168.838867 321.31958,168.838867 L322.119385,168.838867 C322.310792,168.838867 322.435547,168.859375 322.493652,168.900391 C322.551758,168.941406 322.580811,169.020019 322.580811,169.13623 L322.580811,169.259277 L322.314209,172.202148 Z M332.014404,181.276855 C331.864013,181.618654 331.722169,181.851074 331.588867,181.974121 C331.455566,182.097169 331.296632,182.158691 331.112061,182.158691 C330.920653,182.158691 330.753175,182.088624 330.609619,181.948486 C330.466064,181.808349 330.394287,181.639161 330.394287,181.440918 C330.394287,181.38623 330.404541,181.322998 330.425049,181.251221 C330.445557,181.179443 330.4729,181.102539 330.50708,181.020508 L336.905518,167.229004 C337.076417,166.873533 337.226806,166.632569 337.356689,166.506104 C337.486573,166.379638 337.643798,166.316406 337.828369,166.316406 C338.033448,166.316406 338.207763,166.384765 338.351318,166.521484 C338.494874,166.658204 338.56665,166.822265 338.56665,167.013672 C338.56665,167.06836 338.558106,167.129882 338.541016,167.198242 C338.523926,167.266602 338.498291,167.331543 338.464111,167.393066 L332.014404,181.276855 Z" id="/*-is-CSS-for-compon" fill="#7A92A5"></path>
                </g>
            </g>
        </g>
    </g>
</svg>