<svg xmlns="http://www.w3.org/2000/svg" xmlns:xlink="http://www.w3.org/1999/xlink" width="33" height="32" viewBox="0 0 33 32">
  <defs>
    <polygon id="logo-git-a" points="0 0 0 31.775 32.579 31.775 32.579 0"/>
  </defs>
  <g fill="none" fill-rule="evenodd">
    <mask id="logo-git-b" fill="#fff">
      <use xlink:href="#logo-git-a"/>
    </mask>
    <path fill="#181717" d="M16.2886,-3.55271368e-15 C7.2936,-3.55271368e-15 -0.0004,7.293 -0.0004,16.291 C-0.0004,23.487 4.6666,29.592 11.1406,31.747 C11.9556,31.896 12.2526,31.393 12.2526,30.961 C12.2526,30.575 12.2386,29.55 12.2306,28.191 C7.6996,29.175 6.7436,26.007 6.7436,26.007 C6.0026,24.125 4.9346,23.625 4.9346,23.625 C3.4556,22.614 5.0466,22.634 5.0466,22.634 C6.6816,22.75 7.5416,24.313 7.5416,24.313 C8.9946,26.802 11.3536,26.083 12.2826,25.667 C12.4306,24.614 12.8506,23.896 13.3166,23.489 C9.6996,23.078 5.8966,21.68 5.8966,15.438 C5.8966,13.66 6.5316,12.206 7.5736,11.067 C7.4056,10.655 6.8466,8.999 7.7326,6.756 C7.7326,6.756 9.1006,6.318 12.2126,8.426 C13.5116,8.064 14.9056,7.884 16.2906,7.877 C17.6736,7.884 19.0676,8.064 20.3686,8.426 C23.4786,6.318 24.8436,6.756 24.8436,6.756 C25.7326,8.999 25.1736,10.655 25.0056,11.067 C26.0496,12.206 26.6806,13.66 26.6806,15.438 C26.6806,21.696 22.8716,23.073 19.2426,23.476 C19.8276,23.979 20.3486,24.973 20.3486,26.493 C20.3486,28.67 20.3286,30.427 20.3286,30.961 C20.3286,31.397 20.6216,31.904 21.4486,31.745 C27.9156,29.586 32.5796,23.485 32.5796,16.291 C32.5796,7.293 25.2856,-3.55271368e-15 16.2886,-3.55271368e-15" mask="url(#logo-git-b)"/>
  </g>
</svg>
