<svg xmlns="http://www.w3.org/2000/svg" width="120" height="14" viewBox="0 0 120 14">
  <path fill="#18455A" fill-rule="evenodd" d="M7.40354062,69.9267031 C6.76451781,69.7380392 6.17723424,69.6437087 5.64167227,69.6437087 C4.89918863,69.6437087 4.30581921,69.7867259 3.86154622,70.0727647 C3.41727322,70.3588035 3.19514006,70.7513402 3.19514006,71.2503866 C3.19514006,71.7007455 3.32902854,72.0689388 3.59680952,72.3549776 C3.86459051,72.6410164 4.19322588,72.8661925 4.58272549,73.0305126 C4.9722251,73.1948328 5.51386488,73.3865367 6.20766106,73.6056303 C7.07186333,73.8734112 7.77173495,74.1290165 8.30729692,74.3724538 C8.84285889,74.615891 9.2992969,74.9779985 9.67662465,75.4587871 C10.0539524,75.9395757 10.2426134,76.575546 10.2426134,77.3667171 C10.2426134,78.0970289 10.0448236,78.7360421 9.6492381,79.2837759 C9.25365255,79.8315097 8.6998411,80.2544756 7.98778711,80.5526863 C7.27573313,80.8508969 6.45718763,81 5.53212605,81 C4.59489261,81 3.68201658,80.8174248 2.79347059,80.4522689 C1.9049246,80.087113 1.13810873,79.6002458 0.493,78.9916527 L1.27808123,77.4762633 C1.88667438,78.0726846 2.5713314,78.5321655 3.33207283,78.8547199 C4.09281426,79.1772743 4.83224384,79.338549 5.55038375,79.338549 C6.40241416,79.338549 7.0748995,79.1711884 7.56785994,78.8364622 C8.06082039,78.501736 8.30729692,78.0483409 8.30729692,77.4762633 C8.30729692,77.0259044 8.17340844,76.6546681 7.90562745,76.3625434 C7.63784647,76.0704187 7.30008234,75.8391568 6.89232493,75.6687507 C6.48456752,75.4983446 5.93379899,75.3096836 5.2400028,75.1027619 C4.3879724,74.8471528 3.69418662,74.5976333 3.15862465,74.3541961 C2.62306268,74.1107588 2.16966759,73.7516943 1.79842577,73.2769916 C1.42718395,72.8022889 1.24156583,72.1754474 1.24156583,71.3964482 C1.24156583,70.7148239 1.43022687,70.1123257 1.80755462,69.5889356 C2.18488237,69.0655455 2.71435047,68.66388 3.39597479,68.3839272 C4.07759911,68.1039743 4.86875833,67.964 5.76947619,67.964 C6.53630355,67.964 7.28790481,68.076588 8.02430252,68.3017675 C8.76070023,68.526947 9.41492805,68.8281961 9.9870056,69.2055238 L9.25669748,70.7756863 C8.6602762,70.3983585 8.04256342,70.115367 7.40354062,69.9267031 Z M15.644028,68.1100616 L25.6309916,68.1100616 L25.6309916,69.7167395 L21.5047507,69.7167395 L21.5047507,80.8904538 L19.7520112,80.8904538 L19.7520112,69.7167395 L15.644028,69.7167395 L15.644028,68.1100616 Z M41.5123277,68.1100616 L36.7288095,76.508605 L36.7288095,80.8904538 L34.97607,80.8904538 L34.97607,76.5816359 L30.119521,68.1100616 L31.9087759,68.1100616 L35.8524397,74.6280616 L39.7230728,68.1100616 L41.5123277,68.1100616 Z M47.6440503,68.1100616 L49.3967898,68.1100616 L49.3967898,79.3020336 L54.983647,79.3020336 L54.983647,80.8904538 L47.6440503,80.8904538 L47.6440503,68.1100616 Z M71.0840755,80.8904538 L69.7330055,77.7866443 L62.995913,77.7866443 L61.6631007,80.8904538 L59.8190727,80.8904538 L65.4972184,68.1100616 L67.3229887,68.1100616 L72.9828766,80.8904538 L71.0840755,80.8904538 Z M63.6897058,76.1982241 L69.0574705,76.1982241 L66.3553304,69.990605 L63.6897058,76.1982241 Z M87.6318178,68.9590448 C88.3803874,69.5250364 88.7546665,70.3070669 88.7546665,71.3051597 C88.7546665,72.0354714 88.547748,72.6531842 88.1339046,73.1583165 C87.7200613,73.6634488 87.1540781,74.001213 86.4359382,74.171619 C87.3244842,74.3055095 88.0213129,74.6615312 88.5264452,75.2396947 C89.0315775,75.8178582 89.2841399,76.5390302 89.2841399,77.4032325 C89.2841399,78.4987002 88.8733457,79.3537607 88.051745,79.9684398 C87.2301442,80.5831189 86.095135,80.8904538 84.6466833,80.8904538 L79.0963416,80.8904538 L79.0963416,68.1100616 L84.5553948,68.1100616 C85.8577841,68.1100616 86.8832482,68.3930532 87.6318178,68.9590448 Z M86.2990055,73.0305126 C86.7311066,72.6957864 86.9471539,72.2180479 86.9471539,71.5972829 C86.9471539,70.9886898 86.7311066,70.5200801 86.2990055,70.1914398 C85.8669043,69.8627995 85.2552774,69.7045676 84.4641063,69.7167395 L80.8490811,69.7167395 L80.8490811,73.5325994 L84.4641063,73.5325994 C85.2552774,73.5325994 85.8669043,73.3652388 86.2990055,73.0305126 Z M86.6915461,78.7451737 C87.227108,78.3739319 87.494885,77.8535925 87.494885,77.1841401 C87.494885,76.5390313 87.227108,76.0339066 86.6915461,75.6687507 C86.1559841,75.3035948 85.4135116,75.1210196 84.4641063,75.1210196 L80.8490811,75.1210196 L80.8490811,79.2837759 L84.4641063,79.2837759 C85.4135116,79.2959478 86.1559841,79.1164155 86.6915461,78.7451737 Z M96.3470054,68.1100616 L98.0997449,68.1100616 L98.0997449,79.3020336 L103.686602,79.3020336 L103.686602,80.8904538 L96.3470054,80.8904538 L96.3470054,68.1100616 Z M110.165221,68.1100616 L119.038465,68.1100616 L119.038465,69.6984818 L111.917961,69.6984818 L111.917961,73.6421457 L118.289899,73.6421457 L118.289899,75.2305658 L111.917961,75.2305658 L111.917961,79.3020336 L119.257557,79.3020336 L119.257557,80.8904538 L110.165221,80.8904538 L110.165221,68.1100616 Z" transform="translate(0 -67)"/>
</svg>
