<?xml version="1.0" encoding="UTF-8"?>
<svg width="16px" height="16px" viewBox="0 0 16 16" version="1.1" xmlns="http://www.w3.org/2000/svg" xmlns:xlink="http://www.w3.org/1999/xlink">
    <!-- Generator: Sketch 46.2 (44496) - http://www.bohemiancoding.com/sketch -->
    <title>warning</title>
    <desc>Created with Sketch.</desc>
    <defs></defs>
    <g id="Page-1" stroke="none" stroke-width="1" fill="none" fill-rule="evenodd">
        <g id="Desktop" transform="translate(-535.000000, -493.000000)" fill-rule="nonzero" fill="#EE5951">
            <g id="warning" transform="translate(543.000000, 501.000000) scale(1, -1) translate(-543.000000, -501.000000) translate(535.000000, 493.000000)">
                <path d="M8,0 C3.58892308,0 0,3.58867692 0,8 C0,12.4113231 3.58892308,16 8,16 C12.4110769,16 16,12.4113231 16,8 C16,3.58867692 12.4110769,0 8,0 Z M8,15.0153846 C4.13169231,15.0153846 0.984615385,11.8683077 0.984615385,8 C0.984615385,4.13169231 4.13169231,0.984615385 8,0.984615385 C11.8683077,0.984615385 15.0153846,4.13169231 15.0153846,8 C15.0153846,11.8683077 11.8683077,15.0153846 8,15.0153846 Z" id="Shape"></path>
                <circle id="Oval" cx="8.12750769" cy="4.81009231" r="1"></circle>
                <path d="M7.91064615,6.97649231 C7.63889231,6.97649231 7.41833846,7.19704615 7.41833846,7.4688 L7.41833846,11.6534154 C7.41833846,11.9251692 7.63889231,12.1457231 7.91064615,12.1457231 C8.1824,12.1457231 8.40295385,11.9251692 8.40295385,11.6534154 L8.40295385,7.4688 C8.40295385,7.1968 8.1824,6.97649231 7.91064615,6.97649231 Z" id="Shape"></path>
            </g>
        </g>
    </g>
</svg>