<?xml version="1.0" encoding="UTF-8"?>
<svg width="323px" height="96px" viewBox="0 0 323 96" version="1.1" xmlns="http://www.w3.org/2000/svg" xmlns:xlink="http://www.w3.org/1999/xlink">
    <!-- Generator: Sketch 46.1 (44463) - http://www.bohemiancoding.com/sketch -->
    <title>96-logo-horizontal-singleLine</title>
    <desc>Created with Sketch.</desc>
    <defs>
        <linearGradient x1="13.8044914%" y1="6.87650486%" x2="200.222993%" y2="112.747383%" id="linearGradient-1">
            <stop stop-color="#FAD961" offset="0%"></stop>
            <stop stop-color="#F76E1E" offset="100%"></stop>
            <stop stop-color="#F76B1C" offset="100%"></stop>
        </linearGradient>
        <linearGradient x1="6.86177517%" y1="126.31797%" x2="27.2845569%" y2="-18.4508191%" id="linearGradient-2">
            <stop stop-color="#005CC2" offset="0%"></stop>
            <stop stop-color="#00A8F4" offset="59.908103%"></stop>
            <stop stop-color="#00EBFF" offset="100%"></stop>
        </linearGradient>
    </defs>
    <g id="Page-1" stroke="none" stroke-width="1" fill="none" fill-rule="evenodd">
        <g id="Sizes" transform="translate(-554.000000, -436.000000)">
            <g id="96-logo-horizontal-singleLine" transform="translate(554.000000, 436.000000)">
                <g id="logo-st-copy-2">
                    <g id="Group-67" stroke-width="1">
                        <g id="Group">
                            <path d="M25.9459514,1.83180599 C18.0674566,5.18385626 0.0608270795,22.4410604 0,36.0399542 C0.106082221,50.0983791 18.0674566,66.896494 25.9459514,70.2485442 C27.7524656,71.0166212 30.5556622,72.0799083 33.5162528,72.0799083 C36.2161321,72.0799083 38.5022229,70.7476072 40.8284013,67.949739 C44.7381922,63.2462622 44.2677279,56.4833362 39.0570181,52.6451613 C32.8214884,48.054819 27.7181731,43.9346181 27.6117782,36.0399542 C27.7181731,28.1457321 32.8214884,22.6356781 39.0570181,18.0448939 C44.2677279,14.2071609 45.2825561,8.38564984 41.3727652,3.68217309 C39.0470265,0.884304892 36.2156924,0 33.5162528,0 C30.5552226,0 27.7524656,1.06328714 25.9459514,1.83180599 Z" id="Fill-1" fill="url(#linearGradient-1)"></path>
                            <path d="M40.6969697,68.1290323 C44.1549724,64.1957897 44.5842817,56.3931434 39.1565532,52.6451613 C31.5485284,47.3916302 27.6648763,42.3833436 27.7104286,35.9651621 C27.762084,28.6870622 32.3937981,24.1297497 33.5481335,22.7096774 C16.2724262,42.1051592 13.8795535,64.0194269 30.6046488,71.7395025 C34.4314044,73.0700295 37.709116,71.5275122 40.6969697,68.1290323 Z" id="Fill-9" fill="#850100" opacity="0.600000024"></path>
                            <path d="M32.6187986,61.6820595 C34.8386427,58.9539945 34.6272266,53.7818016 31.6299374,50.9425725 C26.8639635,46.427929 26.0130232,41.5164627 26.0422652,37.0648642 C26.0754251,32.0168332 29.0487262,28.8559184 29.7897449,27.8709677 C18.699708,41.3235162 15.4035189,58.8316707 26.1400936,64.1862523 C28.5966565,65.109095 30.7007638,64.0392176 32.6187986,61.6820595 Z" id="Fill-9" fill="#850600" opacity="0.600000024"></path>
                            <path d="M27.9147528,56.4138737 C29.331312,54.6730012 29.1964001,51.3724465 27.2837264,49.5606363 C24.2423939,46.6796865 23.6993795,43.5455103 23.7180399,40.7047917 C23.7392003,37.4834689 24.7604614,34.7030782 23.0817371,38.4241517 C21.4030128,42.1452252 16.9290887,54.5949422 23.7804676,58.0118856 C25.3480851,58.6007834 26.6907886,57.9180577 27.9147528,56.4138737 Z" id="Fill-9" fill="#850B00" opacity="0.965466486"></path>
                        </g>
                        <path d="M51.432307,95.9598915 C48.7456895,95.9598915 45.927804,95.0760787 43.6131124,92.2797673 C39.7218926,87.5789078 40.7386296,81.7614277 45.924589,77.9258302 C52.1305004,73.3376005 57.2028464,67.8298209 57.3087358,59.9399916 C57.2028464,52.0497206 52.1240726,46.809649 45.924589,42.198127 C41.3476014,38.7935082 39.7218926,32.3006337 43.6131124,27.5997742 C45.9282416,24.8034628 48.7452519,23.9200917 51.432307,23.9200917 C54.3788351,23.9200917 57.1687167,24.9827872 58.9666501,25.7504367 C66.8077227,29.1006217 84.648751,45.8476155 84.7869136,59.9399916 C84.7427282,73.2227981 66.8077227,90.7789198 58.9666501,94.1291048 C57.1687167,94.897196 54.3792726,95.9598915 51.432307,95.9598915 Z" id="Fill-1-Copy-6" fill="url(#linearGradient-2)"></path>
                    </g>
                    <path d="M63.7695788,69.4326891 C67.2452178,65.4994465 66.6557418,58.4404568 61.2003312,54.6924747 C53.5535046,49.4389436 49.9077967,43.4156016 49.9535812,36.9974202 C50.0055001,29.7193203 54.6608365,25.1620078 55.8210592,23.7419355 C37.7759754,36.9974202 36.052167,65.0516849 52.8625623,72.7717605 C56.7088349,74.1022875 60.7664867,72.8311691 63.7695788,69.4326891 Z" id="Fill-9" fill="#0D2434" opacity="0.600000024" transform="translate(53.575758, 48.516129) rotate(-180.000000) translate(-53.575758, -48.516129) "></path>
                    <g id="Group-2" stroke-width="1" transform="translate(58.727273, 50.064516) rotate(-180.000000) translate(-58.727273, -50.064516) translate(51.000000, 32.000000)">
                        <path d="M13.5581925,33.2949628 C15.7780367,30.5668977 15.5666206,25.3947048 12.5693314,22.5554757 C7.80335745,18.0408322 6.95241712,13.1293659 6.98165912,8.67776742 C7.014819,3.62973646 8.02480484,1.32606215 8.76582356,0.341111525 C-0.260412246,10.9494388 -3.21079812,30.6761347 7.07948758,35.7991556 C9.53605046,36.7219983 11.6401578,35.6521209 13.5581925,33.2949628 Z" id="Fill-9-Copy" fill-opacity="0.406759511" fill="#001829" opacity="0.609510893"></path>
                        <path d="M8.33899525,28.026777 C9.75555443,26.2859045 9.62064249,22.9853497 7.70796882,21.1735396 C4.66663634,18.2925897 3.64846659,14.6357111 3.53437118,12.6082495 C3.39364504,10.1075629 3.41021524,9.75253887 3.84861362,7.989 C2.51052769,10.3984053 -3.34910754,27.0249527 4.20471,29.6247888 C5.77232756,30.2136866 7.11503107,29.5309609 8.33899525,28.026777 Z" id="Fill-9-Copy-2" fill="#000000" opacity="0.384680707"></path>
                    </g>
                </g>
                <text id="stylable" font-family="Montserrat-Regular, Montserrat" font-size="32" font-weight="normal" line-spacing="41" letter-spacing="8" fill="#18455A">
                    <tspan x="128.892" y="59">stylable</tspan>
                </text>
            </g>
        </g>
    </g>
</svg>