<?xml version="1.0" encoding="UTF-8"?>
<svg width="449px" height="96px" viewBox="0 0 449 96" version="1.1" xmlns="http://www.w3.org/2000/svg" xmlns:xlink="http://www.w3.org/1999/xlink">
    <!-- Generator: Sketch 46.2 (44496) - http://www.bohemiancoding.com/sketch -->
    <title>96-logo-horizontal</title>
    <desc>Created with Sketch.</desc>
    <defs>
        <linearGradient x1="66.5482535%" y1="-4.69211158%" x2="80.2718164%" y2="111.186421%" id="linearGradient-1">
            <stop stop-color="#7AD852" offset="0%"></stop>
            <stop stop-color="#3AB38B" offset="53.5842857%"></stop>
            <stop stop-color="#00BFC9" offset="100%"></stop>
        </linearGradient>
        <linearGradient x1="78.0937359%" y1="0.737604065%" x2="20.393625%" y2="118.621864%" id="linearGradient-2">
            <stop stop-color="#FF2953" offset="0%"></stop>
            <stop stop-color="#EA3333" offset="100%"></stop>
        </linearGradient>
    </defs>
    <g id="Page-1" stroke="none" stroke-width="1" fill="none" fill-rule="evenodd">
        <g id="Logo-2" transform="translate(-605.000000, -13414.000000)">
            <g id="Group-4" transform="translate(80.000000, 13191.000000)">
                <g id="96-logo-horizontal" transform="translate(525.000000, 223.000000)">
                    <g id="Group-9">
                        <g id="logo-st-copy-2">
                            <g id="Group">
                                <g id="Group-3-Copy">
                                    <path d="M25.9459514,1.83180599 C18.0674566,5.18385626 0.0608270795,22.4410604 0,36.0399542 C0.106082221,50.0983791 18.0674566,66.896494 25.9459514,70.2485442 C27.7524656,71.0166212 30.5556622,72.0799083 33.5162528,72.0799083 C36.2161321,72.0799083 38.5022229,70.7476072 40.8284013,67.949739 C44.7381922,63.2462622 44.2677279,56.4833362 39.0570181,52.6451613 C32.8214884,48.054819 27.7181731,43.9346181 27.6117782,36.0399542 C27.7181731,28.1457321 32.8214884,22.6356781 39.0570181,18.0448939 C44.2677279,14.2071609 45.2825561,8.38564984 41.3727652,3.68217309 C39.0470265,0.884304892 36.2156924,0 33.5162528,0 C30.5552226,0 27.7524656,1.06328714 25.9459514,1.83180599 Z" id="Fill-1" fill="url(#linearGradient-1)"></path>
                                    <path d="M40.6969697,68.1290323 C44.1549724,64.1957897 44.5842817,56.3931434 39.1565532,52.6451613 C31.5485284,47.3916302 27.6648763,42.3833436 27.7104286,35.9651621 C27.762084,28.6870622 32.3937981,24.1297497 33.5481335,22.7096774 C16.2724262,42.1051592 13.8795535,64.0194269 30.6046488,71.7395025 C34.4314044,73.0700295 37.709116,71.5275122 40.6969697,68.1290323 Z" id="Fill-9" fill="#005892"></path>
                                    <path d="M32.6187986,61.1659305 C34.8386427,58.4378654 34.6272266,53.2656726 31.6299374,50.4264435 C26.8639635,45.9118 26.0130232,41.0003336 26.0422652,36.5487352 C26.0754251,31.5007042 29.0487262,28.3397893 29.7897449,27.3548387 C18.699708,40.8073872 15.4035189,58.3155416 26.1400936,63.6701233 C28.5966565,64.592966 30.7007638,63.5230886 32.6187986,61.1659305 Z" id="Fill-9" fill="#00418E"></path>
                                    <path d="M27.9147528,55.8977447 C29.331312,54.1568722 29.1964001,50.8563174 27.2837264,49.0445073 C24.2423939,46.1635575 23.6993795,43.0293813 23.7180399,40.1886626 C23.7392003,36.9673398 24.7604614,34.1869492 23.0817371,37.9080227 C21.4030128,41.6290961 16.9290887,54.0788132 23.7804676,57.4957566 C25.3480851,58.0846543 26.6907886,57.4019286 27.9147528,55.8977447 Z" id="Fill-9" fill="#002355"></path>
                                </g>
                                <g id="Group-4-Copy" transform="translate(41.212121, 23.741935)">
                                    <g id="Group-5">
                                        <path d="M10.2201858,72.217956 C7.53356827,72.217956 4.71568281,71.3341432 2.40099118,68.5378319 C-1.49022861,63.8369723 -0.473491646,58.0194923 4.71246775,54.1838948 C10.9183792,49.5956651 15.9907251,44.0878855 16.0966146,36.1980561 C15.9907251,28.3077851 10.9119513,23.0677135 4.71246775,18.4561916 C0.135480195,15.0515727 -1.49022861,8.55869822 2.40099118,3.8578387 C4.71612037,1.06152735 7.53313071,0.178156214 10.2201858,0.178156214 C13.1667138,0.178156214 15.9565955,1.2408517 17.7545289,2.00850122 C25.5956015,5.35868626 43.4366298,22.10568 43.5747924,36.1980561 C43.530607,49.4808626 25.5956015,67.0369843 17.7545289,70.3871693 C15.9565955,71.1552605 13.1671514,72.217956 10.2201858,72.217956 Z" id="Fill-1-Copy-6" fill="url(#linearGradient-2)"></path>
                                        <path d="M22.5574576,45.6907536 C26.0330966,41.7575111 25.4436206,34.6985213 19.98821,30.9505393 C12.3413834,25.6970081 8.69567546,19.6736662 8.74146003,13.2554847 C8.79337889,5.97738477 13.4487153,1.42007233 14.608938,-7.10542736e-15 C-3.43614578,13.2554847 -5.15995421,41.3097495 11.6504411,49.0298251 C15.4967137,50.360352 19.5543655,49.0892336 22.5574576,45.6907536 Z" id="Fill-9" fill="#470000" opacity="0.600000024" style="mix-blend-mode: multiply;" transform="translate(12.363636, 24.774194) rotate(-180.000000) translate(-12.363636, -24.774194) "></path>
                                        <path d="M23.2851073,40.6957867 C25.5049514,37.9677217 25.2935353,32.7955288 22.2962461,29.9562997 C17.5302722,25.4416562 16.6793318,20.5301899 16.7085738,16.0785914 C16.7417337,11.0305604 17.7517196,8.72688611 18.4927383,7.74193548 C9.46650247,18.3502628 6.5161166,38.0769586 16.8064023,43.1999795 C19.2629652,44.1228222 21.3670725,43.0529448 23.2851073,40.6957867 Z" id="Fill-9-Copy" fill="#670010" transform="translate(17.538044, 25.635896) rotate(-180.000000) translate(-17.538044, -25.635896) "></path>
                                        <path d="M23.8890459,33.9732608 C25.305605,32.2323883 25.1706931,28.9318335 23.2580194,27.1200234 C20.2166869,24.2390736 19.1985172,20.582195 19.0844218,18.5547333 C18.9436956,16.0540468 18.9602658,15.6990227 19.3986642,13.9354839 C18.0605783,16.3448892 12.2009431,32.9714366 19.7547606,35.5712727 C21.3223782,36.1601705 22.6650817,35.4774448 23.8890459,33.9732608 Z" id="Fill-9-Copy-2" fill="#730000" style="mix-blend-mode: multiply;" transform="translate(20.404128, 24.858631) rotate(-180.000000) translate(-20.404128, -24.858631) "></path>
                                    </g>
                                </g>
                            </g>
                        </g>
                        <g id="Group-3" transform="translate(110.000000, 15.000000)">
                            <path d="M13.196,12.784 C12.0759944,12.4533317 11.0466714,12.288 10.108,12.288 C8.80666016,12.288 7.76667056,12.5386642 6.988,13.04 C6.20932944,13.5413358 5.82,14.229329 5.82,15.104 C5.82,15.8933373 6.05466432,16.5386642 6.524,17.04 C6.99333568,17.5413358 7.56932992,17.9359986 8.252,18.224 C8.93467008,18.5120014 9.88399392,18.8479981 11.1,19.232 C12.6146742,19.7013357 13.8413286,20.1493312 14.78,20.576 C15.7186714,21.0026688 16.5186634,21.6373291 17.18,22.48 C17.8413366,23.3226709 18.172,24.4373264 18.172,25.824 C18.172,27.1040064 17.8253368,28.2239952 17.132,29.184 C16.4386632,30.1440048 15.4680062,30.8853307 14.22,31.408 C12.9719938,31.9306693 11.5373414,32.192 9.916,32.192 C8.27332512,32.192 6.67334112,31.8720032 5.116,31.232 C3.55865888,30.5919968 2.21467232,29.738672 1.084,28.672 L2.46,26.016 C3.526672,27.0613386 4.72666,27.8666638 6.06,28.432 C7.39334,28.9973362 8.68932704,29.28 9.948,29.28 C11.4413408,29.28 12.6199957,28.9866696 13.484,28.4 C14.3480043,27.8133304 14.78,27.0186717 14.78,26.016 C14.78,25.2266627 14.5453357,24.5760026 14.076,24.064 C13.6066643,23.5519974 13.0146702,23.1466682 12.3,22.848 C11.5853298,22.5493318 10.6200061,22.2186685 9.404,21.856 C7.9106592,21.4079978 6.69467136,20.9706688 5.756,20.544 C4.81732864,20.1173312 4.02266992,19.4880042 3.372,18.656 C2.72133008,17.8239958 2.396,16.7253402 2.396,15.36 C2.396,14.1653274 2.72666336,13.1093379 3.388,12.192 C4.04933664,11.2746621 4.97732736,10.5706691 6.172,10.08 C7.36667264,9.58933088 8.75332544,9.344 10.332,9.344 C11.6760067,9.344 12.9933269,9.54133136 14.284,9.936 C15.5746731,10.3306686 16.7213283,10.8586634 17.724,11.52 L16.444,14.272 C15.3986614,13.6106634 14.3160056,13.1146683 13.196,12.784 Z M28.188,9.6 L45.692,9.6 L45.692,12.416 L38.46,12.416 L38.46,32 L35.388,32 L35.388,12.416 L28.188,12.416 L28.188,9.6 Z M74.076,9.6 L65.692,24.32 L65.692,32 L62.62,32 L62.62,24.448 L54.108,9.6 L57.244,9.6 L64.156,21.024 L70.94,9.6 L74.076,9.6 Z M85.372,9.6 L88.444,9.6 L88.444,29.216 L98.236,29.216 L98.236,32 L85.372,32 L85.372,9.6 Z M127.004,32 L124.636,26.56 L112.828,26.56 L110.492,32 L107.26,32 L117.212,9.6 L120.412,9.6 L130.332,32 L127.004,32 Z M114.044,23.776 L123.452,23.776 L118.716,12.896 L114.044,23.776 Z M156.556,11.088 C157.868007,12.080005 158.524,13.4506579 158.524,15.2 C158.524,16.4800064 158.161337,17.5626622 157.436,18.448 C156.710663,19.3333378 155.718673,19.9253318 154.46,20.224 C156.017341,20.4586678 157.238662,21.0826616 158.124,22.096 C159.009338,23.1093384 159.452,24.3733258 159.452,25.888 C159.452,27.8080096 158.732007,29.3066613 157.292,30.384 C155.851993,31.4613387 153.862679,32 151.324,32 L141.596,32 L141.596,9.6 L151.164,9.6 C153.446678,9.6 155.243993,10.095995 156.556,11.088 Z M154.22,18.224 C154.977337,17.6373304 155.356,16.8000054 155.356,15.712 C155.356,14.645328 154.977337,13.8240029 154.22,13.248 C153.462663,12.6719971 152.390674,12.3946666 151.004,12.416 L144.668,12.416 L144.668,19.104 L151.004,19.104 C152.390674,19.104 153.462663,18.8106696 154.22,18.224 Z M154.908,28.24 C155.846671,27.5893301 156.316,26.6773392 156.316,25.504 C156.316,24.3733277 155.846671,23.4880032 154.908,22.848 C153.969329,22.2079968 152.668008,21.888 151.004,21.888 L144.668,21.888 L144.668,29.184 L151.004,29.184 C152.668008,29.2053334 153.969329,28.8906699 154.908,28.24 Z M172.38,9.6 L175.452,9.6 L175.452,29.216 L185.244,29.216 L185.244,32 L172.38,32 L172.38,9.6 Z M197.148,9.6 L212.7,9.6 L212.7,12.384 L200.22,12.384 L200.22,19.296 L211.388,19.296 L211.388,22.08 L200.22,22.08 L200.22,29.216 L213.084,29.216 L213.084,32 L197.148,32 L197.148,9.6 Z" id="stylable" fill="#18455A"></path>
                            <path d="M3.98876953,61.2768555 C3.83837815,61.6186541 3.69653387,61.8510736 3.56323242,61.9741211 C3.42993097,62.0971686 3.27099702,62.1586914 3.08642578,62.1586914 C2.89501857,62.1586914 2.72753978,62.0886237 2.58398438,61.9484863 C2.44042897,61.8083489 2.36865234,61.6391611 2.36865234,61.440918 C2.36865234,61.3862302 2.37890615,61.3229984 2.39941406,61.2512207 C2.41992198,61.179443 2.44726545,61.1025395 2.48144531,61.0205078 L8.87988281,47.2290039 C9.0507821,46.8735334 9.20117123,46.632569 9.33105469,46.5061035 C9.46093815,46.379638 9.61816314,46.3164062 9.80273438,46.3164062 C10.0078135,46.3164062 10.1821282,46.3847649 10.3256836,46.5214844 C10.469239,46.6582038 10.5410156,46.8222647 10.5410156,47.0136719 C10.5410156,47.0683596 10.5324708,47.1298825 10.5153809,47.1982422 C10.4982909,47.2666019 10.4726564,47.3315427 10.4384766,47.3930664 L3.98876953,61.2768555 Z M19.4926758,52.2021484 L22.199707,51.043457 L22.3432617,51.0024414 C22.3911135,50.9887695 22.4287108,50.9819336 22.4560547,50.9819336 C22.5107425,50.9819336 22.5568846,51.0075681 22.5944824,51.0588379 C22.6320803,51.1101077 22.6748044,51.2041009 22.7226562,51.3408203 L22.9790039,52.1201172 C22.9995118,52.2021488 23.0148925,52.2687986 23.0251465,52.3200684 C23.0354004,52.3713381 23.0405273,52.4072265 23.0405273,52.4277344 C23.0405273,52.4824221 23.0131839,52.5302732 22.9584961,52.5712891 C22.9038083,52.6123049 22.8251958,52.6430663 22.7226562,52.6635742 L19.8515625,53.3095703 L21.7792969,55.5449219 C21.8271487,55.5859377 21.863037,55.6320798 21.8869629,55.6833496 C21.9108888,55.7346194 21.9228516,55.7841794 21.9228516,55.8320312 C21.9228516,55.8662111 21.900635,55.9089353 21.8562012,55.9602051 C21.8117674,56.0114749 21.7519535,56.0678708 21.6767578,56.1293945 L21,56.6113281 C20.9179683,56.6728519 20.8530276,56.7155761 20.8051758,56.739502 C20.757324,56.7634279 20.7163088,56.7753906 20.6821289,56.7753906 C20.6411131,56.7753906 20.5966799,56.754883 20.5488281,56.7138672 C20.5009763,56.6728514 20.4565432,56.6181644 20.4155273,56.5498047 L18.8979492,54.0068359 L17.390625,56.5498047 C17.3427732,56.6250004 17.2932131,56.6813963 17.2419434,56.7189941 C17.1906736,56.756592 17.1411135,56.7753906 17.0932617,56.7753906 C17.0659178,56.7753906 17.0249026,56.7617189 16.9702148,56.734375 C16.9155271,56.7070311 16.8540042,56.6660159 16.7856445,56.6113281 L16.1293945,56.1293945 C16.0405269,56.0678708 15.9721682,56.0114749 15.9243164,55.9602051 C15.8764646,55.9089353 15.8525391,55.8593752 15.8525391,55.8115234 C15.8525391,55.7773436 15.8662108,55.7346194 15.8935547,55.6833496 C15.9208986,55.6320798 15.9584959,55.5859377 16.0063477,55.5449219 L17.934082,53.3095703 L15.0834961,52.6635742 C14.9741205,52.6430663 14.8903811,52.6105959 14.8322754,52.5661621 C14.7741696,52.5217283 14.7451172,52.4687503 14.7451172,52.4072266 C14.7451172,52.3935546 14.75708,52.3508304 14.7810059,52.2790527 C14.8049318,52.207275 14.8203125,52.154297 14.8271484,52.1201172 L15.0834961,51.3408203 C15.1245119,51.2041009 15.1655271,51.1101077 15.206543,51.0588379 C15.2475588,51.0075681 15.2954099,50.9819336 15.3500977,50.9819336 C15.4047854,50.9819336 15.4526365,50.9853515 15.4936523,50.9921875 C15.5346682,50.9990235 15.5722655,51.0092773 15.6064453,51.0229492 L18.3134766,52.2021484 L18.0366211,49.2592773 L18.0366211,49.1362305 C18.0366211,49.020019 18.0673825,48.9414065 18.1289062,48.9003906 C18.19043,48.8593748 18.3134756,48.8388672 18.4980469,48.8388672 L19.2978516,48.8388672 C19.4892588,48.8388672 19.6140134,48.8593748 19.6721191,48.9003906 C19.7302249,48.9414065 19.7592773,49.020019 19.7592773,49.1362305 L19.7592773,49.2592773 L19.4926758,52.2021484 Z M43.1586914,48.5722656 C43.1586914,47.8339807 43.2253411,47.3691416 43.3586426,47.1777344 C43.491944,46.9863272 43.7773416,46.890625 44.2148438,46.890625 C44.638674,46.890625 44.9189446,46.9709465 45.0556641,47.1315918 C45.1923835,47.2922371 45.2607422,47.6733368 45.2607422,48.2749023 C45.2607422,48.8627959 45.1975104,49.2268059 45.0710449,49.3669434 C44.9445794,49.5070808 44.6591819,49.5771484 44.2148438,49.5771484 C43.7773416,49.5771484 43.491944,49.5122077 43.3586426,49.3823242 C43.2253411,49.2524408 43.1586914,48.9824239 43.1586914,48.5722656 Z M45.0556641,59.5541992 L48.347168,59.5541992 C48.6137709,59.5541992 48.8103021,59.6105951 48.9367676,59.7233887 C49.0632331,59.8361822 49.1264648,60.0156238 49.1264648,60.2617188 C49.1264648,60.5419936 49.066651,60.7351069 48.9470215,60.8410645 C48.827392,60.947022 48.6069352,61 48.2856445,61 L40.3286133,61 C40.0551744,61 39.8500983,60.9384772 39.7133789,60.8154297 C39.5766595,60.6923822 39.5083008,60.5078137 39.5083008,60.2617188 C39.5083008,60.0224597 39.5800774,59.8447271 39.7236328,59.7285156 C39.8671882,59.6123041 40.0825181,59.5541992 40.3696289,59.5541992 L43.4970703,59.5541992 L43.4970703,52.9814453 L41.4975586,52.9814453 C41.2172838,52.9814453 41.0036628,52.9182135 40.8566895,52.791748 C40.7097161,52.6652826 40.6362305,52.4824231 40.6362305,52.2431641 C40.6362305,52.0039051 40.7045892,51.8244635 40.8413086,51.704834 C40.978028,51.5852045 41.1831041,51.5253906 41.456543,51.5253906 L44.4609375,51.5253906 C44.6455087,51.5253906 44.790771,51.5629879 44.8967285,51.6381836 C45.0026861,51.7133793 45.0556641,51.8159173 45.0556641,51.9458008 L45.0556641,59.5541992 Z M52.2333984,60.2617188 L52.2333984,58.4365234 C52.2333984,58.1357407 52.2897944,57.9204108 52.4025879,57.7905273 C52.5153814,57.6606439 52.6982409,57.5957031 52.9511719,57.5957031 C53.2314467,57.5957031 53.4536125,57.7871075 53.6176758,58.1699219 C53.7270513,58.4023449 53.8261714,58.5766596 53.9150391,58.6928711 C54.2021499,59.0620136 54.6259738,59.3576649 55.1865234,59.579834 C55.7470731,59.8020031 56.3657193,59.9130859 57.0424805,59.9130859 C57.7670935,59.9130859 58.3481423,59.7661148 58.7856445,59.472168 C59.2231467,59.1782212 59.4418945,58.7919946 59.4418945,58.3134766 C59.4418945,57.8281226 59.2658709,57.4829112 58.9138184,57.277832 C58.5617658,57.0727529 57.9585004,56.9702148 57.1040039,56.9702148 L56.5400391,56.9702148 C55.1455008,56.9702148 54.0825232,56.7275415 53.3510742,56.2421875 C52.6196252,55.7568335 52.2539062,55.052739 52.2539062,54.1298828 C52.2539062,53.2275346 52.6110804,52.526858 53.3254395,52.027832 C54.0397985,51.5288061 55.0429623,51.2792969 56.3349609,51.2792969 C56.8613308,51.2792969 57.3979465,51.3527825 57.9448242,51.4997559 C58.491702,51.6467293 58.7788085,51.7202148 58.8061523,51.7202148 C58.881348,51.7202148 59.0249013,51.6535651 59.2368164,51.5202637 C59.4487315,51.3869622 59.6572255,51.3203125 59.8623047,51.3203125 C60.0947277,51.3203125 60.2673334,51.4057609 60.380127,51.5766602 C60.4929205,51.7475594 60.5493164,52.0039045 60.5493164,52.3457031 L60.5493164,53.5454102 C60.5493164,53.9077167 60.4946295,54.1691886 60.3852539,54.329834 C60.2758784,54.4904793 60.1015637,54.5708008 59.8623047,54.5708008 C59.6572255,54.5708008 59.4042984,54.3964861 59.1035156,54.0478516 C58.8916005,53.8085926 58.7172858,53.627442 58.5805664,53.5043945 C58.2182599,53.1694319 57.8320333,52.9284675 57.421875,52.7814941 C57.0117167,52.6345207 56.5297879,52.5610352 55.9760742,52.5610352 C55.3334929,52.5610352 54.8156758,52.7028794 54.4226074,52.9865723 C54.0295391,53.2702651 53.8330078,53.6308572 53.8330078,54.0683594 C53.8330078,54.4990256 54.034666,54.8066397 54.4379883,54.9912109 C54.8413106,55.1757822 55.709466,55.2817381 57.0424805,55.309082 C58.4643626,55.3432619 59.5034147,55.5910621 60.159668,56.0524902 C60.8159213,56.5139183 61.144043,57.2265577 61.144043,58.1904297 C61.144043,59.1132859 60.7817419,59.8515597 60.0571289,60.4052734 C59.3325159,60.9589871 58.3549866,61.2358398 57.1245117,61.2358398 C56.7348613,61.2358398 56.3007836,61.1999515 55.8222656,61.1281738 C55.3437476,61.0563961 54.7421911,60.9350594 54.0175781,60.7641602 C53.7783191,60.9213875 53.573243,61.0393062 53.4023438,61.1179199 C53.2314445,61.1965336 53.0878912,61.2358398 52.9716797,61.2358398 C52.7324207,61.2358398 52.5495612,61.1521004 52.4230957,60.9846191 C52.2966302,60.8171378 52.2333984,60.5761734 52.2333984,60.2617188 Z M85.1484375,49.1772461 C85.2167972,48.9926749 85.3124994,48.8627933 85.4355469,48.7875977 C85.5585944,48.712402 85.736327,48.6748047 85.96875,48.6748047 C86.221681,48.6748047 86.3994135,48.7363275 86.5019531,48.859375 C86.6044927,48.9824225 86.6557617,49.2353496 86.6557617,49.6181641 C86.6557617,50.2880893 86.6625976,50.9118623 86.6762695,51.489502 C86.6899415,52.0671416 86.6967773,52.3183598 86.6967773,52.2431641 C86.6967773,52.5644547 86.6420904,52.7814936 86.5327148,52.8942871 C86.4233393,53.0070806 86.228517,53.0634766 85.9482422,53.0634766 C85.4970681,53.0634766 85.2031257,52.7421907 85.0664062,52.0996094 C85.0185544,51.9082022 84.9809572,51.761231 84.9536133,51.6586914 C84.8237298,51.1459935 84.5126978,50.7272965 84.0205078,50.4025879 C83.5283179,50.0778792 82.9506869,49.9155273 82.2875977,49.9155273 C81.0776307,49.9155273 80.1069373,50.3581499 79.3754883,51.2434082 C78.6440393,52.1286665 78.2783203,53.3163988 78.2783203,54.8066406 C78.2783203,56.2968825 78.6491662,57.4846147 79.3908691,58.369873 C80.1325721,59.2551314 81.1118103,59.6977539 82.3286133,59.6977539 C82.7250996,59.6977539 83.1284159,59.641358 83.5385742,59.5285645 C83.9487325,59.4157709 84.3520488,59.2465832 84.7485352,59.0209961 C84.9331064,58.9252925 85.1860335,58.7629406 85.5073242,58.5339355 C85.8286149,58.3049305 86.0576165,58.1904297 86.1943359,58.1904297 C86.4062511,58.1904297 86.5856926,58.2604973 86.732666,58.4006348 C86.8796394,58.5407722 86.953125,58.7133779 86.953125,58.918457 C86.953125,59.1235362 86.8728035,59.3200674 86.7121582,59.5080566 C86.5515129,59.6960459 86.2524436,59.9267564 85.8149414,60.2001953 C85.2407198,60.5761738 84.6630888,60.8530265 84.0820312,61.0307617 C83.5009737,61.208497 82.8891634,61.2973633 82.246582,61.2973633 C80.558097,61.2973633 79.1635797,60.7009337 78.0629883,59.5080566 C76.9623968,58.3151796 76.4121094,56.7890718 76.4121094,54.9296875 C76.4121094,53.0908111 76.9692327,51.5629944 78.0834961,50.3461914 C79.1977595,49.1293884 80.5991127,48.5209961 82.2875977,48.5209961 C82.7387718,48.5209961 83.198484,48.575683 83.666748,48.6850586 C84.1350121,48.7944341 84.6289037,48.958495 85.1484375,49.1772461 Z M91.5161133,60.6411133 C91.4819334,60.948732 91.4033209,61.1623529 91.2802734,61.2819824 C91.1572259,61.4016119 90.9624037,61.4614258 90.6958008,61.4614258 C90.40869,61.4614258 90.1950691,61.3776864 90.0549316,61.2102051 C89.9147942,61.0427238 89.8344728,60.770998 89.8139648,60.3950195 L89.6806641,58.0161133 L89.6806641,57.831543 C89.6806641,57.5034163 89.7438959,57.2709968 89.8703613,57.1342773 C89.9968268,56.9975579 90.2070298,56.9291992 90.5009766,56.9291992 C90.9111349,56.9291992 91.2050772,57.2231416 91.3828125,57.8110352 C91.4648442,58.1049819 91.5434567,58.3271477 91.6186523,58.4775391 C91.8579114,58.9560571 92.2355931,59.325194 92.751709,59.5849609 C93.2678248,59.8447279 93.884762,59.9746094 94.6025391,59.9746094 C95.4843794,59.9746094 96.2004367,59.7661154 96.7507324,59.3491211 C97.3010281,58.9321268 97.5761719,58.398929 97.5761719,57.7495117 C97.5761719,57.20947 97.4069841,56.7753923 97.0686035,56.4472656 C96.7302229,56.119139 96.2363314,55.907227 95.5869141,55.8115234 L94.0693359,55.6064453 C92.6542898,55.4082021 91.6220736,55.0356473 90.9726562,54.4887695 C90.3232389,53.9418918 89.9985352,53.1728565 89.9985352,52.1816406 C89.9985352,51.135737 90.4309039,50.2573278 91.2956543,49.5463867 C92.1604047,48.8354457 93.2387631,48.4799805 94.5307617,48.4799805 C94.9067402,48.4799805 95.3032206,48.5295405 95.7202148,48.6286621 C96.1372091,48.7277837 96.6088841,48.8832997 97.1352539,49.0952148 C97.1489258,48.8969717 97.2036128,48.7602543 97.2993164,48.6850586 C97.39502,48.6098629 97.5590809,48.5722656 97.7915039,48.5722656 C98.0922867,48.5722656 98.3007807,48.6166988 98.4169922,48.7055664 C98.5332037,48.794434 98.6049803,49.006346 98.6323242,49.3413086 L98.7758789,51.484375 L98.7758789,51.5869141 C98.7758789,51.8261731 98.7075202,52.0124505 98.5708008,52.145752 C98.4340813,52.2790534 98.242677,52.3457031 97.996582,52.3457031 C97.6342755,52.3457031 97.3540049,52.092776 97.1557617,51.5869141 C97.0600581,51.2998033 96.9643559,51.0844734 96.8686523,50.940918 C96.6430653,50.5991194 96.3183615,50.3359384 95.8945312,50.1513672 C95.470701,49.966796 94.9887722,49.8745117 94.4487305,49.8745117 C93.6215779,49.8745117 92.9499538,50.0795878 92.4338379,50.4897461 C91.917722,50.8999044 91.659668,51.4365201 91.659668,52.0996094 C91.659668,52.6191432 91.8527813,53.0292954 92.2390137,53.3300781 C92.6252461,53.6308609 93.2148398,53.835937 94.0078125,53.9453125 L95.6484375,54.1503906 C96.8378966,54.307618 97.7333954,54.671628 98.3349609,55.2424316 C98.9365264,55.8132353 99.2373047,56.5839795 99.2373047,57.5546875 C99.2373047,58.7031307 98.8100629,59.6242641 97.9555664,60.3181152 C97.1010699,61.0119664 95.9594798,61.3588867 94.5307617,61.3588867 C94.0385718,61.3588867 93.5498071,61.3007818 93.0644531,61.1845703 C92.5790991,61.0683588 92.062991,60.8872083 91.5161133,60.6411133 Z M104.118164,60.6411133 C104.083984,60.948732 104.005372,61.1623529 103.882324,61.2819824 C103.759277,61.4016119 103.564454,61.4614258 103.297852,61.4614258 C103.010741,61.4614258 102.79712,61.3776864 102.656982,61.2102051 C102.516845,61.0427238 102.436524,60.770998 102.416016,60.3950195 L102.282715,58.0161133 L102.282715,57.831543 C102.282715,57.5034163 102.345947,57.2709968 102.472412,57.1342773 C102.598878,56.9975579 102.809081,56.9291992 103.103027,56.9291992 C103.513186,56.9291992 103.807128,57.2231416 103.984863,57.8110352 C104.066895,58.1049819 104.145507,58.3271477 104.220703,58.4775391 C104.459962,58.9560571 104.837644,59.325194 105.35376,59.5849609 C105.869876,59.8447279 106.486813,59.9746094 107.20459,59.9746094 C108.08643,59.9746094 108.802487,59.7661154 109.352783,59.3491211 C109.903079,58.9321268 110.178223,58.398929 110.178223,57.7495117 C110.178223,57.20947 110.009035,56.7753923 109.670654,56.4472656 C109.332274,56.119139 108.838382,55.907227 108.188965,55.8115234 L106.671387,55.6064453 C105.256341,55.4082021 104.224124,55.0356473 103.574707,54.4887695 C102.92529,53.9418918 102.600586,53.1728565 102.600586,52.1816406 C102.600586,51.135737 103.032955,50.2573278 103.897705,49.5463867 C104.762455,48.8354457 105.840814,48.4799805 107.132812,48.4799805 C107.508791,48.4799805 107.905271,48.5295405 108.322266,48.6286621 C108.73926,48.7277837 109.210935,48.8832997 109.737305,49.0952148 C109.750977,48.8969717 109.805664,48.7602543 109.901367,48.6850586 C109.997071,48.6098629 110.161132,48.5722656 110.393555,48.5722656 C110.694337,48.5722656 110.902831,48.6166988 111.019043,48.7055664 C111.135254,48.794434 111.207031,49.006346 111.234375,49.3413086 L111.37793,51.484375 L111.37793,51.5869141 C111.37793,51.8261731 111.309571,52.0124505 111.172852,52.145752 C111.036132,52.2790534 110.844728,52.3457031 110.598633,52.3457031 C110.236326,52.3457031 109.956056,52.092776 109.757812,51.5869141 C109.662109,51.2998033 109.566407,51.0844734 109.470703,50.940918 C109.245116,50.5991194 108.920412,50.3359384 108.496582,50.1513672 C108.072752,49.966796 107.590823,49.8745117 107.050781,49.8745117 C106.223629,49.8745117 105.552005,50.0795878 105.035889,50.4897461 C104.519773,50.8999044 104.261719,51.4365201 104.261719,52.0996094 C104.261719,52.6191432 104.454832,53.0292954 104.841064,53.3300781 C105.227297,53.6308609 105.816891,53.835937 106.609863,53.9453125 L108.250488,54.1503906 C109.439947,54.307618 110.335446,54.671628 110.937012,55.2424316 C111.538577,55.8132353 111.839355,56.5839795 111.839355,57.5546875 C111.839355,58.7031307 111.412114,59.6242641 110.557617,60.3181152 C109.703121,61.0119664 108.561531,61.3588867 107.132812,61.3588867 C106.640623,61.3588867 106.151858,61.3007818 105.666504,61.1845703 C105.18115,61.0683588 104.665042,60.8872083 104.118164,60.6411133 Z M135.474609,59.5336914 C135.754884,59.5336914 135.968505,59.5952142 136.115479,59.7182617 C136.262452,59.8413092 136.335938,60.0224597 136.335938,60.2617188 C136.335938,60.5078137 136.26587,60.6923822 136.125732,60.8154297 C135.985595,60.9384772 135.782228,61 135.515625,61 L128.80957,61 C128.529295,61 128.315675,60.9384772 128.168701,60.8154297 C128.021728,60.6923822 127.948242,60.5078137 127.948242,60.2617188 C127.948242,60.0224597 128.01831,59.8413092 128.158447,59.7182617 C128.298585,59.5952142 128.501952,59.5336914 128.768555,59.5336914 L130.511719,59.5336914 L130.511719,53.2685547 L128.830078,53.2685547 C128.549803,53.2685547 128.332764,53.2036139 128.178955,53.0737305 C128.025146,52.943847 127.948242,52.7592785 127.948242,52.5200195 C127.948242,52.2739246 128.020019,52.0893561 128.163574,51.9663086 C128.30713,51.8432611 128.515624,51.7817383 128.789063,51.7817383 L130.40918,51.7817383 L130.40918,51.0844727 C130.40918,49.8471618 130.761227,48.949954 131.465332,48.3928223 C132.169437,47.8356906 133.307609,47.5571289 134.879883,47.5571289 C135.645512,47.5571289 136.21118,47.6425773 136.576904,47.8134766 C136.942629,47.9843759 137.125488,48.2509748 137.125488,48.6132812 C137.125488,48.8251964 137.046876,48.999511 136.889648,49.1362305 C136.732421,49.2729499 136.530763,49.3413086 136.284668,49.3413086 C136.16162,49.3413086 135.865969,49.3002934 135.397705,49.2182617 C134.929441,49.1362301 134.527834,49.0952148 134.192871,49.0952148 C133.420406,49.0952148 132.866701,49.2575667 132.531738,49.5822754 C132.196776,49.906984 132.029297,50.4453087 132.029297,51.1972656 L132.029297,51.7817383 L135.65918,51.7817383 C135.939455,51.7817383 136.153075,51.8432611 136.300049,51.9663086 C136.447022,52.0893561 136.520508,52.2739246 136.520508,52.5200195 C136.520508,52.7524426 136.445313,52.9353021 136.294922,53.0686035 C136.14453,53.201905 135.939454,53.2685547 135.679688,53.2685547 L132.131836,53.2685547 L132.131836,59.5336914 L135.474609,59.5336914 Z M144.918457,59.8208008 C145.971197,59.8208008 146.834225,59.4875522 147.507568,58.8210449 C148.180912,58.1545377 148.517578,57.3051809 148.517578,56.2729492 C148.517578,55.2407175 148.179203,54.3879428 147.502441,53.7145996 C146.82568,53.0412564 145.964361,52.7045898 144.918457,52.7045898 C143.872553,52.7045898 143.012943,53.0412564 142.3396,53.7145996 C141.666256,54.3879428 141.32959,55.2407175 141.32959,56.2729492 C141.32959,57.3120169 141.664547,58.1630826 142.334473,58.8261719 C143.004398,59.4892611 143.865717,59.8208008 144.918457,59.8208008 Z M150.301758,56.2729492 C150.301758,57.7358472 149.802739,58.9321243 148.804688,59.8618164 C147.806636,60.7915086 146.511238,61.2563477 144.918457,61.2563477 C143.332512,61.2563477 142.040532,60.7915086 141.04248,59.8618164 C140.044429,58.9321243 139.54541,57.7358472 139.54541,56.2729492 C139.54541,54.8100513 140.044429,53.6154831 141.04248,52.689209 C142.040532,51.7629348 143.332512,51.2998047 144.918457,51.2998047 C146.504402,51.2998047 147.798091,51.7646438 148.799561,52.6943359 C149.80103,53.6240281 150.301758,54.8168873 150.301758,56.2729492 Z M156.515625,59.5541992 L159.919922,59.5541992 C160.186525,59.5541992 160.383056,59.6105951 160.509521,59.7233887 C160.635987,59.8361822 160.699219,60.0156238 160.699219,60.2617188 C160.699219,60.5419936 160.639405,60.7351069 160.519775,60.8410645 C160.400146,60.947022 160.179689,61 159.858398,61 L153.152344,61 C152.885741,61 152.684083,60.9384772 152.547363,60.8154297 C152.410644,60.6923822 152.342285,60.5078137 152.342285,60.2617188 C152.342285,60.0224597 152.412353,59.8447271 152.55249,59.7285156 C152.692628,59.6123041 152.909666,59.5541992 153.203613,59.5541992 L154.987793,59.5541992 L154.987793,52.9814453 L154.290527,52.9814453 C153.627438,52.9814453 153.213868,52.9284673 153.049805,52.8225098 C152.885741,52.7165522 152.803711,52.5234389 152.803711,52.2431641 C152.803711,52.0039051 152.870361,51.8244635 153.003662,51.704834 C153.136964,51.5852045 153.340331,51.5253906 153.61377,51.5253906 L155.95166,51.5253906 C156.136231,51.5253906 156.276367,51.5612789 156.37207,51.6330566 C156.467774,51.7048343 156.515625,51.8090813 156.515625,51.9458008 L156.515625,53.6889648 C157.165042,52.8754842 157.841793,52.2705098 158.545898,51.8740234 C159.250004,51.4775371 160.008785,51.2792969 160.822266,51.2792969 C161.430667,51.2792969 161.92285,51.4023425 162.298828,51.6484375 C162.674807,51.8945325 162.862793,52.2124004 162.862793,52.6020508 C162.862793,52.8549817 162.7688,53.0788564 162.580811,53.2736816 C162.392821,53.4685068 162.186036,53.565918 161.960449,53.565918 C161.803222,53.565918 161.538332,53.461671 161.165771,53.2531738 C160.793211,53.0446767 160.459962,52.9404297 160.166016,52.9404297 C159.63281,52.9404297 159.07056,53.1301251 158.479248,53.5095215 C157.887936,53.8889179 157.233402,54.4887654 156.515625,55.309082 L156.515625,59.5541992 Z M185.811035,52.140625 L185.811035,52.0996094 C185.811035,51.8740223 185.875976,51.7082525 186.005859,51.6022949 C186.135743,51.4963374 186.337401,51.4433594 186.61084,51.4433594 C186.891115,51.4433594 187.084228,51.5253898 187.190186,51.6894531 C187.296143,51.8535164 187.349121,52.191892 187.349121,52.7045898 L187.349121,54.6118164 C187.349121,54.8647474 187.28418,55.0544427 187.154297,55.1809082 C187.024413,55.3073737 186.829591,55.3706055 186.569824,55.3706055 C186.385253,55.3706055 186.226319,55.3176275 186.093018,55.2116699 C185.959716,55.1057124 185.797364,54.8852556 185.605957,54.550293 C185.27783,53.9965793 184.879641,53.5778823 184.411377,53.2941895 C183.943113,53.0104966 183.404788,52.8686523 182.796387,52.8686523 C181.729975,52.8686523 180.863529,53.1831023 180.197021,53.8120117 C179.530514,54.4409211 179.197266,55.2543895 179.197266,56.2524414 C179.197266,57.2710012 179.516843,58.1032683 180.156006,58.7492676 C180.795169,59.3952669 181.617182,59.7182617 182.62207,59.7182617 C183.08008,59.7182617 183.515867,59.6550299 183.929443,59.5285645 C184.34302,59.402099 184.734373,59.2124036 185.103516,58.9594727 C185.233399,58.877441 185.407714,58.7509774 185.626465,58.5800781 C186.070803,58.2177716 186.419432,58.0366211 186.672363,58.0366211 C186.884278,58.0366211 187.056884,58.1032708 187.190186,58.2365723 C187.323487,58.3698737 187.390137,58.5424794 187.390137,58.7543945 C187.390137,59.2944363 186.879156,59.8464327 185.857178,60.4104004 C184.8352,60.9743681 183.750006,61.2563477 182.601562,61.2563477 C181.118157,61.2563477 179.882573,60.7812548 178.894775,59.8310547 C177.906977,58.8808546 177.413086,57.6948313 177.413086,56.2729492 C177.413086,54.8510671 177.905269,53.6633348 178.889648,52.7097168 C179.874028,51.7560987 181.104485,51.2792969 182.581055,51.2792969 C183.100589,51.2792969 183.621824,51.3493645 184.144775,51.489502 C184.667727,51.6296394 185.223142,51.8466782 185.811035,52.140625 Z M195.32666,59.8208008 C196.3794,59.8208008 197.242428,59.4875522 197.915771,58.8210449 C198.589115,58.1545377 198.925781,57.3051809 198.925781,56.2729492 C198.925781,55.2407175 198.587406,54.3879428 197.910645,53.7145996 C197.233883,53.0412564 196.372564,52.7045898 195.32666,52.7045898 C194.280756,52.7045898 193.421146,53.0412564 192.747803,53.7145996 C192.07446,54.3879428 191.737793,55.2407175 191.737793,56.2729492 C191.737793,57.3120169 192.072751,58.1630826 192.742676,58.8261719 C193.412601,59.4892611 194.273921,59.8208008 195.32666,59.8208008 Z M200.709961,56.2729492 C200.709961,57.7358472 200.210942,58.9321243 199.212891,59.8618164 C198.214839,60.7915086 196.919442,61.2563477 195.32666,61.2563477 C193.740715,61.2563477 192.448735,60.7915086 191.450684,59.8618164 C190.452632,58.9321243 189.953613,57.7358472 189.953613,56.2729492 C189.953613,54.8100513 190.452632,53.6154831 191.450684,52.689209 C192.448735,51.7629348 193.740715,51.2998047 195.32666,51.2998047 C196.912606,51.2998047 198.206294,51.7646438 199.207764,52.6943359 C200.209234,53.6240281 200.709961,54.8168873 200.709961,56.2729492 Z M211.73291,55.2885742 C211.73291,54.3247022 211.645753,53.6735857 211.471436,53.3352051 C211.297118,52.9968245 210.998049,52.8276367 210.574219,52.8276367 C210.068357,52.8276367 209.66675,53.0463845 209.369385,53.4838867 C209.07202,53.9213889 208.92334,54.5229454 208.92334,55.2885742 L208.92334,59.5541992 L209.10791,59.5541992 C209.524904,59.5541992 209.803466,59.6037593 209.943604,59.7028809 C210.083741,59.8020024 210.153809,59.9882799 210.153809,60.2617188 C210.153809,60.5078137 210.095704,60.6923822 209.979492,60.8154297 C209.863281,60.9384772 209.685548,61 209.446289,61 L208.144043,61 C207.850096,61 207.650147,60.9316413 207.544189,60.7949219 C207.438232,60.6582024 207.385254,60.3642601 207.385254,59.9130859 L207.385254,54.4887695 C207.385254,53.9760717 207.269044,53.5710464 207.036621,53.2736816 C206.804198,52.9763169 206.48633,52.8276367 206.083008,52.8276367 C205.775389,52.8276367 205.493409,52.918212 205.237061,53.0993652 C204.980712,53.2805185 204.760255,53.5488263 204.575684,53.9042969 L204.575684,59.5541992 L204.955078,59.5541992 C205.365236,59.5541992 205.642089,59.6054682 205.785645,59.7080078 C205.9292,59.8105474 206.000977,59.9951159 206.000977,60.2617188 C206.000977,60.5419936 205.942872,60.7351069 205.82666,60.8410645 C205.710449,60.947022 205.488283,61 205.160156,61 L202.432617,61 C202.166014,61 201.969483,60.9401861 201.843018,60.8205566 C201.716552,60.7009271 201.65332,60.5146497 201.65332,60.2617188 C201.65332,59.9882799 201.733642,59.8020024 201.894287,59.7028809 C202.054932,59.6037593 202.367673,59.5541992 202.83252,59.5541992 L203.037598,59.5541992 L203.037598,52.9814453 L202.853027,52.9814453 C202.374509,52.9814453 202.048097,52.9267584 201.873779,52.8173828 C201.699462,52.7080073 201.612305,52.5166029 201.612305,52.2431641 C201.612305,52.0039051 201.680663,51.8244635 201.817383,51.704834 C201.954102,51.5852045 202.159178,51.5253906 202.432617,51.5253906 L204.001465,51.5253906 C204.227052,51.5253906 204.375732,51.5646969 204.44751,51.6433105 C204.519287,51.7219242 204.562012,51.887694 204.575684,52.140625 C204.855958,51.8398422 205.156737,51.6176765 205.478027,51.4741211 C205.799318,51.3305657 206.161619,51.2587891 206.564941,51.2587891 C207.043459,51.2587891 207.438231,51.3630361 207.749268,51.5715332 C208.060304,51.7800303 208.291015,52.0961893 208.441406,52.5200195 C208.728517,52.0893533 209.060057,51.7714854 209.436035,51.5664062 C209.812014,51.3613271 210.242673,51.2587891 210.728027,51.2587891 C211.609868,51.2587891 212.254148,51.5458956 212.660889,52.1201172 C213.067629,52.6943388 213.270996,53.624017 213.270996,54.9091797 L213.270996,59.5541992 L213.435059,59.5541992 C213.858889,59.5541992 214.142577,59.6054682 214.286133,59.7080078 C214.429688,59.8105474 214.501465,59.9951159 214.501465,60.2617188 C214.501465,60.5078137 214.439942,60.6923822 214.316895,60.8154297 C214.193847,60.9384772 214.012697,61 213.773438,61 L212.532715,61 C212.259276,61 212.057618,60.9179696 211.927734,60.7539062 C211.797851,60.5898429 211.73291,60.3300799 211.73291,59.9746094 L211.73291,55.2885742 Z M217.885254,63.625 L220.346191,63.625 C220.605958,63.625 220.800781,63.6865228 220.930664,63.8095703 C221.060548,63.9326178 221.125488,64.1171863 221.125488,64.3632812 C221.125488,64.6298841 221.062256,64.8178705 220.935791,64.9272461 C220.809326,65.0366216 220.585451,65.0913086 220.26416,65.0913086 L215.742188,65.0913086 C215.468749,65.0913086 215.261964,65.0297858 215.121826,64.9067383 C214.981689,64.7836908 214.911621,64.6025403 214.911621,64.3632812 C214.911621,64.0898424 214.998778,63.898438 215.173096,63.7890625 C215.347413,63.679687 215.670408,63.625 216.14209,63.625 L216.336914,63.625 L216.336914,52.9814453 L216.14209,52.9814453 C215.670408,52.9814453 215.347413,52.9267584 215.173096,52.8173828 C214.998778,52.7080073 214.911621,52.5166029 214.911621,52.2431641 C214.911621,52.0039051 214.981689,51.8244635 215.121826,51.704834 C215.261964,51.5852045 215.468749,51.5253906 215.742188,51.5253906 L217.300781,51.5253906 C217.50586,51.5253906 217.654541,51.55957 217.746826,51.6279297 C217.839112,51.6962894 217.885254,51.8022454 217.885254,51.9458008 L217.885254,52.9404297 C218.3501,52.4619117 218.864499,52.1030285 219.428467,51.8637695 C219.992434,51.6245105 220.599118,51.5048828 221.248535,51.5048828 C222.622565,51.5048828 223.770991,51.9697219 224.693848,52.8994141 C225.616704,53.8291062 226.078125,54.9946219 226.078125,56.3959961 C226.078125,57.7426825 225.640629,58.8500933 224.765625,59.7182617 C223.890621,60.5864301 222.772956,61.0205078 221.412598,61.0205078 C220.687985,61.0205078 220.021487,60.8923353 219.413086,60.6359863 C218.804684,60.3796374 218.295412,60.0122094 217.885254,59.5336914 L217.885254,63.625 Z M221.063965,59.5131836 C222.014165,59.5131836 222.793454,59.2141143 223.401855,58.6159668 C224.010257,58.0178193 224.314453,57.2436571 224.314453,56.293457 C224.314453,55.3637649 224.008548,54.5964386 223.396729,53.9914551 C222.784909,53.3864716 222.007329,53.0839844 221.063965,53.0839844 C220.120601,53.0839844 219.348148,53.3847626 218.746582,53.9863281 C218.145017,54.5878936 217.844238,55.3569289 217.844238,56.293457 C217.844238,57.2368211 218.143308,58.0092743 218.741455,58.6108398 C219.339603,59.2124054 220.113765,59.5131836 221.063965,59.5131836 Z M233.132813,59.8208008 C234.185552,59.8208008 235.048581,59.4875522 235.721924,58.8210449 C236.395267,58.1545377 236.731934,57.3051809 236.731934,56.2729492 C236.731934,55.2407175 236.393558,54.3879428 235.716797,53.7145996 C235.040036,53.0412564 234.178716,52.7045898 233.132813,52.7045898 C232.086909,52.7045898 231.227298,53.0412564 230.553955,53.7145996 C229.880612,54.3879428 229.543945,55.2407175 229.543945,56.2729492 C229.543945,57.3120169 229.878903,58.1630826 230.548828,58.8261719 C231.218753,59.4892611 232.080073,59.8208008 233.132813,59.8208008 Z M238.516113,56.2729492 C238.516113,57.7358472 238.017095,58.9321243 237.019043,59.8618164 C236.020991,60.7915086 234.725594,61.2563477 233.132813,61.2563477 C231.546867,61.2563477 230.254888,60.7915086 229.256836,59.8618164 C228.258784,58.9321243 227.759766,57.7358472 227.759766,56.2729492 C227.759766,54.8100513 228.258784,53.6154831 229.256836,52.689209 C230.254888,51.7629348 231.546867,51.2998047 233.132813,51.2998047 C234.718758,51.2998047 236.012446,51.7646438 237.013916,52.6943359 C238.015386,53.6240281 238.516113,54.8168873 238.516113,56.2729492 Z M241.92041,59.5541992 L241.92041,52.9814453 L241.725586,52.9814453 C241.26074,52.9814453 240.941163,52.9267584 240.766846,52.8173828 C240.592528,52.7080073 240.505371,52.5166029 240.505371,52.2431641 C240.505371,51.9902331 240.577148,51.8073736 240.720703,51.6945801 C240.864259,51.5817865 241.096678,51.5253906 241.417969,51.5253906 L242.884277,51.5253906 C243.068849,51.5253906 243.212402,51.5629879 243.314941,51.6381836 C243.417481,51.7133793 243.46875,51.8159173 243.46875,51.9458008 L243.46875,52.6430664 C243.967776,52.1782203 244.461667,51.8347179 244.950439,51.6125488 C245.439211,51.3903797 245.946775,51.2792969 246.473145,51.2792969 C247.505376,51.2792969 248.317136,51.6005827 248.908447,52.2431641 C249.499759,52.8857454 249.79541,53.7744084 249.79541,54.9091797 L249.79541,59.5541992 L250.277344,59.5541992 C250.619142,59.5541992 250.865234,59.6105951 251.015625,59.7233887 C251.166016,59.8361822 251.241211,60.0156238 251.241211,60.2617188 C251.241211,60.5283216 251.160889,60.718017 251.000244,60.8308105 C250.839599,60.9436041 250.554201,61 250.144043,61 L247.87793,61 C247.440428,61 247.160157,60.948731 247.037109,60.8461914 C246.914062,60.7436518 246.852539,60.5488296 246.852539,60.2617188 C246.852539,59.9951159 246.924316,59.8105474 247.067871,59.7080078 C247.211426,59.6054682 247.481443,59.5541992 247.87793,59.5541992 L248.236816,59.5541992 L248.236816,55.2885742 C248.236816,54.4887655 248.055666,53.8786642 247.693359,53.458252 C247.331053,53.0378397 246.804691,52.8276367 246.114258,52.8276367 C245.416989,52.8276367 244.80176,53.0634742 244.268555,53.5351562 C243.735349,54.0068383 243.46875,54.5913051 243.46875,55.2885742 L243.46875,59.5541992 L243.827637,59.5541992 C244.237795,59.5541992 244.514648,59.6054682 244.658203,59.7080078 C244.801759,59.8105474 244.873535,59.9951159 244.873535,60.2617188 C244.873535,60.5488296 244.812012,60.7436518 244.688965,60.8461914 C244.565917,60.948731 244.265139,61 243.786621,61 L241.366699,61 C241.086424,61 240.876221,60.9401861 240.736084,60.8205566 C240.595947,60.7009271 240.525879,60.5146497 240.525879,60.2617188 C240.525879,59.9882799 240.6062,59.8020024 240.766846,59.7028809 C240.927491,59.6037593 241.240232,59.5541992 241.705078,59.5541992 L241.92041,59.5541992 Z M254.871094,56.7138672 C254.925782,57.6982471 255.25903,58.4587376 255.87085,58.9953613 C256.482669,59.5319851 257.318354,59.800293 258.37793,59.800293 C259.177738,59.800293 260.049312,59.5866721 260.992676,59.1594238 C261.93604,58.7321756 262.506835,58.5185547 262.705078,58.5185547 C262.910157,58.5185547 263.081054,58.5834954 263.217773,58.7133789 C263.354493,58.8432624 263.422852,59.0039053 263.422852,59.1953125 C263.422852,59.3935557 263.351075,59.5747062 263.20752,59.7387695 C263.063964,59.9028329 262.834963,60.0634758 262.520508,60.2207031 C261.836911,60.5556657 261.131107,60.8120108 260.403076,60.9897461 C259.675045,61.1674814 258.952152,61.2563477 258.234375,61.2563477 C256.675773,61.2563477 255.428227,60.8068893 254.491699,59.907959 C253.555171,59.0090287 253.086914,57.8178785 253.086914,56.3344727 C253.086914,54.8237229 253.582515,53.6001023 254.57373,52.6635742 C255.564946,51.7270461 256.856926,51.2587891 258.449707,51.2587891 C259.892097,51.2587891 261.088374,51.6962847 262.038574,52.5712891 C262.988774,53.4462934 263.463867,54.5058532 263.463867,55.75 C263.463867,56.1328144 263.383546,56.3891595 263.2229,56.519043 C263.062255,56.6489264 262.626468,56.7138672 261.915527,56.7138672 L254.871094,56.7138672 Z M254.922363,55.3706055 L261.597656,55.3706055 C261.495117,54.5571248 261.155032,53.9025904 260.577393,53.4069824 C259.999753,52.9113745 259.290532,52.6635742 258.449707,52.6635742 C257.540523,52.6635742 256.774905,52.9028296 256.152832,53.3813477 C255.530759,53.8598657 255.120606,54.522945 254.922363,55.3706055 Z M267.124512,59.5541992 L267.124512,52.9814453 L266.929688,52.9814453 C266.464841,52.9814453 266.145265,52.9267584 265.970947,52.8173828 C265.79663,52.7080073 265.709473,52.5166029 265.709473,52.2431641 C265.709473,51.9902331 265.781249,51.8073736 265.924805,51.6945801 C266.06836,51.5817865 266.30078,51.5253906 266.62207,51.5253906 L268.088379,51.5253906 C268.27295,51.5253906 268.416503,51.5629879 268.519043,51.6381836 C268.621583,51.7133793 268.672852,51.8159173 268.672852,51.9458008 L268.672852,52.6430664 C269.171877,52.1782203 269.665769,51.8347179 270.154541,51.6125488 C270.643313,51.3903797 271.150876,51.2792969 271.677246,51.2792969 C272.709478,51.2792969 273.521237,51.6005827 274.112549,52.2431641 C274.70386,52.8857454 274.999512,53.7744084 274.999512,54.9091797 L274.999512,59.5541992 L275.481445,59.5541992 C275.823244,59.5541992 276.069335,59.6105951 276.219727,59.7233887 C276.370118,59.8361822 276.445312,60.0156238 276.445312,60.2617188 C276.445312,60.5283216 276.364991,60.718017 276.204346,60.8308105 C276.0437,60.9436041 275.758303,61 275.348145,61 L273.082031,61 C272.644529,61 272.364258,60.948731 272.241211,60.8461914 C272.118163,60.7436518 272.056641,60.5488296 272.056641,60.2617188 C272.056641,59.9951159 272.128417,59.8105474 272.271973,59.7080078 C272.415528,59.6054682 272.685545,59.5541992 273.082031,59.5541992 L273.440918,59.5541992 L273.440918,55.2885742 C273.440918,54.4887655 273.259767,53.8786642 272.897461,53.458252 C272.535154,53.0378397 272.008793,52.8276367 271.318359,52.8276367 C270.62109,52.8276367 270.005862,53.0634742 269.472656,53.5351562 C268.93945,54.0068383 268.672852,54.5913051 268.672852,55.2885742 L268.672852,59.5541992 L269.031738,59.5541992 C269.441897,59.5541992 269.718749,59.6054682 269.862305,59.7080078 C270.00586,59.8105474 270.077637,59.9951159 270.077637,60.2617188 C270.077637,60.5488296 270.016114,60.7436518 269.893066,60.8461914 C269.770019,60.948731 269.469241,61 268.990723,61 L266.570801,61 C266.290526,61 266.080323,60.9401861 265.940186,60.8205566 C265.800048,60.7009271 265.72998,60.5146497 265.72998,60.2617188 C265.72998,59.9882799 265.810302,59.8020024 265.970947,59.7028809 C266.131593,59.6037593 266.444334,59.5541992 266.90918,59.5541992 L267.124512,59.5541992 Z M286.340332,52.0996094 C286.675295,52.0996094 286.919677,52.1577143 287.073486,52.2739258 C287.227296,52.3901373 287.304199,52.5747058 287.304199,52.8276367 C287.304199,53.0668957 287.232423,53.2463373 287.088867,53.3659668 C286.945312,53.4855963 286.729982,53.5454102 286.442871,53.5454102 L282.290039,53.5454102 L282.290039,56.9702148 C282.290039,58.0913142 282.435301,58.8295881 282.72583,59.1850586 C283.016359,59.5405291 283.513668,59.7182617 284.217773,59.7182617 C284.839847,59.7182617 285.584957,59.5371112 286.453125,59.1748047 C287.321293,58.8124982 287.857909,58.6313477 288.062988,58.6313477 C288.254395,58.6313477 288.416747,58.6997063 288.550049,58.8364258 C288.68335,58.9731452 288.75,59.140624 288.75,59.3388672 C288.75,59.5644543 288.666261,59.7609855 288.498779,59.9284668 C288.331298,60.0959481 288.0459,60.2583 287.642578,60.4155273 C286.972653,60.6821302 286.369387,60.8769525 285.832764,61 C285.29614,61.1230475 284.791995,61.1845703 284.320312,61.1845703 C283.520504,61.1845703 282.84888,61.0563978 282.30542,60.8000488 C281.76196,60.5436999 281.356935,60.1626002 281.090332,59.6567383 C280.953613,59.4174793 280.856201,59.1337907 280.798096,58.8056641 C280.73999,58.4775374 280.710938,57.9716831 280.710938,57.2880859 L280.710938,53.5454102 L278.967773,53.5454102 C278.680663,53.5454102 278.472169,53.4890142 278.342285,53.3762207 C278.212402,53.2634272 278.147461,53.0805677 278.147461,52.8276367 C278.147461,52.5473619 278.236327,52.3559575 278.414062,52.253418 C278.591798,52.1508784 278.971189,52.0996094 279.552246,52.0996094 L280.710938,52.0996094 L280.710938,49.4541016 C280.710938,49.1601548 280.774169,48.9431159 280.900635,48.8029785 C281.0271,48.6628411 281.223631,48.5927734 281.490234,48.5927734 C281.791017,48.5927734 281.999511,48.6782218 282.115723,48.8491211 C282.231934,49.0200204 282.290039,49.4096649 282.290039,50.0180664 L282.290039,52.0996094 L286.340332,52.0996094 Z M291.672363,60.2617188 L291.672363,58.4365234 C291.672363,58.1357407 291.728759,57.9204108 291.841553,57.7905273 C291.954346,57.6606439 292.137206,57.5957031 292.390137,57.5957031 C292.670412,57.5957031 292.892577,57.7871075 293.056641,58.1699219 C293.166016,58.4023449 293.265136,58.5766596 293.354004,58.6928711 C293.641115,59.0620136 294.064939,59.3576649 294.625488,59.579834 C295.186038,59.8020031 295.804684,59.9130859 296.481445,59.9130859 C297.206058,59.9130859 297.787107,59.7661148 298.224609,59.472168 C298.662112,59.1782212 298.880859,58.7919946 298.880859,58.3134766 C298.880859,57.8281226 298.704836,57.4829112 298.352783,57.277832 C298.000731,57.0727529 297.397465,56.9702148 296.542969,56.9702148 L295.979004,56.9702148 C294.584466,56.9702148 293.521488,56.7275415 292.790039,56.2421875 C292.05859,55.7568335 291.692871,55.052739 291.692871,54.1298828 C291.692871,53.2275346 292.050045,52.526858 292.764404,52.027832 C293.478763,51.5288061 294.481927,51.2792969 295.773926,51.2792969 C296.300296,51.2792969 296.836911,51.3527825 297.383789,51.4997559 C297.930667,51.6467293 298.217773,51.7202148 298.245117,51.7202148 C298.320313,51.7202148 298.463866,51.6535651 298.675781,51.5202637 C298.887696,51.3869622 299.09619,51.3203125 299.30127,51.3203125 C299.533693,51.3203125 299.706298,51.4057609 299.819092,51.5766602 C299.931885,51.7475594 299.988281,52.0039045 299.988281,52.3457031 L299.988281,53.5454102 C299.988281,53.9077167 299.933594,54.1691886 299.824219,54.329834 C299.714843,54.4904793 299.540529,54.5708008 299.30127,54.5708008 C299.09619,54.5708008 298.843263,54.3964861 298.54248,54.0478516 C298.330565,53.8085926 298.156251,53.627442 298.019531,53.5043945 C297.657225,53.1694319 297.270998,52.9284675 296.86084,52.7814941 C296.450682,52.6345207 295.968753,52.5610352 295.415039,52.5610352 C294.772458,52.5610352 294.254641,52.7028794 293.861572,52.9865723 C293.468504,53.2702651 293.271973,53.6308572 293.271973,54.0683594 C293.271973,54.4990256 293.473631,54.8066397 293.876953,54.9912109 C294.280275,55.1757822 295.148431,55.2817381 296.481445,55.309082 C297.903327,55.3432619 298.94238,55.5910621 299.598633,56.0524902 C300.254886,56.5139183 300.583008,57.2265577 300.583008,58.1904297 C300.583008,59.1132859 300.220707,59.8515597 299.496094,60.4052734 C298.771481,60.9589871 297.793951,61.2358398 296.563477,61.2358398 C296.173826,61.2358398 295.739748,61.1999515 295.26123,61.1281738 C294.782712,61.0563961 294.181156,60.9350594 293.456543,60.7641602 C293.217284,60.9213875 293.012208,61.0393062 292.841309,61.1179199 C292.670409,61.1965336 292.526856,61.2358398 292.410645,61.2358398 C292.171386,61.2358398 291.988526,61.1521004 291.862061,60.9846191 C291.735595,60.8171378 291.672363,60.5761734 291.672363,60.2617188 Z M321.941895,52.2021484 L324.648926,51.043457 L324.79248,51.0024414 C324.840332,50.9887695 324.87793,50.9819336 324.905273,50.9819336 C324.959961,50.9819336 325.006103,51.0075681 325.043701,51.0588379 C325.081299,51.1101077 325.124023,51.2041009 325.171875,51.3408203 L325.428223,52.1201172 C325.448731,52.2021488 325.464111,52.2687986 325.474365,52.3200684 C325.484619,52.3713381 325.489746,52.4072265 325.489746,52.4277344 C325.489746,52.4824221 325.462403,52.5302732 325.407715,52.5712891 C325.353027,52.6123049 325.274415,52.6430663 325.171875,52.6635742 L322.300781,53.3095703 L324.228516,55.5449219 C324.276367,55.5859377 324.312256,55.6320798 324.336182,55.6833496 C324.360108,55.7346194 324.37207,55.7841794 324.37207,55.8320312 C324.37207,55.8662111 324.349854,55.9089353 324.30542,55.9602051 C324.260986,56.0114749 324.201172,56.0678708 324.125977,56.1293945 L323.449219,56.6113281 C323.367187,56.6728519 323.302246,56.7155761 323.254395,56.739502 C323.206543,56.7634279 323.165528,56.7753906 323.131348,56.7753906 C323.090332,56.7753906 323.045899,56.754883 322.998047,56.7138672 C322.950195,56.6728514 322.905762,56.6181644 322.864746,56.5498047 L321.347168,54.0068359 L319.839844,56.5498047 C319.791992,56.6250004 319.742432,56.6813963 319.691162,56.7189941 C319.639892,56.756592 319.590332,56.7753906 319.54248,56.7753906 C319.515137,56.7753906 319.474121,56.7617189 319.419434,56.734375 C319.364746,56.7070311 319.303223,56.6660159 319.234863,56.6113281 L318.578613,56.1293945 C318.489746,56.0678708 318.421387,56.0114749 318.373535,55.9602051 C318.325683,55.9089353 318.301758,55.8593752 318.301758,55.8115234 C318.301758,55.7773436 318.31543,55.7346194 318.342773,55.6833496 C318.370117,55.6320798 318.407715,55.5859377 318.455566,55.5449219 L320.383301,53.3095703 L317.532715,52.6635742 C317.423339,52.6430663 317.3396,52.6105959 317.281494,52.5661621 C317.223388,52.5217283 317.194336,52.4687503 317.194336,52.4072266 C317.194336,52.3935546 317.206299,52.3508304 317.230225,52.2790527 C317.254151,52.207275 317.269531,52.154297 317.276367,52.1201172 L317.532715,51.3408203 C317.573731,51.2041009 317.614746,51.1101077 317.655762,51.0588379 C317.696778,51.0075681 317.744629,50.9819336 317.799316,50.9819336 C317.854004,50.9819336 317.901855,50.9853515 317.942871,50.9921875 C317.983887,50.9990235 318.021484,51.0092773 318.055664,51.0229492 L320.762695,52.2021484 L320.48584,49.2592773 L320.48584,49.1362305 C320.48584,49.020019 320.516601,48.9414065 320.578125,48.9003906 C320.639649,48.8593748 320.762694,48.8388672 320.947266,48.8388672 L321.74707,48.8388672 C321.938478,48.8388672 322.063232,48.8593748 322.121338,48.9003906 C322.179444,48.9414065 322.208496,49.020019 322.208496,49.1362305 L322.208496,49.2592773 L321.941895,52.2021484 Z M331.64209,61.2768555 C331.491698,61.6186541 331.349854,61.8510736 331.216553,61.9741211 C331.083251,62.0971686 330.924317,62.1586914 330.739746,62.1586914 C330.548339,62.1586914 330.38086,62.0886237 330.237305,61.9484863 C330.093749,61.8083489 330.021973,61.6391611 330.021973,61.440918 C330.021973,61.3862302 330.032226,61.3229984 330.052734,61.2512207 C330.073242,61.179443 330.100586,61.1025395 330.134766,61.0205078 L336.533203,47.2290039 C336.704102,46.8735334 336.854492,46.632569 336.984375,46.5061035 C337.114258,46.379638 337.271483,46.3164062 337.456055,46.3164062 C337.661134,46.3164062 337.835449,46.3847649 337.979004,46.5214844 C338.122559,46.6582038 338.194336,46.8222647 338.194336,47.0136719 C338.194336,47.0683596 338.185791,47.1298825 338.168701,47.1982422 C338.151611,47.2666019 338.125977,47.3315427 338.091797,47.3930664 L331.64209,61.2768555 Z" id="/*-is-CSS-for-compon" fill="#7A92A5"></path>
                        </g>
                    </g>
                </g>
            </g>
        </g>
    </g>
</svg>