<?xml version="1.0" encoding="UTF-8"?>
<svg width="213px" height="147px" viewBox="0 0 213 147" version="1.1" xmlns="http://www.w3.org/2000/svg" xmlns:xlink="http://www.w3.org/1999/xlink">
    <!-- Generator: Sketch 46.2 (44496) - http://www.bohemiancoding.com/sketch -->
    <title>96-logo-vertical-singleLine</title>
    <desc>Created with Sketch.</desc>
    <defs>
        <linearGradient x1="66.5482535%" y1="-4.69211158%" x2="80.2718164%" y2="111.186421%" id="linearGradient-1">
            <stop stop-color="#7AD852" offset="0%"></stop>
            <stop stop-color="#3AB38B" offset="53.5842857%"></stop>
            <stop stop-color="#00BFC9" offset="100%"></stop>
        </linearGradient>
        <linearGradient x1="78.0937359%" y1="0.737604065%" x2="20.393625%" y2="118.621864%" id="linearGradient-2">
            <stop stop-color="#FF2953" offset="0%"></stop>
            <stop stop-color="#EA3333" offset="100%"></stop>
        </linearGradient>
    </defs>
    <g id="Page-1" stroke="none" stroke-width="1" fill="none" fill-rule="evenodd">
        <g id="Logo-2" transform="translate(-207.000000, -13430.000000)">
            <g id="Group-4" transform="translate(80.000000, 13191.000000)">
                <g id="96-logo-vertical-singleLine" transform="translate(126.000000, 239.000000)">
                    <g id="logo-st-copy-2" transform="translate(69.000000, 0.000000)">
                        <g id="Group">
                            <g id="Group-3-Copy">
                                <path d="M25.9459514,1.83180599 C18.0674566,5.18385626 0.0608270795,22.4410604 0,36.0399542 C0.106082221,50.0983791 18.0674566,66.896494 25.9459514,70.2485442 C27.7524656,71.0166212 30.5556622,72.0799083 33.5162528,72.0799083 C36.2161321,72.0799083 38.5022229,70.7476072 40.8284013,67.949739 C44.7381922,63.2462622 44.2677279,56.4833362 39.0570181,52.6451613 C32.8214884,48.054819 27.7181731,43.9346181 27.6117782,36.0399542 C27.7181731,28.1457321 32.8214884,22.6356781 39.0570181,18.0448939 C44.2677279,14.2071609 45.2825561,8.38564984 41.3727652,3.68217309 C39.0470265,0.884304892 36.2156924,0 33.5162528,0 C30.5552226,0 27.7524656,1.06328714 25.9459514,1.83180599 Z" id="Fill-1" fill="url(#linearGradient-1)"></path>
                                <path d="M40.6969697,68.1290323 C44.1549724,64.1957897 44.5842817,56.3931434 39.1565532,52.6451613 C31.5485284,47.3916302 27.6648763,42.3833436 27.7104286,35.9651621 C27.762084,28.6870622 32.3937981,24.1297497 33.5481335,22.7096774 C16.2724262,42.1051592 13.8795535,64.0194269 30.6046488,71.7395025 C34.4314044,73.0700295 37.709116,71.5275122 40.6969697,68.1290323 Z" id="Fill-9" fill="#005892"></path>
                                <path d="M32.6187986,61.1659305 C34.8386427,58.4378654 34.6272266,53.2656726 31.6299374,50.4264435 C26.8639635,45.9118 26.0130232,41.0003336 26.0422652,36.5487352 C26.0754251,31.5007042 29.0487262,28.3397893 29.7897449,27.3548387 C18.699708,40.8073872 15.4035189,58.3155416 26.1400936,63.6701233 C28.5966565,64.592966 30.7007638,63.5230886 32.6187986,61.1659305 Z" id="Fill-9" fill="#00418E"></path>
                                <path d="M27.9147528,55.8977447 C29.331312,54.1568722 29.1964001,50.8563174 27.2837264,49.0445073 C24.2423939,46.1635575 23.6993795,43.0293813 23.7180399,40.1886626 C23.7392003,36.9673398 24.7604614,34.1869492 23.0817371,37.9080227 C21.4030128,41.6290961 16.9290887,54.0788132 23.7804676,57.4957566 C25.3480851,58.0846543 26.6907886,57.4019286 27.9147528,55.8977447 Z" id="Fill-9" fill="#002355"></path>
                            </g>
                            <g id="Group-4-Copy" transform="translate(41.212121, 23.741935)">
                                <g id="Group-5">
                                    <path d="M10.2201858,72.217956 C7.53356827,72.217956 4.71568281,71.3341432 2.40099118,68.5378319 C-1.49022861,63.8369723 -0.473491646,58.0194923 4.71246775,54.1838948 C10.9183792,49.5956651 15.9907251,44.0878855 16.0966146,36.1980561 C15.9907251,28.3077851 10.9119513,23.0677135 4.71246775,18.4561916 C0.135480195,15.0515727 -1.49022861,8.55869822 2.40099118,3.8578387 C4.71612037,1.06152735 7.53313071,0.178156214 10.2201858,0.178156214 C13.1667138,0.178156214 15.9565955,1.2408517 17.7545289,2.00850122 C25.5956015,5.35868626 43.4366298,22.10568 43.5747924,36.1980561 C43.530607,49.4808626 25.5956015,67.0369843 17.7545289,70.3871693 C15.9565955,71.1552605 13.1671514,72.217956 10.2201858,72.217956 Z" id="Fill-1-Copy-6" fill="url(#linearGradient-2)"></path>
                                    <path d="M22.5574576,45.6907536 C26.0330966,41.7575111 25.4436206,34.6985213 19.98821,30.9505393 C12.3413834,25.6970081 8.69567546,19.6736662 8.74146003,13.2554847 C8.79337889,5.97738477 13.4487153,1.42007233 14.608938,-7.10542736e-15 C-3.43614578,13.2554847 -5.15995421,41.3097495 11.6504411,49.0298251 C15.4967137,50.360352 19.5543655,49.0892336 22.5574576,45.6907536 Z" id="Fill-9" fill="#470000" opacity="0.600000024" style="mix-blend-mode: multiply;" transform="translate(12.363636, 24.774194) rotate(-180.000000) translate(-12.363636, -24.774194) "></path>
                                    <path d="M23.2851073,40.6957867 C25.5049514,37.9677217 25.2935353,32.7955288 22.2962461,29.9562997 C17.5302722,25.4416562 16.6793318,20.5301899 16.7085738,16.0785914 C16.7417337,11.0305604 17.7517196,8.72688611 18.4927383,7.74193548 C9.46650247,18.3502628 6.5161166,38.0769586 16.8064023,43.1999795 C19.2629652,44.1228222 21.3670725,43.0529448 23.2851073,40.6957867 Z" id="Fill-9-Copy" fill="#670010" transform="translate(17.538044, 25.635896) rotate(-180.000000) translate(-17.538044, -25.635896) "></path>
                                    <path d="M23.8890459,33.9732608 C25.305605,32.2323883 25.1706931,28.9318335 23.2580194,27.1200234 C20.2166869,24.2390736 19.1985172,20.582195 19.0844218,18.5547333 C18.9436956,16.0540468 18.9602658,15.6990227 19.3986642,13.9354839 C18.0605783,16.3448892 12.2009431,32.9714366 19.7547606,35.5712727 C21.3223782,36.1601705 22.6650817,35.4774448 23.8890459,33.9732608 Z" id="Fill-9-Copy-2" fill="#730000" style="mix-blend-mode: multiply;" transform="translate(20.404128, 24.858631) rotate(-180.000000) translate(-20.404128, -24.858631) "></path>
                                </g>
                            </g>
                        </g>
                    </g>
                    <path d="M13.196,126.784 C12.0759944,126.453332 11.0466714,126.288 10.108,126.288 C8.80666016,126.288 7.76667056,126.538664 6.988,127.04 C6.20932944,127.541336 5.82,128.229329 5.82,129.104 C5.82,129.893337 6.05466432,130.538664 6.524,131.04 C6.99333568,131.541336 7.56932992,131.935999 8.252,132.224 C8.93467008,132.512001 9.88399392,132.847998 11.1,133.232 C12.6146742,133.701336 13.8413286,134.149331 14.78,134.576 C15.7186714,135.002669 16.5186634,135.637329 17.18,136.48 C17.8413366,137.322671 18.172,138.437326 18.172,139.824 C18.172,141.104006 17.8253368,142.223995 17.132,143.184 C16.4386632,144.144005 15.4680062,144.885331 14.22,145.408 C12.9719938,145.930669 11.5373414,146.192 9.916,146.192 C8.27332512,146.192 6.67334112,145.872003 5.116,145.232 C3.55865888,144.591997 2.21467232,143.738672 1.084,142.672 L2.46,140.016 C3.526672,141.061339 4.72666,141.866664 6.06,142.432 C7.39334,142.997336 8.68932704,143.28 9.948,143.28 C11.4413408,143.28 12.6199957,142.98667 13.484,142.4 C14.3480043,141.81333 14.78,141.018672 14.78,140.016 C14.78,139.226663 14.5453357,138.576003 14.076,138.064 C13.6066643,137.551997 13.0146702,137.146668 12.3,136.848 C11.5853298,136.549332 10.6200061,136.218668 9.404,135.856 C7.9106592,135.407998 6.69467136,134.970669 5.756,134.544 C4.81732864,134.117331 4.02266992,133.488004 3.372,132.656 C2.72133008,131.823996 2.396,130.72534 2.396,129.36 C2.396,128.165327 2.72666336,127.109338 3.388,126.192 C4.04933664,125.274662 4.97732736,124.570669 6.172,124.08 C7.36667264,123.589331 8.75332544,123.344 10.332,123.344 C11.6760067,123.344 12.9933269,123.541331 14.284,123.936 C15.5746731,124.330669 16.7213283,124.858663 17.724,125.52 L16.444,128.272 C15.3986614,127.610663 14.3160056,127.114668 13.196,126.784 Z M28.188,123.6 L45.692,123.6 L45.692,126.416 L38.46,126.416 L38.46,146 L35.388,146 L35.388,126.416 L28.188,126.416 L28.188,123.6 Z M74.076,123.6 L65.692,138.32 L65.692,146 L62.62,146 L62.62,138.448 L54.108,123.6 L57.244,123.6 L64.156,135.024 L70.94,123.6 L74.076,123.6 Z M85.372,123.6 L88.444,123.6 L88.444,143.216 L98.236,143.216 L98.236,146 L85.372,146 L85.372,123.6 Z M127.004,146 L124.636,140.56 L112.828,140.56 L110.492,146 L107.26,146 L117.212,123.6 L120.412,123.6 L130.332,146 L127.004,146 Z M114.044,137.776 L123.452,137.776 L118.716,126.896 L114.044,137.776 Z M156.556,125.088 C157.868007,126.080005 158.524,127.450658 158.524,129.2 C158.524,130.480006 158.161337,131.562662 157.436,132.448 C156.710663,133.333338 155.718673,133.925332 154.46,134.224 C156.017341,134.458668 157.238662,135.082662 158.124,136.096 C159.009338,137.109338 159.452,138.373326 159.452,139.888 C159.452,141.80801 158.732007,143.306661 157.292,144.384 C155.851993,145.461339 153.862679,146 151.324,146 L141.596,146 L141.596,123.6 L151.164,123.6 C153.446678,123.6 155.243993,124.095995 156.556,125.088 Z M154.22,132.224 C154.977337,131.63733 155.356,130.800005 155.356,129.712 C155.356,128.645328 154.977337,127.824003 154.22,127.248 C153.462663,126.671997 152.390674,126.394667 151.004,126.416 L144.668,126.416 L144.668,133.104 L151.004,133.104 C152.390674,133.104 153.462663,132.81067 154.22,132.224 Z M154.908,142.24 C155.846671,141.58933 156.316,140.677339 156.316,139.504 C156.316,138.373328 155.846671,137.488003 154.908,136.848 C153.969329,136.207997 152.668008,135.888 151.004,135.888 L144.668,135.888 L144.668,143.184 L151.004,143.184 C152.668008,143.205333 153.969329,142.89067 154.908,142.24 Z M172.38,123.6 L175.452,123.6 L175.452,143.216 L185.244,143.216 L185.244,146 L172.38,146 L172.38,123.6 Z M197.148,123.6 L212.7,123.6 L212.7,126.384 L200.22,126.384 L200.22,133.296 L211.388,133.296 L211.388,136.08 L200.22,136.08 L200.22,143.216 L213.084,143.216 L213.084,146 L197.148,146 L197.148,123.6 Z" id="stylable" fill="#18455A"></path>
                </g>
            </g>
        </g>
    </g>
</svg>