<?xml version="1.0" encoding="UTF-8"?>
<svg width="1268px" height="330px" viewBox="0 0 1268 330" version="1.1" xmlns="http://www.w3.org/2000/svg" xmlns:xlink="http://www.w3.org/1999/xlink">
    <!-- Generator: Sketch 46.2 (44496) - http://www.bohemiancoding.com/sketch -->
    <title>logo-preview</title>
    <desc>Created with Sketch.</desc>
    <defs>
        <linearGradient x1="66.5482535%" y1="-4.69211158%" x2="80.2718164%" y2="111.186421%" id="linearGradient-1">
            <stop stop-color="#7AD852" offset="0%"></stop>
            <stop stop-color="#3AB38B" offset="53.5842857%"></stop>
            <stop stop-color="#00BFC9" offset="100%"></stop>
        </linearGradient>
        <linearGradient x1="78.0937359%" y1="0.737604065%" x2="20.393625%" y2="118.621864%" id="linearGradient-2">
            <stop stop-color="#FF2953" offset="0%"></stop>
            <stop stop-color="#EA3333" offset="100%"></stop>
        </linearGradient>
    </defs>
    <g id="Page-1" stroke="none" stroke-width="1" fill="none" fill-rule="evenodd">
        <g id="Logo-2" transform="translate(-129.000000, -11190.000000)">
            <g id="logo-preview" transform="translate(121.000000, 11188.000000)">
                <g id="Group-69" opacity="0.600000024" stroke-linecap="round" stroke="#DFE5EB" stroke-linejoin="round">
                    <g id="pattern" transform="translate(310.000000, 0.000000)">
                        <g id="Group-69" transform="translate(7.000000, 1.000000)">
                            <path d="M22.84,6.61 C21.8084758,5.57799147 20.409138,4.99817438 18.95,4.99817438 C17.490862,4.99817438 16.0915242,5.57799147 15.06,6.61 L14,7.67 L12.94,6.61 C10.7916123,4.46161238 7.30838771,4.4616124 5.16000006,6.61000006 C3.0116124,8.75838771 3.01161238,12.2416123 5.16,14.39 L6.22,15.45 L14,23.23 L21.78,15.45 L22.84,14.39 C23.8720085,13.3584758 24.4518256,11.959138 24.4518256,10.5 C24.4518256,9.04086197 23.8720085,7.6415242 22.84,6.61 Z" id="Shape" stroke-width="2" transform="translate(14.000267, 14.114087) rotate(-45.000000) translate(-14.000267, -14.114087) "></path>
                            <g id="Group" transform="translate(77.000000, 14.000000) rotate(-45.000000) translate(-77.000000, -14.000000) translate(69.000000, 5.000000)" stroke-width="2">
                                <path d="M0,6 L16,6" id="Shape"></path>
                                <path d="M0,12 L16,12" id="Shape"></path>
                                <path d="M6,0 L4,18" id="Shape"></path>
                                <path d="M12,0 L10,18" id="Shape"></path>
                            </g>
                            <g id="Group-4" transform="translate(77.000000, 77.000000) rotate(-45.000000) translate(-77.000000, -77.000000) translate(67.000000, 67.000000)" stroke-width="2">
                                <circle id="Oval" cx="10" cy="3" r="3"></circle>
                                <path d="M10,20 L10,6" id="Shape"></path>
                                <path d="M3,10 L0,10 C2.22044605e-15,15.5228475 4.4771525,20 10,20 C15.5228475,20 20,15.5228475 20,10 L17,10" id="Shape"></path>
                            </g>
                            <g id="Group-5" transform="translate(140.000000, 77.000000) rotate(-45.000000) translate(-140.000000, -77.000000) translate(130.000000, 67.000000)" stroke-width="2">
                                <path d="M10,0 L10,4" id="Shape"></path>
                                <path d="M10,16 L10,20" id="Shape"></path>
                                <path d="M2.93,2.93 L5.76,5.76" id="Shape"></path>
                                <path d="M14.24,14.24 L17.07,17.07" id="Shape"></path>
                                <path d="M0,10 L4,10" id="Shape"></path>
                                <path d="M16,10 L20,10" id="Shape"></path>
                                <path d="M2.93,17.07 L5.76,14.24" id="Shape"></path>
                                <path d="M14.24,5.76 L17.07,2.93" id="Shape"></path>
                            </g>
                            <g id="Group-7" transform="translate(14.000000, 77.000000) rotate(-45.000000) translate(-14.000000, -77.000000) translate(5.000000, 67.000000)" stroke-width="2">
                                <rect id="Rectangle-path" x="0" y="2" width="18" height="18" rx="2"></rect>
                                <path d="M13,0 L13,4" id="Shape"></path>
                                <path d="M5,0 L5,4" id="Shape"></path>
                                <path d="M0,8 L18,8" id="Shape"></path>
                            </g>
                            <g id="Group-6" transform="translate(194.000000, 68.000000)" stroke-width="2">
                                <polygon id="Shape" points="13 0 18 5 5 18 0 18 0 13"></polygon>
                            </g>
                            <g id="Group-3" transform="translate(203.500000, 14.500000) rotate(-45.000000) translate(-203.500000, -14.500000) translate(195.000000, 4.000000)" stroke-width="2">
                                <path d="M8,0.69 L13.66,6.35 C15.9490712,8.63757131 16.6344785,12.0789253 15.3965378,15.0689642 C14.1585972,18.059003 11.2411752,20.0087079 8.005,20.0087079 C4.76882485,20.0087079 1.85140283,18.059003 0.613462165,15.0689642 C-0.624478498,12.0789253 0.0609287647,8.63757131 2.35,6.35 L8,0.69 Z" id="Shape"></path>
                            </g>
                            <g id="Group-2" transform="translate(140.000000, 14.500000) rotate(-45.000000) translate(-140.000000, -14.500000) translate(131.000000, 8.000000)" stroke-width="2">
                                <path d="M15,4 L3,4" id="Shape"></path>
                                <path d="M18,0 L0,0" id="Shape"></path>
                                <path d="M18,8 L0,8" id="Shape"></path>
                                <path d="M15,12 L3,12" id="Shape"></path>
                            </g>
                        </g>
                    </g>
                    <g id="pattern" transform="translate(62.000000, 0.000000)">
                        <g id="Group-69" transform="translate(7.000000, 1.000000)">
                            <path d="M22.84,6.61 C21.8084758,5.57799147 20.409138,4.99817438 18.95,4.99817438 C17.490862,4.99817438 16.0915242,5.57799147 15.06,6.61 L14,7.67 L12.94,6.61 C10.7916123,4.46161238 7.30838771,4.4616124 5.16000006,6.61000006 C3.0116124,8.75838771 3.01161238,12.2416123 5.16,14.39 L6.22,15.45 L14,23.23 L21.78,15.45 L22.84,14.39 C23.8720085,13.3584758 24.4518256,11.959138 24.4518256,10.5 C24.4518256,9.04086197 23.8720085,7.6415242 22.84,6.61 Z" id="Shape" stroke-width="2" transform="translate(14.000267, 14.114087) rotate(-45.000000) translate(-14.000267, -14.114087) "></path>
                            <g id="Group" transform="translate(77.000000, 14.000000) rotate(-45.000000) translate(-77.000000, -14.000000) translate(69.000000, 5.000000)" stroke-width="2">
                                <path d="M0,6 L16,6" id="Shape"></path>
                                <path d="M0,12 L16,12" id="Shape"></path>
                                <path d="M6,0 L4,18" id="Shape"></path>
                                <path d="M12,0 L10,18" id="Shape"></path>
                            </g>
                            <g id="Group-4" transform="translate(77.000000, 77.000000) rotate(-45.000000) translate(-77.000000, -77.000000) translate(67.000000, 67.000000)" stroke-width="2">
                                <circle id="Oval" cx="10" cy="3" r="3"></circle>
                                <path d="M10,20 L10,6" id="Shape"></path>
                                <path d="M3,10 L0,10 C2.22044605e-15,15.5228475 4.4771525,20 10,20 C15.5228475,20 20,15.5228475 20,10 L17,10" id="Shape"></path>
                            </g>
                            <g id="Group-5" transform="translate(140.000000, 77.000000) rotate(-45.000000) translate(-140.000000, -77.000000) translate(130.000000, 67.000000)" stroke-width="2">
                                <path d="M10,0 L10,4" id="Shape"></path>
                                <path d="M10,16 L10,20" id="Shape"></path>
                                <path d="M2.93,2.93 L5.76,5.76" id="Shape"></path>
                                <path d="M14.24,14.24 L17.07,17.07" id="Shape"></path>
                                <path d="M0,10 L4,10" id="Shape"></path>
                                <path d="M16,10 L20,10" id="Shape"></path>
                                <path d="M2.93,17.07 L5.76,14.24" id="Shape"></path>
                                <path d="M14.24,5.76 L17.07,2.93" id="Shape"></path>
                            </g>
                            <g id="Group-7" transform="translate(14.000000, 77.000000) rotate(-45.000000) translate(-14.000000, -77.000000) translate(5.000000, 67.000000)" stroke-width="2">
                                <rect id="Rectangle-path" x="0" y="2" width="18" height="18" rx="2"></rect>
                                <path d="M13,0 L13,4" id="Shape"></path>
                                <path d="M5,0 L5,4" id="Shape"></path>
                                <path d="M0,8 L18,8" id="Shape"></path>
                            </g>
                            <g id="Group-6" transform="translate(194.000000, 68.000000)" stroke-width="2">
                                <polygon id="Shape" points="13 0 18 5 5 18 0 18 0 13"></polygon>
                            </g>
                            <g id="Group-3" transform="translate(203.500000, 14.500000) rotate(-45.000000) translate(-203.500000, -14.500000) translate(195.000000, 4.000000)" stroke-width="2">
                                <path d="M8,0.69 L13.66,6.35 C15.9490712,8.63757131 16.6344785,12.0789253 15.3965378,15.0689642 C14.1585972,18.059003 11.2411752,20.0087079 8.005,20.0087079 C4.76882485,20.0087079 1.85140283,18.059003 0.613462165,15.0689642 C-0.624478498,12.0789253 0.0609287647,8.63757131 2.35,6.35 L8,0.69 Z" id="Shape"></path>
                            </g>
                            <g id="Group-2" transform="translate(140.000000, 14.500000) rotate(-45.000000) translate(-140.000000, -14.500000) translate(131.000000, 8.000000)" stroke-width="2">
                                <path d="M15,4 L3,4" id="Shape"></path>
                                <path d="M18,0 L0,0" id="Shape"></path>
                                <path d="M18,8 L0,8" id="Shape"></path>
                                <path d="M15,12 L3,12" id="Shape"></path>
                            </g>
                        </g>
                    </g>
                    <g id="pattern" transform="translate(1055.000000, 0.000000)">
                        <g id="Group-69" transform="translate(7.000000, 1.000000)">
                            <path d="M22.84,6.61 C21.8084758,5.57799147 20.409138,4.99817438 18.95,4.99817438 C17.490862,4.99817438 16.0915242,5.57799147 15.06,6.61 L14,7.67 L12.94,6.61 C10.7916123,4.46161238 7.30838771,4.4616124 5.16000006,6.61000006 C3.0116124,8.75838771 3.01161238,12.2416123 5.16,14.39 L6.22,15.45 L14,23.23 L21.78,15.45 L22.84,14.39 C23.8720085,13.3584758 24.4518256,11.959138 24.4518256,10.5 C24.4518256,9.04086197 23.8720085,7.6415242 22.84,6.61 Z" id="Shape" stroke-width="2" transform="translate(14.000267, 14.114087) rotate(-45.000000) translate(-14.000267, -14.114087) "></path>
                            <g id="Group" transform="translate(77.000000, 14.000000) rotate(-45.000000) translate(-77.000000, -14.000000) translate(69.000000, 5.000000)" stroke-width="2">
                                <path d="M0,6 L16,6" id="Shape"></path>
                                <path d="M0,12 L16,12" id="Shape"></path>
                                <path d="M6,0 L4,18" id="Shape"></path>
                                <path d="M12,0 L10,18" id="Shape"></path>
                            </g>
                            <g id="Group-4" transform="translate(77.000000, 77.000000) rotate(-45.000000) translate(-77.000000, -77.000000) translate(67.000000, 67.000000)" stroke-width="2">
                                <circle id="Oval" cx="10" cy="3" r="3"></circle>
                                <path d="M10,20 L10,6" id="Shape"></path>
                                <path d="M3,10 L0,10 C2.22044605e-15,15.5228475 4.4771525,20 10,20 C15.5228475,20 20,15.5228475 20,10 L17,10" id="Shape"></path>
                            </g>
                            <g id="Group-5" transform="translate(140.000000, 77.000000) rotate(-45.000000) translate(-140.000000, -77.000000) translate(130.000000, 67.000000)" stroke-width="2">
                                <path d="M10,0 L10,4" id="Shape"></path>
                                <path d="M10,16 L10,20" id="Shape"></path>
                                <path d="M2.93,2.93 L5.76,5.76" id="Shape"></path>
                                <path d="M14.24,14.24 L17.07,17.07" id="Shape"></path>
                                <path d="M0,10 L4,10" id="Shape"></path>
                                <path d="M16,10 L20,10" id="Shape"></path>
                                <path d="M2.93,17.07 L5.76,14.24" id="Shape"></path>
                                <path d="M14.24,5.76 L17.07,2.93" id="Shape"></path>
                            </g>
                            <g id="Group-7" transform="translate(14.000000, 77.000000) rotate(-45.000000) translate(-14.000000, -77.000000) translate(5.000000, 67.000000)" stroke-width="2">
                                <rect id="Rectangle-path" x="0" y="2" width="18" height="18" rx="2"></rect>
                                <path d="M13,0 L13,4" id="Shape"></path>
                                <path d="M5,0 L5,4" id="Shape"></path>
                                <path d="M0,8 L18,8" id="Shape"></path>
                            </g>
                            <g id="Group-6" transform="translate(194.000000, 68.000000)" stroke-width="2">
                                <polygon id="Shape" points="13 0 18 5 5 18 0 18 0 13"></polygon>
                            </g>
                            <g id="Group-3" transform="translate(203.500000, 14.500000) rotate(-45.000000) translate(-203.500000, -14.500000) translate(195.000000, 4.000000)" stroke-width="2">
                                <path d="M8,0.69 L13.66,6.35 C15.9490712,8.63757131 16.6344785,12.0789253 15.3965378,15.0689642 C14.1585972,18.059003 11.2411752,20.0087079 8.005,20.0087079 C4.76882485,20.0087079 1.85140283,18.059003 0.613462165,15.0689642 C-0.624478498,12.0789253 0.0609287647,8.63757131 2.35,6.35 L8,0.69 Z" id="Shape"></path>
                            </g>
                            <g id="Group-2" transform="translate(140.000000, 14.500000) rotate(-45.000000) translate(-140.000000, -14.500000) translate(131.000000, 8.000000)" stroke-width="2">
                                <path d="M15,4 L3,4" id="Shape"></path>
                                <path d="M18,0 L0,0" id="Shape"></path>
                                <path d="M18,8 L0,8" id="Shape"></path>
                                <path d="M15,12 L3,12" id="Shape"></path>
                            </g>
                        </g>
                    </g>
                    <g id="pattern" transform="translate(310.000000, 240.000000)">
                        <g id="Group-69" transform="translate(7.000000, 1.000000)">
                            <path d="M22.84,6.61 C21.8084758,5.57799147 20.409138,4.99817438 18.95,4.99817438 C17.490862,4.99817438 16.0915242,5.57799147 15.06,6.61 L14,7.67 L12.94,6.61 C10.7916123,4.46161238 7.30838771,4.4616124 5.16000006,6.61000006 C3.0116124,8.75838771 3.01161238,12.2416123 5.16,14.39 L6.22,15.45 L14,23.23 L21.78,15.45 L22.84,14.39 C23.8720085,13.3584758 24.4518256,11.959138 24.4518256,10.5 C24.4518256,9.04086197 23.8720085,7.6415242 22.84,6.61 Z" id="Shape" stroke-width="2" transform="translate(14.000267, 14.114087) rotate(-45.000000) translate(-14.000267, -14.114087) "></path>
                            <g id="Group" transform="translate(77.000000, 14.000000) rotate(-45.000000) translate(-77.000000, -14.000000) translate(69.000000, 5.000000)" stroke-width="2">
                                <path d="M0,6 L16,6" id="Shape"></path>
                                <path d="M0,12 L16,12" id="Shape"></path>
                                <path d="M6,0 L4,18" id="Shape"></path>
                                <path d="M12,0 L10,18" id="Shape"></path>
                            </g>
                            <g id="Group-4" transform="translate(77.000000, 77.000000) rotate(-45.000000) translate(-77.000000, -77.000000) translate(67.000000, 67.000000)" stroke-width="2">
                                <circle id="Oval" cx="10" cy="3" r="3"></circle>
                                <path d="M10,20 L10,6" id="Shape"></path>
                                <path d="M3,10 L0,10 C2.22044605e-15,15.5228475 4.4771525,20 10,20 C15.5228475,20 20,15.5228475 20,10 L17,10" id="Shape"></path>
                            </g>
                            <g id="Group-5" transform="translate(140.000000, 77.000000) rotate(-45.000000) translate(-140.000000, -77.000000) translate(130.000000, 67.000000)" stroke-width="2">
                                <path d="M10,0 L10,4" id="Shape"></path>
                                <path d="M10,16 L10,20" id="Shape"></path>
                                <path d="M2.93,2.93 L5.76,5.76" id="Shape"></path>
                                <path d="M14.24,14.24 L17.07,17.07" id="Shape"></path>
                                <path d="M0,10 L4,10" id="Shape"></path>
                                <path d="M16,10 L20,10" id="Shape"></path>
                                <path d="M2.93,17.07 L5.76,14.24" id="Shape"></path>
                                <path d="M14.24,5.76 L17.07,2.93" id="Shape"></path>
                            </g>
                            <g id="Group-7" transform="translate(14.000000, 77.000000) rotate(-45.000000) translate(-14.000000, -77.000000) translate(5.000000, 67.000000)" stroke-width="2">
                                <rect id="Rectangle-path" x="0" y="2" width="18" height="18" rx="2"></rect>
                                <path d="M13,0 L13,4" id="Shape"></path>
                                <path d="M5,0 L5,4" id="Shape"></path>
                                <path d="M0,8 L18,8" id="Shape"></path>
                            </g>
                            <g id="Group-6" transform="translate(194.000000, 68.000000)" stroke-width="2">
                                <polygon id="Shape" points="13 0 18 5 5 18 0 18 0 13"></polygon>
                            </g>
                            <g id="Group-3" transform="translate(203.500000, 14.500000) rotate(-45.000000) translate(-203.500000, -14.500000) translate(195.000000, 4.000000)" stroke-width="2">
                                <path d="M8,0.69 L13.66,6.35 C15.9490712,8.63757131 16.6344785,12.0789253 15.3965378,15.0689642 C14.1585972,18.059003 11.2411752,20.0087079 8.005,20.0087079 C4.76882485,20.0087079 1.85140283,18.059003 0.613462165,15.0689642 C-0.624478498,12.0789253 0.0609287647,8.63757131 2.35,6.35 L8,0.69 Z" id="Shape"></path>
                            </g>
                            <g id="Group-2" transform="translate(140.000000, 14.500000) rotate(-45.000000) translate(-140.000000, -14.500000) translate(131.000000, 8.000000)" stroke-width="2">
                                <path d="M15,4 L3,4" id="Shape"></path>
                                <path d="M18,0 L0,0" id="Shape"></path>
                                <path d="M18,8 L0,8" id="Shape"></path>
                                <path d="M15,12 L3,12" id="Shape"></path>
                            </g>
                        </g>
                    </g>
                    <g id="pattern" transform="translate(62.000000, 240.000000)">
                        <g id="Group-69" transform="translate(7.000000, 1.000000)">
                            <path d="M22.84,6.61 C21.8084758,5.57799147 20.409138,4.99817438 18.95,4.99817438 C17.490862,4.99817438 16.0915242,5.57799147 15.06,6.61 L14,7.67 L12.94,6.61 C10.7916123,4.46161238 7.30838771,4.4616124 5.16000006,6.61000006 C3.0116124,8.75838771 3.01161238,12.2416123 5.16,14.39 L6.22,15.45 L14,23.23 L21.78,15.45 L22.84,14.39 C23.8720085,13.3584758 24.4518256,11.959138 24.4518256,10.5 C24.4518256,9.04086197 23.8720085,7.6415242 22.84,6.61 Z" id="Shape" stroke-width="2" transform="translate(14.000267, 14.114087) rotate(-45.000000) translate(-14.000267, -14.114087) "></path>
                            <g id="Group" transform="translate(77.000000, 14.000000) rotate(-45.000000) translate(-77.000000, -14.000000) translate(69.000000, 5.000000)" stroke-width="2">
                                <path d="M0,6 L16,6" id="Shape"></path>
                                <path d="M0,12 L16,12" id="Shape"></path>
                                <path d="M6,0 L4,18" id="Shape"></path>
                                <path d="M12,0 L10,18" id="Shape"></path>
                            </g>
                            <g id="Group-4" transform="translate(77.000000, 77.000000) rotate(-45.000000) translate(-77.000000, -77.000000) translate(67.000000, 67.000000)" stroke-width="2">
                                <circle id="Oval" cx="10" cy="3" r="3"></circle>
                                <path d="M10,20 L10,6" id="Shape"></path>
                                <path d="M3,10 L0,10 C2.22044605e-15,15.5228475 4.4771525,20 10,20 C15.5228475,20 20,15.5228475 20,10 L17,10" id="Shape"></path>
                            </g>
                            <g id="Group-5" transform="translate(140.000000, 77.000000) rotate(-45.000000) translate(-140.000000, -77.000000) translate(130.000000, 67.000000)" stroke-width="2">
                                <path d="M10,0 L10,4" id="Shape"></path>
                                <path d="M10,16 L10,20" id="Shape"></path>
                                <path d="M2.93,2.93 L5.76,5.76" id="Shape"></path>
                                <path d="M14.24,14.24 L17.07,17.07" id="Shape"></path>
                                <path d="M0,10 L4,10" id="Shape"></path>
                                <path d="M16,10 L20,10" id="Shape"></path>
                                <path d="M2.93,17.07 L5.76,14.24" id="Shape"></path>
                                <path d="M14.24,5.76 L17.07,2.93" id="Shape"></path>
                            </g>
                            <g id="Group-7" transform="translate(14.000000, 77.000000) rotate(-45.000000) translate(-14.000000, -77.000000) translate(5.000000, 67.000000)" stroke-width="2">
                                <rect id="Rectangle-path" x="0" y="2" width="18" height="18" rx="2"></rect>
                                <path d="M13,0 L13,4" id="Shape"></path>
                                <path d="M5,0 L5,4" id="Shape"></path>
                                <path d="M0,8 L18,8" id="Shape"></path>
                            </g>
                            <g id="Group-6" transform="translate(194.000000, 68.000000)" stroke-width="2">
                                <polygon id="Shape" points="13 0 18 5 5 18 0 18 0 13"></polygon>
                            </g>
                            <g id="Group-3" transform="translate(203.500000, 14.500000) rotate(-45.000000) translate(-203.500000, -14.500000) translate(195.000000, 4.000000)" stroke-width="2">
                                <path d="M8,0.69 L13.66,6.35 C15.9490712,8.63757131 16.6344785,12.0789253 15.3965378,15.0689642 C14.1585972,18.059003 11.2411752,20.0087079 8.005,20.0087079 C4.76882485,20.0087079 1.85140283,18.059003 0.613462165,15.0689642 C-0.624478498,12.0789253 0.0609287647,8.63757131 2.35,6.35 L8,0.69 Z" id="Shape"></path>
                            </g>
                            <g id="Group-2" transform="translate(140.000000, 14.500000) rotate(-45.000000) translate(-140.000000, -14.500000) translate(131.000000, 8.000000)" stroke-width="2">
                                <path d="M15,4 L3,4" id="Shape"></path>
                                <path d="M18,0 L0,0" id="Shape"></path>
                                <path d="M18,8 L0,8" id="Shape"></path>
                                <path d="M15,12 L3,12" id="Shape"></path>
                            </g>
                        </g>
                    </g>
                    <g id="pattern" transform="translate(1055.000000, 240.000000)">
                        <g id="Group-69" transform="translate(7.000000, 1.000000)">
                            <path d="M22.84,6.61 C21.8084758,5.57799147 20.409138,4.99817438 18.95,4.99817438 C17.490862,4.99817438 16.0915242,5.57799147 15.06,6.61 L14,7.67 L12.94,6.61 C10.7916123,4.46161238 7.30838771,4.4616124 5.16000006,6.61000006 C3.0116124,8.75838771 3.01161238,12.2416123 5.16,14.39 L6.22,15.45 L14,23.23 L21.78,15.45 L22.84,14.39 C23.8720085,13.3584758 24.4518256,11.959138 24.4518256,10.5 C24.4518256,9.04086197 23.8720085,7.6415242 22.84,6.61 Z" id="Shape" stroke-width="2" transform="translate(14.000267, 14.114087) rotate(-45.000000) translate(-14.000267, -14.114087) "></path>
                            <g id="Group" transform="translate(77.000000, 14.000000) rotate(-45.000000) translate(-77.000000, -14.000000) translate(69.000000, 5.000000)" stroke-width="2">
                                <path d="M0,6 L16,6" id="Shape"></path>
                                <path d="M0,12 L16,12" id="Shape"></path>
                                <path d="M6,0 L4,18" id="Shape"></path>
                                <path d="M12,0 L10,18" id="Shape"></path>
                            </g>
                            <g id="Group-4" transform="translate(77.000000, 77.000000) rotate(-45.000000) translate(-77.000000, -77.000000) translate(67.000000, 67.000000)" stroke-width="2">
                                <circle id="Oval" cx="10" cy="3" r="3"></circle>
                                <path d="M10,20 L10,6" id="Shape"></path>
                                <path d="M3,10 L0,10 C2.22044605e-15,15.5228475 4.4771525,20 10,20 C15.5228475,20 20,15.5228475 20,10 L17,10" id="Shape"></path>
                            </g>
                            <g id="Group-5" transform="translate(140.000000, 77.000000) rotate(-45.000000) translate(-140.000000, -77.000000) translate(130.000000, 67.000000)" stroke-width="2">
                                <path d="M10,0 L10,4" id="Shape"></path>
                                <path d="M10,16 L10,20" id="Shape"></path>
                                <path d="M2.93,2.93 L5.76,5.76" id="Shape"></path>
                                <path d="M14.24,14.24 L17.07,17.07" id="Shape"></path>
                                <path d="M0,10 L4,10" id="Shape"></path>
                                <path d="M16,10 L20,10" id="Shape"></path>
                                <path d="M2.93,17.07 L5.76,14.24" id="Shape"></path>
                                <path d="M14.24,5.76 L17.07,2.93" id="Shape"></path>
                            </g>
                            <g id="Group-7" transform="translate(14.000000, 77.000000) rotate(-45.000000) translate(-14.000000, -77.000000) translate(5.000000, 67.000000)" stroke-width="2">
                                <rect id="Rectangle-path" x="0" y="2" width="18" height="18" rx="2"></rect>
                                <path d="M13,0 L13,4" id="Shape"></path>
                                <path d="M5,0 L5,4" id="Shape"></path>
                                <path d="M0,8 L18,8" id="Shape"></path>
                            </g>
                            <g id="Group-6" transform="translate(194.000000, 68.000000)" stroke-width="2">
                                <polygon id="Shape" points="13 0 18 5 5 18 0 18 0 13"></polygon>
                            </g>
                            <g id="Group-3" transform="translate(203.500000, 14.500000) rotate(-45.000000) translate(-203.500000, -14.500000) translate(195.000000, 4.000000)" stroke-width="2">
                                <path d="M8,0.69 L13.66,6.35 C15.9490712,8.63757131 16.6344785,12.0789253 15.3965378,15.0689642 C14.1585972,18.059003 11.2411752,20.0087079 8.005,20.0087079 C4.76882485,20.0087079 1.85140283,18.059003 0.613462165,15.0689642 C-0.624478498,12.0789253 0.0609287647,8.63757131 2.35,6.35 L8,0.69 Z" id="Shape"></path>
                            </g>
                            <g id="Group-2" transform="translate(140.000000, 14.500000) rotate(-45.000000) translate(-140.000000, -14.500000) translate(131.000000, 8.000000)" stroke-width="2">
                                <path d="M15,4 L3,4" id="Shape"></path>
                                <path d="M18,0 L0,0" id="Shape"></path>
                                <path d="M18,8 L0,8" id="Shape"></path>
                                <path d="M15,12 L3,12" id="Shape"></path>
                            </g>
                        </g>
                    </g>
                    <g id="pattern" transform="translate(558.000000, 0.000000)">
                        <g id="Group-69" transform="translate(7.000000, 1.000000)">
                            <path d="M22.84,6.61 C21.8084758,5.57799147 20.409138,4.99817438 18.95,4.99817438 C17.490862,4.99817438 16.0915242,5.57799147 15.06,6.61 L14,7.67 L12.94,6.61 C10.7916123,4.46161238 7.30838771,4.4616124 5.16000006,6.61000006 C3.0116124,8.75838771 3.01161238,12.2416123 5.16,14.39 L6.22,15.45 L14,23.23 L21.78,15.45 L22.84,14.39 C23.8720085,13.3584758 24.4518256,11.959138 24.4518256,10.5 C24.4518256,9.04086197 23.8720085,7.6415242 22.84,6.61 Z" id="Shape" stroke-width="2" transform="translate(14.000267, 14.114087) rotate(-45.000000) translate(-14.000267, -14.114087) "></path>
                            <g id="Group" transform="translate(77.000000, 14.000000) rotate(-45.000000) translate(-77.000000, -14.000000) translate(69.000000, 5.000000)" stroke-width="2">
                                <path d="M0,6 L16,6" id="Shape"></path>
                                <path d="M0,12 L16,12" id="Shape"></path>
                                <path d="M6,0 L4,18" id="Shape"></path>
                                <path d="M12,0 L10,18" id="Shape"></path>
                            </g>
                            <g id="Group-4" transform="translate(77.000000, 77.000000) rotate(-45.000000) translate(-77.000000, -77.000000) translate(67.000000, 67.000000)" stroke-width="2">
                                <circle id="Oval" cx="10" cy="3" r="3"></circle>
                                <path d="M10,20 L10,6" id="Shape"></path>
                                <path d="M3,10 L0,10 C2.22044605e-15,15.5228475 4.4771525,20 10,20 C15.5228475,20 20,15.5228475 20,10 L17,10" id="Shape"></path>
                            </g>
                            <g id="Group-5" transform="translate(140.000000, 77.000000) rotate(-45.000000) translate(-140.000000, -77.000000) translate(130.000000, 67.000000)" stroke-width="2">
                                <path d="M10,0 L10,4" id="Shape"></path>
                                <path d="M10,16 L10,20" id="Shape"></path>
                                <path d="M2.93,2.93 L5.76,5.76" id="Shape"></path>
                                <path d="M14.24,14.24 L17.07,17.07" id="Shape"></path>
                                <path d="M0,10 L4,10" id="Shape"></path>
                                <path d="M16,10 L20,10" id="Shape"></path>
                                <path d="M2.93,17.07 L5.76,14.24" id="Shape"></path>
                                <path d="M14.24,5.76 L17.07,2.93" id="Shape"></path>
                            </g>
                            <g id="Group-7" transform="translate(14.000000, 77.000000) rotate(-45.000000) translate(-14.000000, -77.000000) translate(5.000000, 67.000000)" stroke-width="2">
                                <rect id="Rectangle-path" x="0" y="2" width="18" height="18" rx="2"></rect>
                                <path d="M13,0 L13,4" id="Shape"></path>
                                <path d="M5,0 L5,4" id="Shape"></path>
                                <path d="M0,8 L18,8" id="Shape"></path>
                            </g>
                            <g id="Group-6" transform="translate(194.000000, 68.000000)" stroke-width="2">
                                <polygon id="Shape" points="13 0 18 5 5 18 0 18 0 13"></polygon>
                            </g>
                            <g id="Group-3" transform="translate(203.500000, 14.500000) rotate(-45.000000) translate(-203.500000, -14.500000) translate(195.000000, 4.000000)" stroke-width="2">
                                <path d="M8,0.69 L13.66,6.35 C15.9490712,8.63757131 16.6344785,12.0789253 15.3965378,15.0689642 C14.1585972,18.059003 11.2411752,20.0087079 8.005,20.0087079 C4.76882485,20.0087079 1.85140283,18.059003 0.613462165,15.0689642 C-0.624478498,12.0789253 0.0609287647,8.63757131 2.35,6.35 L8,0.69 Z" id="Shape"></path>
                            </g>
                            <g id="Group-2" transform="translate(140.000000, 14.500000) rotate(-45.000000) translate(-140.000000, -14.500000) translate(131.000000, 8.000000)" stroke-width="2">
                                <path d="M15,4 L3,4" id="Shape"></path>
                                <path d="M18,0 L0,0" id="Shape"></path>
                                <path d="M18,8 L0,8" id="Shape"></path>
                                <path d="M15,12 L3,12" id="Shape"></path>
                            </g>
                        </g>
                    </g>
                    <g id="pattern" transform="translate(806.000000, 0.000000)">
                        <g id="Group-69" transform="translate(7.000000, 1.000000)">
                            <path d="M22.84,6.61 C21.8084758,5.57799147 20.409138,4.99817438 18.95,4.99817438 C17.490862,4.99817438 16.0915242,5.57799147 15.06,6.61 L14,7.67 L12.94,6.61 C10.7916123,4.46161238 7.30838771,4.4616124 5.16000006,6.61000006 C3.0116124,8.75838771 3.01161238,12.2416123 5.16,14.39 L6.22,15.45 L14,23.23 L21.78,15.45 L22.84,14.39 C23.8720085,13.3584758 24.4518256,11.959138 24.4518256,10.5 C24.4518256,9.04086197 23.8720085,7.6415242 22.84,6.61 Z" id="Shape" stroke-width="2" transform="translate(14.000267, 14.114087) rotate(-45.000000) translate(-14.000267, -14.114087) "></path>
                            <g id="Group" transform="translate(77.000000, 14.000000) rotate(-45.000000) translate(-77.000000, -14.000000) translate(69.000000, 5.000000)" stroke-width="2">
                                <path d="M0,6 L16,6" id="Shape"></path>
                                <path d="M0,12 L16,12" id="Shape"></path>
                                <path d="M6,0 L4,18" id="Shape"></path>
                                <path d="M12,0 L10,18" id="Shape"></path>
                            </g>
                            <g id="Group-4" transform="translate(77.000000, 77.000000) rotate(-45.000000) translate(-77.000000, -77.000000) translate(67.000000, 67.000000)" stroke-width="2">
                                <circle id="Oval" cx="10" cy="3" r="3"></circle>
                                <path d="M10,20 L10,6" id="Shape"></path>
                                <path d="M3,10 L0,10 C2.22044605e-15,15.5228475 4.4771525,20 10,20 C15.5228475,20 20,15.5228475 20,10 L17,10" id="Shape"></path>
                            </g>
                            <g id="Group-5" transform="translate(140.000000, 77.000000) rotate(-45.000000) translate(-140.000000, -77.000000) translate(130.000000, 67.000000)" stroke-width="2">
                                <path d="M10,0 L10,4" id="Shape"></path>
                                <path d="M10,16 L10,20" id="Shape"></path>
                                <path d="M2.93,2.93 L5.76,5.76" id="Shape"></path>
                                <path d="M14.24,14.24 L17.07,17.07" id="Shape"></path>
                                <path d="M0,10 L4,10" id="Shape"></path>
                                <path d="M16,10 L20,10" id="Shape"></path>
                                <path d="M2.93,17.07 L5.76,14.24" id="Shape"></path>
                                <path d="M14.24,5.76 L17.07,2.93" id="Shape"></path>
                            </g>
                            <g id="Group-7" transform="translate(14.000000, 77.000000) rotate(-45.000000) translate(-14.000000, -77.000000) translate(5.000000, 67.000000)" stroke-width="2">
                                <rect id="Rectangle-path" x="0" y="2" width="18" height="18" rx="2"></rect>
                                <path d="M13,0 L13,4" id="Shape"></path>
                                <path d="M5,0 L5,4" id="Shape"></path>
                                <path d="M0,8 L18,8" id="Shape"></path>
                            </g>
                            <g id="Group-6" transform="translate(194.000000, 68.000000)" stroke-width="2">
                                <polygon id="Shape" points="13 0 18 5 5 18 0 18 0 13"></polygon>
                            </g>
                            <g id="Group-3" transform="translate(203.500000, 14.500000) rotate(-45.000000) translate(-203.500000, -14.500000) translate(195.000000, 4.000000)" stroke-width="2">
                                <path d="M8,0.69 L13.66,6.35 C15.9490712,8.63757131 16.6344785,12.0789253 15.3965378,15.0689642 C14.1585972,18.059003 11.2411752,20.0087079 8.005,20.0087079 C4.76882485,20.0087079 1.85140283,18.059003 0.613462165,15.0689642 C-0.624478498,12.0789253 0.0609287647,8.63757131 2.35,6.35 L8,0.69 Z" id="Shape"></path>
                            </g>
                            <g id="Group-2" transform="translate(140.000000, 14.500000) rotate(-45.000000) translate(-140.000000, -14.500000) translate(131.000000, 8.000000)" stroke-width="2">
                                <path d="M15,4 L3,4" id="Shape"></path>
                                <path d="M18,0 L0,0" id="Shape"></path>
                                <path d="M18,8 L0,8" id="Shape"></path>
                                <path d="M15,12 L3,12" id="Shape"></path>
                            </g>
                        </g>
                    </g>
                    <g id="pattern" transform="translate(558.000000, 240.000000)">
                        <g id="Group-69" transform="translate(7.000000, 1.000000)">
                            <path d="M22.84,6.61 C21.8084758,5.57799147 20.409138,4.99817438 18.95,4.99817438 C17.490862,4.99817438 16.0915242,5.57799147 15.06,6.61 L14,7.67 L12.94,6.61 C10.7916123,4.46161238 7.30838771,4.4616124 5.16000006,6.61000006 C3.0116124,8.75838771 3.01161238,12.2416123 5.16,14.39 L6.22,15.45 L14,23.23 L21.78,15.45 L22.84,14.39 C23.8720085,13.3584758 24.4518256,11.959138 24.4518256,10.5 C24.4518256,9.04086197 23.8720085,7.6415242 22.84,6.61 Z" id="Shape" stroke-width="2" transform="translate(14.000267, 14.114087) rotate(-45.000000) translate(-14.000267, -14.114087) "></path>
                            <g id="Group" transform="translate(77.000000, 14.000000) rotate(-45.000000) translate(-77.000000, -14.000000) translate(69.000000, 5.000000)" stroke-width="2">
                                <path d="M0,6 L16,6" id="Shape"></path>
                                <path d="M0,12 L16,12" id="Shape"></path>
                                <path d="M6,0 L4,18" id="Shape"></path>
                                <path d="M12,0 L10,18" id="Shape"></path>
                            </g>
                            <g id="Group-4" transform="translate(77.000000, 77.000000) rotate(-45.000000) translate(-77.000000, -77.000000) translate(67.000000, 67.000000)" stroke-width="2">
                                <circle id="Oval" cx="10" cy="3" r="3"></circle>
                                <path d="M10,20 L10,6" id="Shape"></path>
                                <path d="M3,10 L0,10 C2.22044605e-15,15.5228475 4.4771525,20 10,20 C15.5228475,20 20,15.5228475 20,10 L17,10" id="Shape"></path>
                            </g>
                            <g id="Group-5" transform="translate(140.000000, 77.000000) rotate(-45.000000) translate(-140.000000, -77.000000) translate(130.000000, 67.000000)" stroke-width="2">
                                <path d="M10,0 L10,4" id="Shape"></path>
                                <path d="M10,16 L10,20" id="Shape"></path>
                                <path d="M2.93,2.93 L5.76,5.76" id="Shape"></path>
                                <path d="M14.24,14.24 L17.07,17.07" id="Shape"></path>
                                <path d="M0,10 L4,10" id="Shape"></path>
                                <path d="M16,10 L20,10" id="Shape"></path>
                                <path d="M2.93,17.07 L5.76,14.24" id="Shape"></path>
                                <path d="M14.24,5.76 L17.07,2.93" id="Shape"></path>
                            </g>
                            <g id="Group-7" transform="translate(14.000000, 77.000000) rotate(-45.000000) translate(-14.000000, -77.000000) translate(5.000000, 67.000000)" stroke-width="2">
                                <rect id="Rectangle-path" x="0" y="2" width="18" height="18" rx="2"></rect>
                                <path d="M13,0 L13,4" id="Shape"></path>
                                <path d="M5,0 L5,4" id="Shape"></path>
                                <path d="M0,8 L18,8" id="Shape"></path>
                            </g>
                            <g id="Group-6" transform="translate(194.000000, 68.000000)" stroke-width="2">
                                <polygon id="Shape" points="13 0 18 5 5 18 0 18 0 13"></polygon>
                            </g>
                            <g id="Group-3" transform="translate(203.500000, 14.500000) rotate(-45.000000) translate(-203.500000, -14.500000) translate(195.000000, 4.000000)" stroke-width="2">
                                <path d="M8,0.69 L13.66,6.35 C15.9490712,8.63757131 16.6344785,12.0789253 15.3965378,15.0689642 C14.1585972,18.059003 11.2411752,20.0087079 8.005,20.0087079 C4.76882485,20.0087079 1.85140283,18.059003 0.613462165,15.0689642 C-0.624478498,12.0789253 0.0609287647,8.63757131 2.35,6.35 L8,0.69 Z" id="Shape"></path>
                            </g>
                            <g id="Group-2" transform="translate(140.000000, 14.500000) rotate(-45.000000) translate(-140.000000, -14.500000) translate(131.000000, 8.000000)" stroke-width="2">
                                <path d="M15,4 L3,4" id="Shape"></path>
                                <path d="M18,0 L0,0" id="Shape"></path>
                                <path d="M18,8 L0,8" id="Shape"></path>
                                <path d="M15,12 L3,12" id="Shape"></path>
                            </g>
                        </g>
                    </g>
                    <g id="pattern" transform="translate(806.000000, 240.000000)">
                        <g id="Group-69" transform="translate(7.000000, 1.000000)">
                            <path d="M22.84,6.61 C21.8084758,5.57799147 20.409138,4.99817438 18.95,4.99817438 C17.490862,4.99817438 16.0915242,5.57799147 15.06,6.61 L14,7.67 L12.94,6.61 C10.7916123,4.46161238 7.30838771,4.4616124 5.16000006,6.61000006 C3.0116124,8.75838771 3.01161238,12.2416123 5.16,14.39 L6.22,15.45 L14,23.23 L21.78,15.45 L22.84,14.39 C23.8720085,13.3584758 24.4518256,11.959138 24.4518256,10.5 C24.4518256,9.04086197 23.8720085,7.6415242 22.84,6.61 Z" id="Shape" stroke-width="2" transform="translate(14.000267, 14.114087) rotate(-45.000000) translate(-14.000267, -14.114087) "></path>
                            <g id="Group" transform="translate(77.000000, 14.000000) rotate(-45.000000) translate(-77.000000, -14.000000) translate(69.000000, 5.000000)" stroke-width="2">
                                <path d="M0,6 L16,6" id="Shape"></path>
                                <path d="M0,12 L16,12" id="Shape"></path>
                                <path d="M6,0 L4,18" id="Shape"></path>
                                <path d="M12,0 L10,18" id="Shape"></path>
                            </g>
                            <g id="Group-4" transform="translate(77.000000, 77.000000) rotate(-45.000000) translate(-77.000000, -77.000000) translate(67.000000, 67.000000)" stroke-width="2">
                                <circle id="Oval" cx="10" cy="3" r="3"></circle>
                                <path d="M10,20 L10,6" id="Shape"></path>
                                <path d="M3,10 L0,10 C2.22044605e-15,15.5228475 4.4771525,20 10,20 C15.5228475,20 20,15.5228475 20,10 L17,10" id="Shape"></path>
                            </g>
                            <g id="Group-5" transform="translate(140.000000, 77.000000) rotate(-45.000000) translate(-140.000000, -77.000000) translate(130.000000, 67.000000)" stroke-width="2">
                                <path d="M10,0 L10,4" id="Shape"></path>
                                <path d="M10,16 L10,20" id="Shape"></path>
                                <path d="M2.93,2.93 L5.76,5.76" id="Shape"></path>
                                <path d="M14.24,14.24 L17.07,17.07" id="Shape"></path>
                                <path d="M0,10 L4,10" id="Shape"></path>
                                <path d="M16,10 L20,10" id="Shape"></path>
                                <path d="M2.93,17.07 L5.76,14.24" id="Shape"></path>
                                <path d="M14.24,5.76 L17.07,2.93" id="Shape"></path>
                            </g>
                            <g id="Group-7" transform="translate(14.000000, 77.000000) rotate(-45.000000) translate(-14.000000, -77.000000) translate(5.000000, 67.000000)" stroke-width="2">
                                <rect id="Rectangle-path" x="0" y="2" width="18" height="18" rx="2"></rect>
                                <path d="M13,0 L13,4" id="Shape"></path>
                                <path d="M5,0 L5,4" id="Shape"></path>
                                <path d="M0,8 L18,8" id="Shape"></path>
                            </g>
                            <g id="Group-6" transform="translate(194.000000, 68.000000)" stroke-width="2">
                                <polygon id="Shape" points="13 0 18 5 5 18 0 18 0 13"></polygon>
                            </g>
                            <g id="Group-3" transform="translate(203.500000, 14.500000) rotate(-45.000000) translate(-203.500000, -14.500000) translate(195.000000, 4.000000)" stroke-width="2">
                                <path d="M8,0.69 L13.66,6.35 C15.9490712,8.63757131 16.6344785,12.0789253 15.3965378,15.0689642 C14.1585972,18.059003 11.2411752,20.0087079 8.005,20.0087079 C4.76882485,20.0087079 1.85140283,18.059003 0.613462165,15.0689642 C-0.624478498,12.0789253 0.0609287647,8.63757131 2.35,6.35 L8,0.69 Z" id="Shape"></path>
                            </g>
                            <g id="Group-2" transform="translate(140.000000, 14.500000) rotate(-45.000000) translate(-140.000000, -14.500000) translate(131.000000, 8.000000)" stroke-width="2">
                                <path d="M15,4 L3,4" id="Shape"></path>
                                <path d="M18,0 L0,0" id="Shape"></path>
                                <path d="M18,8 L0,8" id="Shape"></path>
                                <path d="M15,12 L3,12" id="Shape"></path>
                            </g>
                        </g>
                    </g>
                    <g id="pattern" transform="translate(496.000000, 120.000000)">
                        <g id="Group-69" transform="translate(7.000000, 1.000000)">
                            <path d="M22.84,6.61 C21.8084758,5.57799147 20.409138,4.99817438 18.95,4.99817438 C17.490862,4.99817438 16.0915242,5.57799147 15.06,6.61 L14,7.67 L12.94,6.61 C10.7916123,4.46161238 7.30838771,4.4616124 5.16000006,6.61000006 C3.0116124,8.75838771 3.01161238,12.2416123 5.16,14.39 L6.22,15.45 L14,23.23 L21.78,15.45 L22.84,14.39 C23.8720085,13.3584758 24.4518256,11.959138 24.4518256,10.5 C24.4518256,9.04086197 23.8720085,7.6415242 22.84,6.61 Z" id="Shape" stroke-width="2" transform="translate(14.000267, 14.114087) rotate(-45.000000) translate(-14.000267, -14.114087) "></path>
                            <g id="Group" transform="translate(77.000000, 14.000000) rotate(-45.000000) translate(-77.000000, -14.000000) translate(69.000000, 5.000000)" stroke-width="2">
                                <path d="M0,6 L16,6" id="Shape"></path>
                                <path d="M0,12 L16,12" id="Shape"></path>
                                <path d="M6,0 L4,18" id="Shape"></path>
                                <path d="M12,0 L10,18" id="Shape"></path>
                            </g>
                            <g id="Group-4" transform="translate(77.000000, 77.000000) rotate(-45.000000) translate(-77.000000, -77.000000) translate(67.000000, 67.000000)" stroke-width="2">
                                <circle id="Oval" cx="10" cy="3" r="3"></circle>
                                <path d="M10,20 L10,6" id="Shape"></path>
                                <path d="M3,10 L0,10 C2.22044605e-15,15.5228475 4.4771525,20 10,20 C15.5228475,20 20,15.5228475 20,10 L17,10" id="Shape"></path>
                            </g>
                            <g id="Group-5" transform="translate(140.000000, 77.000000) rotate(-45.000000) translate(-140.000000, -77.000000) translate(130.000000, 67.000000)" stroke-width="2">
                                <path d="M10,0 L10,4" id="Shape"></path>
                                <path d="M10,16 L10,20" id="Shape"></path>
                                <path d="M2.93,2.93 L5.76,5.76" id="Shape"></path>
                                <path d="M14.24,14.24 L17.07,17.07" id="Shape"></path>
                                <path d="M0,10 L4,10" id="Shape"></path>
                                <path d="M16,10 L20,10" id="Shape"></path>
                                <path d="M2.93,17.07 L5.76,14.24" id="Shape"></path>
                                <path d="M14.24,5.76 L17.07,2.93" id="Shape"></path>
                            </g>
                            <g id="Group-7" transform="translate(14.000000, 77.000000) rotate(-45.000000) translate(-14.000000, -77.000000) translate(5.000000, 67.000000)" stroke-width="2">
                                <rect id="Rectangle-path" x="0" y="2" width="18" height="18" rx="2"></rect>
                                <path d="M13,0 L13,4" id="Shape"></path>
                                <path d="M5,0 L5,4" id="Shape"></path>
                                <path d="M0,8 L18,8" id="Shape"></path>
                            </g>
                            <g id="Group-6" transform="translate(194.000000, 68.000000)" stroke-width="2">
                                <polygon id="Shape" points="13 0 18 5 5 18 0 18 0 13"></polygon>
                            </g>
                            <g id="Group-3" transform="translate(203.500000, 14.500000) rotate(-45.000000) translate(-203.500000, -14.500000) translate(195.000000, 4.000000)" stroke-width="2">
                                <path d="M8,0.69 L13.66,6.35 C15.9490712,8.63757131 16.6344785,12.0789253 15.3965378,15.0689642 C14.1585972,18.059003 11.2411752,20.0087079 8.005,20.0087079 C4.76882485,20.0087079 1.85140283,18.059003 0.613462165,15.0689642 C-0.624478498,12.0789253 0.0609287647,8.63757131 2.35,6.35 L8,0.69 Z" id="Shape"></path>
                            </g>
                            <g id="Group-2" transform="translate(140.000000, 14.500000) rotate(-45.000000) translate(-140.000000, -14.500000) translate(131.000000, 8.000000)" stroke-width="2">
                                <path d="M15,4 L3,4" id="Shape"></path>
                                <path d="M18,0 L0,0" id="Shape"></path>
                                <path d="M18,8 L0,8" id="Shape"></path>
                                <path d="M15,12 L3,12" id="Shape"></path>
                            </g>
                        </g>
                    </g>
                    <g id="pattern" transform="translate(0.000000, 119.000000)">
                        <g id="Group-69" transform="translate(7.000000, 1.000000)">
                            <path d="M22.84,6.61 C21.8084758,5.57799147 20.409138,4.99817438 18.95,4.99817438 C17.490862,4.99817438 16.0915242,5.57799147 15.06,6.61 L14,7.67 L12.94,6.61 C10.7916123,4.46161238 7.30838771,4.4616124 5.16000006,6.61000006 C3.0116124,8.75838771 3.01161238,12.2416123 5.16,14.39 L6.22,15.45 L14,23.23 L21.78,15.45 L22.84,14.39 C23.8720085,13.3584758 24.4518256,11.959138 24.4518256,10.5 C24.4518256,9.04086197 23.8720085,7.6415242 22.84,6.61 Z" id="Shape" stroke-width="2" transform="translate(14.000267, 14.114087) rotate(-45.000000) translate(-14.000267, -14.114087) "></path>
                            <g id="Group" transform="translate(77.000000, 14.000000) rotate(-45.000000) translate(-77.000000, -14.000000) translate(69.000000, 5.000000)" stroke-width="2">
                                <path d="M0,6 L16,6" id="Shape"></path>
                                <path d="M0,12 L16,12" id="Shape"></path>
                                <path d="M6,0 L4,18" id="Shape"></path>
                                <path d="M12,0 L10,18" id="Shape"></path>
                            </g>
                            <g id="Group-4" transform="translate(77.000000, 77.000000) rotate(-45.000000) translate(-77.000000, -77.000000) translate(67.000000, 67.000000)" stroke-width="2">
                                <circle id="Oval" cx="10" cy="3" r="3"></circle>
                                <path d="M10,20 L10,6" id="Shape"></path>
                                <path d="M3,10 L0,10 C2.22044605e-15,15.5228475 4.4771525,20 10,20 C15.5228475,20 20,15.5228475 20,10 L17,10" id="Shape"></path>
                            </g>
                            <g id="Group-5" transform="translate(140.000000, 77.000000) rotate(-45.000000) translate(-140.000000, -77.000000) translate(130.000000, 67.000000)" stroke-width="2">
                                <path d="M10,0 L10,4" id="Shape"></path>
                                <path d="M10,16 L10,20" id="Shape"></path>
                                <path d="M2.93,2.93 L5.76,5.76" id="Shape"></path>
                                <path d="M14.24,14.24 L17.07,17.07" id="Shape"></path>
                                <path d="M0,10 L4,10" id="Shape"></path>
                                <path d="M16,10 L20,10" id="Shape"></path>
                                <path d="M2.93,17.07 L5.76,14.24" id="Shape"></path>
                                <path d="M14.24,5.76 L17.07,2.93" id="Shape"></path>
                            </g>
                            <g id="Group-7" transform="translate(14.000000, 77.000000) rotate(-45.000000) translate(-14.000000, -77.000000) translate(5.000000, 67.000000)" stroke-width="2">
                                <rect id="Rectangle-path" x="0" y="2" width="18" height="18" rx="2"></rect>
                                <path d="M13,0 L13,4" id="Shape"></path>
                                <path d="M5,0 L5,4" id="Shape"></path>
                                <path d="M0,8 L18,8" id="Shape"></path>
                            </g>
                            <g id="Group-6" transform="translate(194.000000, 68.000000)" stroke-width="2">
                                <polygon id="Shape" points="13 0 18 5 5 18 0 18 0 13"></polygon>
                            </g>
                            <g id="Group-3" transform="translate(203.500000, 14.500000) rotate(-45.000000) translate(-203.500000, -14.500000) translate(195.000000, 4.000000)" stroke-width="2">
                                <path d="M8,0.69 L13.66,6.35 C15.9490712,8.63757131 16.6344785,12.0789253 15.3965378,15.0689642 C14.1585972,18.059003 11.2411752,20.0087079 8.005,20.0087079 C4.76882485,20.0087079 1.85140283,18.059003 0.613462165,15.0689642 C-0.624478498,12.0789253 0.0609287647,8.63757131 2.35,6.35 L8,0.69 Z" id="Shape"></path>
                            </g>
                            <g id="Group-2" transform="translate(140.000000, 14.500000) rotate(-45.000000) translate(-140.000000, -14.500000) translate(131.000000, 8.000000)" stroke-width="2">
                                <path d="M15,4 L3,4" id="Shape"></path>
                                <path d="M18,0 L0,0" id="Shape"></path>
                                <path d="M18,8 L0,8" id="Shape"></path>
                                <path d="M15,12 L3,12" id="Shape"></path>
                            </g>
                        </g>
                    </g>
                    <g id="pattern" transform="translate(993.000000, 119.000000)">
                        <g id="Group-69" transform="translate(7.000000, 1.000000)">
                            <path d="M22.84,6.61 C21.8084758,5.57799147 20.409138,4.99817438 18.95,4.99817438 C17.490862,4.99817438 16.0915242,5.57799147 15.06,6.61 L14,7.67 L12.94,6.61 C10.7916123,4.46161238 7.30838771,4.4616124 5.16000006,6.61000006 C3.0116124,8.75838771 3.01161238,12.2416123 5.16,14.39 L6.22,15.45 L14,23.23 L21.78,15.45 L22.84,14.39 C23.8720085,13.3584758 24.4518256,11.959138 24.4518256,10.5 C24.4518256,9.04086197 23.8720085,7.6415242 22.84,6.61 Z" id="Shape" stroke-width="2" transform="translate(14.000267, 14.114087) rotate(-45.000000) translate(-14.000267, -14.114087) "></path>
                            <g id="Group" transform="translate(77.000000, 14.000000) rotate(-45.000000) translate(-77.000000, -14.000000) translate(69.000000, 5.000000)" stroke-width="2">
                                <path d="M0,6 L16,6" id="Shape"></path>
                                <path d="M0,12 L16,12" id="Shape"></path>
                                <path d="M6,0 L4,18" id="Shape"></path>
                                <path d="M12,0 L10,18" id="Shape"></path>
                            </g>
                            <g id="Group-4" transform="translate(77.000000, 77.000000) rotate(-45.000000) translate(-77.000000, -77.000000) translate(67.000000, 67.000000)" stroke-width="2">
                                <circle id="Oval" cx="10" cy="3" r="3"></circle>
                                <path d="M10,20 L10,6" id="Shape"></path>
                                <path d="M3,10 L0,10 C2.22044605e-15,15.5228475 4.4771525,20 10,20 C15.5228475,20 20,15.5228475 20,10 L17,10" id="Shape"></path>
                            </g>
                            <g id="Group-5" transform="translate(140.000000, 77.000000) rotate(-45.000000) translate(-140.000000, -77.000000) translate(130.000000, 67.000000)" stroke-width="2">
                                <path d="M10,0 L10,4" id="Shape"></path>
                                <path d="M10,16 L10,20" id="Shape"></path>
                                <path d="M2.93,2.93 L5.76,5.76" id="Shape"></path>
                                <path d="M14.24,14.24 L17.07,17.07" id="Shape"></path>
                                <path d="M0,10 L4,10" id="Shape"></path>
                                <path d="M16,10 L20,10" id="Shape"></path>
                                <path d="M2.93,17.07 L5.76,14.24" id="Shape"></path>
                                <path d="M14.24,5.76 L17.07,2.93" id="Shape"></path>
                            </g>
                            <g id="Group-7" transform="translate(14.000000, 77.000000) rotate(-45.000000) translate(-14.000000, -77.000000) translate(5.000000, 67.000000)" stroke-width="2">
                                <rect id="Rectangle-path" x="0" y="2" width="18" height="18" rx="2"></rect>
                                <path d="M13,0 L13,4" id="Shape"></path>
                                <path d="M5,0 L5,4" id="Shape"></path>
                                <path d="M0,8 L18,8" id="Shape"></path>
                            </g>
                            <g id="Group-6" transform="translate(194.000000, 68.000000)" stroke-width="2">
                                <polygon id="Shape" points="13 0 18 5 5 18 0 18 0 13"></polygon>
                            </g>
                            <g id="Group-3" transform="translate(203.500000, 14.500000) rotate(-45.000000) translate(-203.500000, -14.500000) translate(195.000000, 4.000000)" stroke-width="2">
                                <path d="M8,0.69 L13.66,6.35 C15.9490712,8.63757131 16.6344785,12.0789253 15.3965378,15.0689642 C14.1585972,18.059003 11.2411752,20.0087079 8.005,20.0087079 C4.76882485,20.0087079 1.85140283,18.059003 0.613462165,15.0689642 C-0.624478498,12.0789253 0.0609287647,8.63757131 2.35,6.35 L8,0.69 Z" id="Shape"></path>
                            </g>
                            <g id="Group-2" transform="translate(140.000000, 14.500000) rotate(-45.000000) translate(-140.000000, -14.500000) translate(131.000000, 8.000000)" stroke-width="2">
                                <path d="M15,4 L3,4" id="Shape"></path>
                                <path d="M18,0 L0,0" id="Shape"></path>
                                <path d="M18,8 L0,8" id="Shape"></path>
                                <path d="M15,12 L3,12" id="Shape"></path>
                            </g>
                        </g>
                    </g>
                    <g id="pattern" transform="translate(744.000000, 120.000000)">
                        <g id="Group-69" transform="translate(7.000000, 1.000000)">
                            <path d="M22.84,6.61 C21.8084758,5.57799147 20.409138,4.99817438 18.95,4.99817438 C17.490862,4.99817438 16.0915242,5.57799147 15.06,6.61 L14,7.67 L12.94,6.61 C10.7916123,4.46161238 7.30838771,4.4616124 5.16000006,6.61000006 C3.0116124,8.75838771 3.01161238,12.2416123 5.16,14.39 L6.22,15.45 L14,23.23 L21.78,15.45 L22.84,14.39 C23.8720085,13.3584758 24.4518256,11.959138 24.4518256,10.5 C24.4518256,9.04086197 23.8720085,7.6415242 22.84,6.61 Z" id="Shape" stroke-width="2" transform="translate(14.000267, 14.114087) rotate(-45.000000) translate(-14.000267, -14.114087) "></path>
                            <g id="Group" transform="translate(77.000000, 14.000000) rotate(-45.000000) translate(-77.000000, -14.000000) translate(69.000000, 5.000000)" stroke-width="2">
                                <path d="M0,6 L16,6" id="Shape"></path>
                                <path d="M0,12 L16,12" id="Shape"></path>
                                <path d="M6,0 L4,18" id="Shape"></path>
                                <path d="M12,0 L10,18" id="Shape"></path>
                            </g>
                            <g id="Group-4" transform="translate(77.000000, 77.000000) rotate(-45.000000) translate(-77.000000, -77.000000) translate(67.000000, 67.000000)" stroke-width="2">
                                <circle id="Oval" cx="10" cy="3" r="3"></circle>
                                <path d="M10,20 L10,6" id="Shape"></path>
                                <path d="M3,10 L0,10 C2.22044605e-15,15.5228475 4.4771525,20 10,20 C15.5228475,20 20,15.5228475 20,10 L17,10" id="Shape"></path>
                            </g>
                            <g id="Group-5" transform="translate(140.000000, 77.000000) rotate(-45.000000) translate(-140.000000, -77.000000) translate(130.000000, 67.000000)" stroke-width="2">
                                <path d="M10,0 L10,4" id="Shape"></path>
                                <path d="M10,16 L10,20" id="Shape"></path>
                                <path d="M2.93,2.93 L5.76,5.76" id="Shape"></path>
                                <path d="M14.24,14.24 L17.07,17.07" id="Shape"></path>
                                <path d="M0,10 L4,10" id="Shape"></path>
                                <path d="M16,10 L20,10" id="Shape"></path>
                                <path d="M2.93,17.07 L5.76,14.24" id="Shape"></path>
                                <path d="M14.24,5.76 L17.07,2.93" id="Shape"></path>
                            </g>
                            <g id="Group-7" transform="translate(14.000000, 77.000000) rotate(-45.000000) translate(-14.000000, -77.000000) translate(5.000000, 67.000000)" stroke-width="2">
                                <rect id="Rectangle-path" x="0" y="2" width="18" height="18" rx="2"></rect>
                                <path d="M13,0 L13,4" id="Shape"></path>
                                <path d="M5,0 L5,4" id="Shape"></path>
                                <path d="M0,8 L18,8" id="Shape"></path>
                            </g>
                            <g id="Group-6" transform="translate(194.000000, 68.000000)" stroke-width="2">
                                <polygon id="Shape" points="13 0 18 5 5 18 0 18 0 13"></polygon>
                            </g>
                            <g id="Group-3" transform="translate(203.500000, 14.500000) rotate(-45.000000) translate(-203.500000, -14.500000) translate(195.000000, 4.000000)" stroke-width="2">
                                <path d="M8,0.69 L13.66,6.35 C15.9490712,8.63757131 16.6344785,12.0789253 15.3965378,15.0689642 C14.1585972,18.059003 11.2411752,20.0087079 8.005,20.0087079 C4.76882485,20.0087079 1.85140283,18.059003 0.613462165,15.0689642 C-0.624478498,12.0789253 0.0609287647,8.63757131 2.35,6.35 L8,0.69 Z" id="Shape"></path>
                            </g>
                            <g id="Group-2" transform="translate(140.000000, 14.500000) rotate(-45.000000) translate(-140.000000, -14.500000) translate(131.000000, 8.000000)" stroke-width="2">
                                <path d="M15,4 L3,4" id="Shape"></path>
                                <path d="M18,0 L0,0" id="Shape"></path>
                                <path d="M18,8 L0,8" id="Shape"></path>
                                <path d="M15,12 L3,12" id="Shape"></path>
                            </g>
                        </g>
                    </g>
                    <g id="pattern" transform="translate(248.000000, 119.000000)">
                        <g id="Group-69" transform="translate(7.000000, 1.000000)">
                            <path d="M22.84,6.61 C21.8084758,5.57799147 20.409138,4.99817438 18.95,4.99817438 C17.490862,4.99817438 16.0915242,5.57799147 15.06,6.61 L14,7.67 L12.94,6.61 C10.7916123,4.46161238 7.30838771,4.4616124 5.16000006,6.61000006 C3.0116124,8.75838771 3.01161238,12.2416123 5.16,14.39 L6.22,15.45 L14,23.23 L21.78,15.45 L22.84,14.39 C23.8720085,13.3584758 24.4518256,11.959138 24.4518256,10.5 C24.4518256,9.04086197 23.8720085,7.6415242 22.84,6.61 Z" id="Shape" stroke-width="2" transform="translate(14.000267, 14.114087) rotate(-45.000000) translate(-14.000267, -14.114087) "></path>
                            <g id="Group" transform="translate(77.000000, 14.000000) rotate(-45.000000) translate(-77.000000, -14.000000) translate(69.000000, 5.000000)" stroke-width="2">
                                <path d="M0,6 L16,6" id="Shape"></path>
                                <path d="M0,12 L16,12" id="Shape"></path>
                                <path d="M6,0 L4,18" id="Shape"></path>
                                <path d="M12,0 L10,18" id="Shape"></path>
                            </g>
                            <g id="Group-4" transform="translate(77.000000, 77.000000) rotate(-45.000000) translate(-77.000000, -77.000000) translate(67.000000, 67.000000)" stroke-width="2">
                                <circle id="Oval" cx="10" cy="3" r="3"></circle>
                                <path d="M10,20 L10,6" id="Shape"></path>
                                <path d="M3,10 L0,10 C2.22044605e-15,15.5228475 4.4771525,20 10,20 C15.5228475,20 20,15.5228475 20,10 L17,10" id="Shape"></path>
                            </g>
                            <g id="Group-5" transform="translate(140.000000, 77.000000) rotate(-45.000000) translate(-140.000000, -77.000000) translate(130.000000, 67.000000)" stroke-width="2">
                                <path d="M10,0 L10,4" id="Shape"></path>
                                <path d="M10,16 L10,20" id="Shape"></path>
                                <path d="M2.93,2.93 L5.76,5.76" id="Shape"></path>
                                <path d="M14.24,14.24 L17.07,17.07" id="Shape"></path>
                                <path d="M0,10 L4,10" id="Shape"></path>
                                <path d="M16,10 L20,10" id="Shape"></path>
                                <path d="M2.93,17.07 L5.76,14.24" id="Shape"></path>
                                <path d="M14.24,5.76 L17.07,2.93" id="Shape"></path>
                            </g>
                            <g id="Group-7" transform="translate(14.000000, 77.000000) rotate(-45.000000) translate(-14.000000, -77.000000) translate(5.000000, 67.000000)" stroke-width="2">
                                <rect id="Rectangle-path" x="0" y="2" width="18" height="18" rx="2"></rect>
                                <path d="M13,0 L13,4" id="Shape"></path>
                                <path d="M5,0 L5,4" id="Shape"></path>
                                <path d="M0,8 L18,8" id="Shape"></path>
                            </g>
                            <g id="Group-6" transform="translate(194.000000, 68.000000)" stroke-width="2">
                                <polygon id="Shape" points="13 0 18 5 5 18 0 18 0 13"></polygon>
                            </g>
                            <g id="Group-3" transform="translate(203.500000, 14.500000) rotate(-45.000000) translate(-203.500000, -14.500000) translate(195.000000, 4.000000)" stroke-width="2">
                                <path d="M8,0.69 L13.66,6.35 C15.9490712,8.63757131 16.6344785,12.0789253 15.3965378,15.0689642 C14.1585972,18.059003 11.2411752,20.0087079 8.005,20.0087079 C4.76882485,20.0087079 1.85140283,18.059003 0.613462165,15.0689642 C-0.624478498,12.0789253 0.0609287647,8.63757131 2.35,6.35 L8,0.69 Z" id="Shape"></path>
                            </g>
                            <g id="Group-2" transform="translate(140.000000, 14.500000) rotate(-45.000000) translate(-140.000000, -14.500000) translate(131.000000, 8.000000)" stroke-width="2">
                                <path d="M15,4 L3,4" id="Shape"></path>
                                <path d="M18,0 L0,0" id="Shape"></path>
                                <path d="M18,8 L0,8" id="Shape"></path>
                                <path d="M15,12 L3,12" id="Shape"></path>
                            </g>
                        </g>
                    </g>
                </g>
                <g id="logo-st-copy-2" transform="translate(560.000000, 73.000000)">
                    <g id="Group">
                        <g id="Group-3-Copy">
                            <path d="M50.3656704,3.5491241 C35.0721217,10.0437215 0.118076096,43.4795545 0,69.8274112 C0.205924311,97.0656094 35.0721217,129.611957 50.3656704,136.106554 C53.8724333,137.594703 59.3139325,139.654822 65.0609614,139.654822 C70.3019035,139.654822 74.7396092,137.073489 79.2551319,131.652619 C86.8447261,122.539633 85.9314718,109.436464 75.8165645,102 C63.712301,93.1062118 53.8058654,85.1233226 53.5993342,69.8274112 C53.8058654,54.532356 63.712301,43.8566263 75.8165645,34.9619819 C85.9314718,27.5263742 87.9014325,16.2471966 80.3118383,7.13421037 C75.7971691,1.71334073 70.30105,0 65.0609614,0 C59.3130791,0 53.8724333,2.06011884 50.3656704,3.5491241 Z" id="Fill-1" fill="url(#linearGradient-1)"></path>
                            <path d="M79,132 C85.7125936,124.379343 86.5459586,109.261715 76.0097797,102 C61.241261,91.8212834 53.702407,82.1177282 53.790832,69.6825016 C53.8911042,55.581183 62.8820786,46.7513901 65.1228474,44 C31.5876508,81.5787459 26.9426627,124.03764 59.4090241,138.995286 C66.8374322,141.573182 73.2000488,138.584555 79,132 Z" id="Fill-9" fill="#005892"></path>
                            <path d="M63.3188443,118.50899 C67.6279536,113.223364 67.2175575,103.202241 61.3992903,97.7012342 C52.1476939,88.9541124 50.4958685,79.4381464 50.5526324,70.8131744 C50.6170016,61.0326144 56.3887037,54.9083418 57.8271518,53 C36.2994333,79.0643127 29.9009485,112.986362 50.7425347,123.360864 C55.5111568,125.148872 59.5956004,123.075984 63.3188443,118.50899 Z" id="Fill-9" fill="#00418E"></path>
                            <path d="M54.1874614,108.30188 C56.9372527,104.92894 56.6753648,98.534115 52.9625277,95.0237329 C47.0587647,89.4418926 46.0046779,83.3694262 46.0409009,77.8655338 C46.0819771,71.6242209 48.0644251,66.2372141 44.8057249,73.4467939 C41.5470248,80.6563738 32.8623486,104.7777 46.1620841,111.398028 C49.2051064,112.539018 51.8115309,111.216237 54.1874614,108.30188 Z" id="Fill-9" fill="#002355"></path>
                        </g>
                        <g id="Group-4-Copy" transform="translate(80.000000, 46.000000)">
                            <g id="Group-5">
                                <path d="M19.8391842,139.92229 C14.6239855,139.92229 9.15397251,138.209902 4.66074758,132.792049 C-2.89279671,123.684134 -0.919130843,112.412766 9.14773151,104.981296 C21.1945007,96.0916011 31.0408194,85.4202781 31.2463696,70.1337337 C31.0408194,54.8463336 21.1820232,44.693695 9.14773151,35.7588711 C0.262990967,29.1624221 -2.89279671,16.5824778 4.66074758,7.47456247 C9.15482189,2.05670925 14.6231361,0.345177665 19.8391842,0.345177665 C25.5589151,0.345177665 30.9745677,2.40415016 34.4646738,3.89147111 C49.6855794,10.3824546 84.3181638,42.8297551 84.5863616,70.1337337 C84.5005901,95.8691713 49.6855794,129.884157 34.4646738,136.375141 C30.9745677,137.863317 25.5597645,139.92229 19.8391842,139.92229 Z" id="Fill-1-Copy-6" fill="url(#linearGradient-2)"></path>
                                <path d="M43.7880059,88.5258351 C50.5348346,80.9051777 49.3905577,67.2283851 38.800643,59.9666698 C23.956803,49.7879533 16.8798406,38.1177282 16.9687165,25.6825016 C17.0695002,11.581183 26.1063297,2.75139013 28.3585267,-7.10542736e-15 C-6.67016534,25.6825016 -10.0163817,80.0376396 22.6155622,94.995286 C30.081856,97.5731821 37.9584742,95.1103901 43.7880059,88.5258351 Z" id="Fill-9" fill="#470000" opacity="0.600000024" style="mix-blend-mode: multiply;" transform="translate(24.000000, 48.000000) rotate(-180.000000) translate(-24.000000, -48.000000) "></path>
                                <path d="M45.2005023,78.8480868 C49.5096115,73.5624607 49.0992155,63.5413371 43.2809483,58.0403306 C34.0293519,49.2932089 32.3775265,39.7772429 32.4342904,31.1522708 C32.4986596,21.3717108 34.4592203,16.9083418 35.8976684,15 C18.3761519,35.5536341 12.6489322,73.7741074 32.6241927,83.6999603 C37.3928147,85.4879681 41.4772584,83.4150806 45.2005023,78.8480868 Z" id="Fill-9-Copy" fill="#670010" transform="translate(34.044438, 49.669548) rotate(-180.000000) translate(-34.044438, -49.669548) "></path>
                                <path d="M46.3728537,65.8231928 C49.122645,62.4502524 48.8607572,56.0554275 45.14792,52.5450454 C39.244157,46.9632051 37.2677098,39.8780028 37.0462305,35.9497958 C36.7730562,31.1047156 36.8052219,30.4168565 37.6562305,27 C35.0587696,31.6682228 23.6841836,63.8821584 38.3474764,68.9193408 C41.3904988,70.0603303 43.9969232,68.7375492 46.3728537,65.8231928 Z" id="Fill-9-Copy-2" fill="#730000" style="mix-blend-mode: multiply;" transform="translate(39.608013, 48.163598) rotate(-180.000000) translate(-39.608013, -48.163598) "></path>
                            </g>
                        </g>
                    </g>
                </g>
            </g>
        </g>
    </g>
</svg>