<svg xmlns="http://www.w3.org/2000/svg" width="48" height="54" viewBox="0 0 48 54">
  <defs>
    <linearGradient id="logo-a" x1="66.548%" x2="80.272%" y1="-4.692%" y2="111.186%">
      <stop offset="0%" stop-color="#7AD852"/>
      <stop offset="53.584%" stop-color="#3AB38B"/>
      <stop offset="100%" stop-color="#00BFC9"/>
    </linearGradient>
    <linearGradient id="logo-b" x1="78.094%" x2="20.394%" y1=".738%" y2="118.622%">
      <stop offset="0%" stop-color="#FF2953"/>
      <stop offset="100%" stop-color="#EA3333"/>
    </linearGradient>
  </defs>
  <g fill="none" fill-rule="evenodd">
    <path fill="url(#logo-a)" d="M14.6518314,1.03039087 C10.202799,2.91591915 0.0343494096,12.6230965 0,20.2724742 C0.0599052542,28.1803382 10.202799,37.6292779 14.6518314,39.5148061 C15.6719806,39.9468494 17.2549622,40.5449484 18.9268251,40.5449484 C20.4514628,40.5449484 21.7424318,39.795529 23.0560384,38.2217282 C25.2639203,35.5760225 24.9982463,31.7718766 22.0557278,29.6129032 C18.5344876,27.0308357 15.6526154,24.7132227 15.5925336,20.2724742 C15.6526154,15.8319743 18.5344876,12.7325689 22.0557278,10.1502528 C24.9982463,7.991528 25.5713258,4.71692803 23.3634439,2.07122237 C22.0500856,0.497421502 20.4512146,0 18.9268251,0 C17.2547139,0 15.6719806,0.598099017 14.6518314,1.03039087 Z"/>
    <path fill="#005892" d="M22.9818182,38.3225806 C24.9345727,36.1101317 25.1770061,31.7211431 22.1119359,29.6129032 C17.8156396,26.657792 15.6225184,23.8406308 15.648242,20.2304037 C15.6774121,16.1364725 18.2929683,13.5729842 18.9448283,12.7741935 C9.18913478,23.684152 7.83786553,36.0109276 17.2826252,40.3534701 C19.4436166,41.1018916 21.2945596,40.2342256 22.9818182,38.3225806 Z"/>
    <path fill="#00418E" d="M18.4200274,34.4058359 C19.6735865,32.8712993 19.5541986,29.9619408 17.8616117,28.3648744 C15.1702382,25.8253875 14.6897072,23.0626877 14.7062203,20.5586635 C14.7249459,17.7191461 16.4039865,15.9411315 16.8224442,15.3870968 C10.5598351,22.9541553 8.69845775,32.8024922 14.7614646,35.8144444 C16.1487002,36.3335434 17.3369019,35.7317373 18.4200274,34.4058359 Z"/>
    <path fill="#002355" d="M15.7636251,31.4424814 C16.5635644,30.4632406 16.4873789,28.6066786 15.4072808,27.5875354 C13.6898224,25.9670011 13.383179,24.204027 13.3937166,22.6061227 C13.4056661,20.7941287 13.9823782,19.2301589 13.0343927,21.3232628 C12.0864072,23.4163666 9.55995594,30.4193324 13.4289699,32.3413631 C14.3142128,32.6726181 15.0724454,32.2885849 15.7636251,31.4424814 Z"/>
    <g transform="translate(23.273 13.355)">
      <path fill="url(#logo-b)" d="M5.77139903,40.6226003 C4.25425032,40.6226003 2.66297382,40.1254556 1.35585384,38.5525304 C-0.84154086,35.9082969 -0.267383518,32.6359644 2.66115826,30.4784408 C6.16567294,27.8975616 9.03005655,24.7994356 9.08985296,20.3614066 C9.03005655,15.9231291 6.16204311,12.9755889 2.66115826,10.3816077 C0.0765064631,8.46650964 -0.84154086,4.81426775 1.35585384,2.17003427 C2.66322091,0.597109137 4.25400323,0.10021287 5.77139903,0.10021287 C7.43532076,0.10021287 9.01078333,0.697979079 10.0260869,1.12978193 C14.4539867,3.01426102 24.5289204,12.434445 24.6069416,20.3614066 C24.5819898,27.8329852 14.4539867,37.7083037 10.0260869,39.5927828 C9.01078333,40.0248341 7.43556785,40.6226003 5.77139903,40.6226003 Z"/>
      <path fill="#470000" d="M12.738329,25.7010489 C14.7010428,23.4886 14.3681622,19.5179183 11.2874598,17.4096783 C6.96925179,14.4545671 4.91049908,11.0664372 4.9363539,7.45621015 C4.96567279,3.36227893 7.59456864,0.798790683 8.24975321,-7.10542736e-15 C-1.94041173,7.45621015 -2.9138565,23.2367341 6.57907263,27.5792766 C8.75108539,28.327698 11.0424652,27.6126939 12.738329,25.7010489 Z" opacity=".6" style="mix-blend-mode:multiply" transform="rotate(-180 6.982 13.935)"/>
      <path fill="#670010" d="M13.149237,22.89138 C14.4027961,21.3568434 14.2834082,18.447485 12.5908213,16.8504186 C9.89944781,14.3109316 9.4189168,11.5482318 9.43542993,9.04420765 C9.45415551,6.20469023 10.0245005,4.90887344 10.4429581,4.35483871 C5.34578963,10.3220228 3.67968937,21.4182892 9.49067424,24.2999885 C10.8779097,24.8190875 12.0661115,24.2172815 13.149237,22.89138 Z" transform="rotate(-180 9.904 14.42)"/>
      <path fill="#730000" d="M13.4902847,19.1099592 C14.290224,18.1307184 14.2140385,16.2741564 13.1339404,15.2550132 C11.416482,13.6344789 10.8415156,11.5774847 10.7770852,10.4370375 C10.6976164,9.0304013 10.7069736,8.83070029 10.9545398,7.83870968 C10.1989148,9.19400016 6.88994432,18.5464331 11.1556295,20.0088409 C12.0408724,20.3400959 12.7991049,19.9560627 13.4902847,19.1099592 Z" style="mix-blend-mode:multiply" transform="rotate(-180 11.522 13.983)"/>
    </g>
  </g>
</svg>
