<svg xmlns="http://www.w3.org/2000/svg" xmlns:xlink="http://www.w3.org/1999/xlink" width="175" height="144" viewBox="0 0 175 144">
  <defs>
    <polygon id="quote-a" points="35.891 0 0 0 0 144 35.891 144 71.783 144 71.783 0"/>
  </defs>
  <g fill="none" fill-rule="evenodd">
    <mask id="quote-b" fill="#fff">
      <use xlink:href="#quote-a"/>
    </mask>
    <path fill="#577083" d="M66.0897,0 L71.0897,0 L71.0897,30.685 C45.9157,34.343 29.4077,51.243 31.3377,72.107 L71.4717,72.107 C71.6217,73.358 71.7667,74.002 71.7667,74.647 C71.7827,96.643 71.7957,118.64 71.7597,140.636 C71.7577,141.758 71.3227,142.879 71.0897,144 L0.0897,144 C0.0677,119.858 -0.0763,95.716 0.0537,71.575 C0.2317,38.741 22.1807,10.681 53.9267,2.496 C57.9297,1.463 62.0327,0.822 66.0897,0" mask="url(#quote-b)"/>
    <path fill="#577083" d="M168.0897,0 L174.0897,0 L174.0897,30.748 C149.3987,33.387 131.7007,51.461 133.6927,72.087 L174.0897,72.087 L174.0897,144 L103.0897,144 C102.8497,142.885 102.4017,141.77 102.4007,140.654 C102.3767,117.217 101.9137,93.766 102.5367,70.345 C103.4127,37.479 125.2647,10.463 156.4897,2.47 C160.3167,1.491 164.2207,0.816 168.0897,0"/>
  </g>
</svg>
