<svg xmlns="http://www.w3.org/2000/svg" width="32" height="32" viewBox="0 0 32 32">
  <defs>
    <linearGradient id="vscode-stylable-a" x1="66.548%" x2="80.272%" y1="-4.692%" y2="111.186%">
      <stop offset="0%" stop-color="#7AD852"/>
      <stop offset="53.584%" stop-color="#3AB38B"/>
      <stop offset="100%" stop-color="#00BFC9"/>
    </linearGradient>
    <linearGradient id="vscode-stylable-b" x1="78.094%" x2="20.394%" y1=".738%" y2="118.622%">
      <stop offset="0%" stop-color="#FF2953"/>
      <stop offset="100%" stop-color="#EA3333"/>
    </linearGradient>
  </defs>
  <g fill="none" fill-rule="evenodd" transform="translate(4.065 2)">
    <path fill="url(#vscode-stylable-a)" d="M7.63116218,0.534276746 C5.31395784,1.51195808 0.0178903175,6.54530928 0,10.5116533 C0.0312006532,14.6120272 5.31395784,19.5114774 7.63116218,20.4891587 C8.1624899,20.7131812 8.98695948,21.0233066 9.85772142,21.0233066 C10.6518036,21.0233066 11.3241832,20.6347188 12.0083533,19.8186739 C13.1582918,18.4468265 13.01992,16.4743064 11.4873583,15.3548387 C9.65337895,14.0159889 8.15240385,12.8142636 8.12111125,10.5116533 C8.15240385,8.20917187 9.65337895,6.60207278 11.4873583,5.26309405 C13.01992,4.14375526 13.3183989,2.44581454 12.1684603,1.07396715 C11.4844196,0.25792226 10.6516742,0 9.85772142,0 C8.98683017,0 8.1624899,0.310125416 7.63116218,0.534276746 Z"/>
    <path fill="#005892" d="M11.969697,19.8709677 C12.9867566,18.723772 13.113024,16.4480002 11.5166333,15.3548387 C9.27897894,13.8225588 8.13672833,12.3618085 8.15012605,10.489839 C8.16531882,8.3670598 9.52758767,7.03784368 9.86709809,6.62365591 C4.7860077,12.2806714 4.08222163,18.6723328 9.00136729,20.9240216 C10.1268837,21.3120919 11.0909165,20.8621911 11.969697,19.8709677 Z"/>
    <path fill="#00418E" d="M9.59376429,17.8400631 C10.2466596,17.0443774 10.1844784,15.5358212 9.30292278,14.7077127 C7.90116574,13.3909417 7.65088917,11.9584306 7.65948976,10.6600478 C7.66924266,9.18770539 8.54374299,8.26577189 8.76168967,7.97849462 C5.49991413,11.9021546 4.53044674,17.0086996 7.68826284,18.5704526 C8.41078133,18.8396151 9.02963642,18.5275675 9.59376429,17.8400631 Z"/>
    <path fill="#002355" d="M8.21022142,16.3035089 C8.62685647,15.7957544 8.58717649,14.8330926 8.02462541,14.304648 C7.13011586,13.4643709 6.97040574,12.5502362 6.97589407,11.7216933 C6.98211774,10.7821408 7.28248865,9.97119352 6.7887462,11.0565066 C6.29500375,12.1418197 4.97914372,15.7729872 6.99425517,16.7695957 C7.45531916,16.9413575 7.85023195,16.7422292 8.21022142,16.3035089 Z"/>
    <g transform="translate(12.121 6.925)">
      <path fill="url(#vscode-stylable-b)" d="M3.00593699,21.0635705 C2.21575537,21.0635705 1.38696553,20.8057918 0.706173876,19.990201 C-0.438302531,18.6191169 -0.139262249,16.9223519 1.38601993,15.803636 C3.21128799,14.4654023 4.70315445,12.8589666 4.73429842,10.5577664 C4.70315445,8.25643732 3.20939745,6.72808311 1.38601993,5.38305587 C0.0398471162,4.39004204 -0.438302531,2.49628698 0.706173876,1.12520295 C1.38709423,0.309612145 2.21562668,0.0519622291 3.00593699,0.0519622291 C3.87256289,0.0519622291 4.69311632,0.361915078 5.22192027,0.585812855 C7.52811809,1.56295016 12.7754794,6.44749001 12.8161154,10.5577664 C12.8031197,14.4319183 7.52811809,19.5524538 5.22192027,20.5295911 C4.69311632,20.7536177 3.87269159,21.0635705 3.00593699,21.0635705 Z"/>
      <path fill="#470000" d="M6.63454635,13.3264698 C7.65679312,12.1792741 7.48341783,10.1204021 5.8788853,9.02724062 C3.62981864,7.4949607 2.5575516,5.73815263 2.57101766,3.86618304 C2.58628791,1.74340389 3.9555045,0.414187762 4.29674647,0 C-1.01063111,3.86618304 -1.51763359,12.0486769 3.42660033,14.3003656 C4.55785698,14.688436 5.75128398,14.3176931 6.63454635,13.3264698 Z" opacity=".6" style="mix-blend-mode:multiply" transform="rotate(-180 3.636 7.226)"/>
      <path fill="#670010" d="M6.84856096,11.8696045 C7.50145629,11.0739188 7.43927508,9.56536257 6.55771944,8.73725407 C5.1559624,7.42048306 4.90568583,5.98797204 4.91428642,4.68958915 C4.92403933,3.21724679 5.22109399,2.54534178 5.43904067,2.25806452 C2.78426543,5.35215997 1.91650488,11.1057796 4.9430595,12.599994 C5.66557799,12.8691565 6.28443309,12.5571089 6.84856096,11.8696045 Z" transform="rotate(-180 5.158 7.477)"/>
      <path fill="#730000" d="M7.02618996,9.90886774 C7.44282501,9.40111327 7.40314503,8.43845145 6.84059395,7.91000684 C5.94608439,7.0697298 5.6466227,6.0031402 5.61306523,5.41179722 C5.57167519,4.6824303 5.57654877,4.57888163 5.70548948,4.06451613 C5.31193479,4.76725934 3.58851267,9.61666901 5.8102237,10.3749545 C6.27128769,10.5467164 6.66620049,10.3475881 7.02618996,9.90886774 Z" style="mix-blend-mode:multiply" transform="rotate(-180 6.001 7.25)"/>
    </g>
  </g>
</svg>
